<?xml version="1.0" encoding="utf-8"?>
<!-- Generator: Adobe Illustrator 17.1.0, SVG Export Plug-In . SVG Version: 6.00 Build 0)  -->
<!DOCTYPE svg PUBLIC "-//W3C//DTD SVG 1.1//EN" "http://www.w3.org/Graphics/SVG/1.1/DTD/svg11.dtd">
<svg version="1.1" xmlns="http://www.w3.org/2000/svg" xmlns:xlink="http://www.w3.org/1999/xlink" x="0px" y="0px"
	 viewBox="0 0 150 150" enable-background="new 0 0 150 150" xml:space="preserve">
<g id="Ebene_2" display="none">
	<rect display="inline" fill="#020303" width="150" height="150"/>
</g>
<g id="bra">
	<circle fill="none" stroke="#FFFFFF" stroke-miterlimit="10" cx="75" cy="75" r="54.5"/>
	<circle fill="#00923F" cx="75" cy="75" r="50.5"/>
	<g>
		<defs>
			<circle id="SVGID_1_" cx="75" cy="75" r="50.5"/>
		</defs>
		<clipPath id="SVGID_2_">
			<use xlink:href="#SVGID_1_"  overflow="visible"/>
		</clipPath>
		<g clip-path="url(#SVGID_2_)">
			<path fill="#039340" d="M25,40h100v70H25V40L25,40z M25,40"/>
			<path fill="#F8C300" d="M75,48.5L33.5,75L75,101.5L116.5,75L75,48.5L75,48.5z M75,48.5"/>
			<path fill="#2E2868" d="M92.4,75c0,9.6-7.8,17.5-17.5,17.5c-9.6,0-17.5-7.8-17.5-17.5S65.3,57.5,75,57.5
				C84.6,57.5,92.4,65.4,92.4,75L92.4,75z M92.4,75"/>
			<path fill="#FFFFFF" d="M76.7,78.8l0.2,0.5l0.6,0l-0.4,0.4l0.1,0.6L76.7,80l-0.5,0.3l0.1-0.6L76,79.3l0.6,0L76.7,78.8L76.7,78.8z
				 M89.8,80.6l0.2,0.5l0.5,0l-0.4,0.3l0.1,0.5l-0.4-0.3l-0.4,0.3l0.1-0.5l-0.4-0.3l0.5,0L89.8,80.6L89.8,80.6z M87.9,82.1l0.2,0.5
				l0.6,0L88.3,83l0.1,0.6l-0.5-0.3l-0.5,0.3l0.1-0.6l-0.4-0.4l0.6,0L87.9,82.1L87.9,82.1z M87.2,80.2l0.3,0.6l0.7,0l-0.5,0.4
				l0.2,0.7l-0.6-0.4L86.7,82l0.2-0.7l-0.5-0.4l0.7,0L87.2,80.2L87.2,80.2z M87.1,83.5l0.2,0.5l0.6,0l-0.4,0.4l0.1,0.6l-0.5-0.3
				L86.6,85l0.1-0.6L86.3,84l0.6,0L87.1,83.5L87.1,83.5z M85.5,84.3l0.2,0.5l0.5,0l-0.4,0.3l0.1,0.5l-0.4-0.3L85,85.6l0.1-0.5
				l-0.4-0.3l0.5,0L85.5,84.3L85.5,84.3z M83.8,85.9l0.2,0.5l0.6,0l-0.4,0.4l0.1,0.6l-0.5-0.3l-0.5,0.3l0.1-0.6L83,86.5l0.6,0
				L83.8,85.9L83.8,85.9z M83.8,87.8l0.2,0.5l0.5,0L84,88.6l0.1,0.5l-0.4-0.3l-0.4,0.3l0.1-0.5l-0.4-0.3l0.5,0L83.8,87.8L83.8,87.8z
				 M83.7,84.3l0.2,0.5l0.5,0L84,85.1l0.1,0.5l-0.4-0.3l-0.4,0.3l0.1-0.5l-0.4-0.3l0.5,0L83.7,84.3L83.7,84.3z M81.7,84.7l0.2,0.5
				l0.5,0L82,85.5l0.1,0.5l-0.4-0.3L81.3,86l0.1-0.5L81,85.2l0.5,0L81.7,84.7L81.7,84.7z M80.3,68l0.3,0.6l0.7,0l-0.5,0.4l0.2,0.7
				l-0.6-0.4l-0.6,0.4l0.2-0.7l-0.5-0.4l0.7,0L80.3,68L80.3,68z M80.1,86.3l0.2,0.5l0.6,0l-0.4,0.4l0.1,0.6l-0.5-0.3l-0.5,0.3
				l0.1-0.6l-0.4-0.4l0.6,0L80.1,86.3L80.1,86.3z M79.1,73.3l0.2,0.5l0.5,0l-0.4,0.3l0.1,0.5l-0.4-0.3l-0.4,0.3l0.1-0.5l-0.4-0.3
				l0.5,0L79.1,73.3L79.1,73.3z M78.6,84.3l0.2,0.5l0.5,0l-0.4,0.3l0.1,0.5l-0.4-0.3l-0.4,0.3l0.1-0.5L78,84.8l0.5,0L78.6,84.3
				L78.6,84.3z M75.1,77.3l0.2,0.5l0.6,0l-0.4,0.4l0.1,0.6l-0.5-0.3l-0.5,0.3l0.1-0.6l-0.4-0.4l0.6,0L75.1,77.3L75.1,77.3z M75,82.2
				l0.2,0.6l0.7,0l-0.5,0.4l0.2,0.7L75,83.6L74.5,84l0.2-0.7l-0.5-0.4l0.7,0L75,82.2L75,82.2z M75.1,88.5l0.1,0.2l0.3,0L75.2,89
				l0.1,0.3l-0.2-0.1l-0.2,0.1l0.1-0.3l-0.2-0.2l0.3,0L75.1,88.5L75.1,88.5z M74,80.2l0.1,0.3l0.4,0l-0.3,0.2l0.1,0.4L74,80.9
				l-0.3,0.2l0.1-0.4l-0.3-0.2l0.4,0L74,80.2L74,80.2z M72.7,79.1l0.2,0.5l0.5,0L73,79.9l0.1,0.5l-0.4-0.3l-0.4,0.3l0.1-0.5L72,79.6
				l0.5,0L72.7,79.1L72.7,79.1z M68.2,74.9l0.2,0.5l0.6,0l-0.4,0.4l0.1,0.6l-0.5-0.3l-0.5,0.3l0.1-0.6l-0.4-0.4l0.6,0L68.2,74.9
				L68.2,74.9z M67.7,83.7l0.2,0.6l0.7,0l-0.5,0.4l0.2,0.7l-0.6-0.4l-0.6,0.4l0.2-0.7l-0.5-0.4l0.7,0L67.7,83.7L67.7,83.7z
				 M65.7,80.3l0.2,0.5l0.6,0l-0.4,0.4l0.1,0.6l-0.5-0.3l-0.5,0.3l0.1-0.6L65,80.8l0.6,0L65.7,80.3L65.7,80.3z M65.1,82.2l0.2,0.5
				l0.5,0L65.4,83l0.1,0.5l-0.4-0.3l-0.4,0.3l0.1-0.5l-0.4-0.3l0.5,0L65.1,82.2L65.1,82.2z M63.8,77.8l0.1,0.3l0.4,0L64,78.4
				l0.1,0.4l-0.3-0.2l-0.3,0.2l0.1-0.4l-0.3-0.2l0.4,0L63.8,77.8L63.8,77.8z M62.2,78.5l0.2,0.6l0.7,0l-0.5,0.4l0.2,0.7l-0.6-0.4
				l-0.6,0.4l0.2-0.7l-0.5-0.4l0.7,0L62.2,78.5L62.2,78.5z M60.8,71.2l0.3,0.6l0.7,0l-0.5,0.4l0.2,0.7l-0.6-0.4L60.2,73l0.2-0.7
				l-0.5-0.4l0.7,0L60.8,71.2L60.8,71.2z M60.4,80.1l0.2,0.5l0.6,0l-0.4,0.4l0.1,0.6l-0.5-0.3l-0.5,0.3l0.1-0.6l-0.4-0.4l0.6,0
				L60.4,80.1L60.4,80.1z M60.4,80.1"/>
			<path fill="#FFFFFF" d="M64.5,69.6c10.4,0,19.9,3.8,27.2,10.1c0.2-0.9,0.4-1.7,0.5-2.6c-7.6-6.2-17.3-9.9-27.8-9.9
				c-1.8,0-3.6,0.1-5.4,0.3c-0.4,0.8-0.7,1.6-0.9,2.5C60.3,69.8,62.4,69.6,64.5,69.6L64.5,69.6z M64.5,69.6"/>
			<path fill="#039340" d="M60,68.7c0,0.2,0.1,0.3,0.1,0.4c0.1,0.1,0.2,0.1,0.3,0.1c0.1,0,0.2-0.1,0.3-0.2c0.1-0.1,0.1-0.2,0.1-0.4
				c0-0.2-0.1-0.3-0.1-0.4c-0.1-0.1-0.2-0.1-0.3-0.1c-0.1,0-0.2,0.1-0.3,0.2C60.1,68.4,60,68.5,60,68.7L60,68.7z M59.7,68.7
				c0-0.3,0-0.5,0.2-0.6c0.1-0.2,0.3-0.2,0.5-0.3c0.2,0,0.4,0,0.6,0.2c0.2,0.1,0.2,0.3,0.3,0.6c0,0.3,0,0.5-0.2,0.6
				c-0.1,0.2-0.3,0.2-0.5,0.3c-0.2,0-0.4,0-0.6-0.2C59.8,69.2,59.7,69,59.7,68.7L59.7,68.7z M62.3,68.4l0.4,0c0.1,0,0.1,0,0.2-0.1
				c0,0,0.1-0.1,0.1-0.2c0-0.1,0-0.1-0.1-0.2c0,0-0.1-0.1-0.2,0l-0.4,0L62.3,68.4L62.3,68.4z M62,69.3l-0.1-1.6l0.8,0
				c0.2,0,0.3,0,0.4,0.1c0.1,0.1,0.1,0.2,0.1,0.3c0,0.1,0,0.2-0.1,0.2c0,0.1-0.1,0.1-0.2,0.1c0.1,0,0.1,0.1,0.1,0.1
				c0,0,0,0.1,0.1,0.2l0,0.2v0c0,0.1,0,0.1,0.1,0.2l0,0l-0.4,0c0,0,0,0,0-0.1c0,0,0-0.1,0-0.1l0-0.2c0-0.1,0-0.2-0.1-0.2
				c0,0-0.1,0-0.2,0l-0.3,0l0,0.6L62,69.3L62,69.3z M64.3,69l0.3,0c0.1,0,0.3,0,0.3-0.1c0.1-0.1,0.1-0.2,0.1-0.4
				c0-0.2,0-0.3-0.1-0.4C64.8,68,64.7,68,64.6,68l-0.3,0L64.3,69L64.3,69z M63.9,69.2l0-1.6l0.6,0c0.2,0,0.4,0.1,0.5,0.2
				c0.1,0.1,0.2,0.3,0.2,0.6c0,0.1,0,0.3-0.1,0.4c0,0.1-0.1,0.2-0.2,0.3c-0.1,0-0.1,0.1-0.2,0.1c-0.1,0-0.2,0-0.3,0L63.9,69.2
				L63.9,69.2z M65.9,69.3l0.1-1.6l1.1,0.1l0,0.3l-0.8,0l0,0.3l0.7,0l0,0.3l-0.7,0l0,0.4l0.9,0l0,0.3L65.9,69.3L65.9,69.3z
				 M67.8,69.4l0.2-1.5l0.5,0l0.2,1.2L69,68l0.5,0l-0.2,1.5l-0.3,0l0.1-1.2l-0.4,1.2l-0.3,0l-0.2-1.3l-0.1,1.2L67.8,69.4L67.8,69.4z
				 M71.9,69.9l0.3-1.5l1.1,0.2l-0.1,0.3l-0.8-0.2l-0.1,0.3l0.7,0.2l-0.1,0.3l-0.7-0.2l-0.1,0.4l0.8,0.2L73,70.2L71.9,69.9
				L71.9,69.9z M76,70l0.3,0.1c0.1,0,0.1,0,0.2,0c0,0,0.1-0.1,0.1-0.2c0-0.1,0-0.1,0-0.2c0,0-0.1-0.1-0.1-0.1l-0.3-0.1L76,70L76,70z
				 M75.9,70.3l-0.1,0.5l-0.3-0.1l0.4-1.5l0.7,0.2c0.2,0,0.3,0.1,0.3,0.2c0.1,0.1,0.1,0.2,0,0.4c0,0.2-0.1,0.3-0.2,0.3
				c-0.1,0.1-0.2,0.1-0.4,0L75.9,70.3L75.9,70.3z M77.8,70.5l0.4,0.1c0.1,0,0.1,0,0.2,0c0,0,0.1-0.1,0.1-0.1c0-0.1,0-0.1,0-0.2
				c0,0-0.1-0.1-0.1-0.1l-0.4-0.1L77.8,70.5L77.8,70.5z M77.2,71.3l0.5-1.5l0.7,0.2c0.2,0.1,0.3,0.1,0.3,0.2c0.1,0.1,0.1,0.2,0,0.4
				c0,0.1-0.1,0.2-0.1,0.2c-0.1,0-0.1,0.1-0.2,0.1c0.1,0,0.1,0.1,0.1,0.1c0,0.1,0,0.1,0,0.2l0,0.2c0,0,0,0,0,0c0,0.1,0,0.1,0,0.2
				l0,0l-0.3-0.1c0,0,0-0.1,0-0.1c0,0,0-0.1,0-0.1l0-0.2c0-0.1,0-0.2,0-0.2c0,0-0.1-0.1-0.2-0.1l-0.3-0.1l-0.2,0.6L77.2,71.3
				L77.2,71.3z M79.6,71.3c-0.1,0.2-0.1,0.3,0,0.4c0,0.1,0.1,0.2,0.3,0.2c0.1,0,0.2,0,0.4,0c0.1-0.1,0.2-0.2,0.2-0.3
				c0.1-0.2,0.1-0.3,0-0.4c0-0.1-0.1-0.2-0.3-0.2c-0.1,0-0.2,0-0.3,0C79.8,71,79.7,71.1,79.6,71.3L79.6,71.3z M79.3,71.2
				c0.1-0.2,0.2-0.4,0.4-0.5c0.2-0.1,0.4-0.1,0.6,0c0.2,0.1,0.4,0.2,0.4,0.4c0.1,0.2,0.1,0.4,0,0.6c-0.1,0.2-0.2,0.4-0.4,0.5
				c-0.2,0.1-0.4,0.1-0.6,0c-0.2-0.1-0.4-0.2-0.4-0.4C79.2,71.6,79.2,71.4,79.3,71.2L79.3,71.2z M82.2,73c-0.1,0-0.2,0.1-0.2,0.1
				c-0.1,0-0.2,0-0.3-0.1c-0.2-0.1-0.3-0.2-0.4-0.4c-0.1-0.2,0-0.4,0-0.6c0.1-0.2,0.2-0.4,0.4-0.5c0.2-0.1,0.4-0.1,0.6,0
				c0.2,0.1,0.3,0.2,0.4,0.3c0.1,0.1,0.1,0.3,0.1,0.4l-0.3-0.1c0-0.1,0-0.2,0-0.2c0-0.1-0.1-0.1-0.2-0.2c-0.1-0.1-0.2,0-0.3,0
				c-0.1,0.1-0.2,0.2-0.3,0.3c-0.1,0.2-0.1,0.3,0,0.4c0,0.1,0.1,0.2,0.2,0.3c0.1,0,0.2,0,0.3,0c0.1,0,0.2-0.1,0.2-0.2L82,72.5
				l0.1-0.2l0.6,0.3l-0.3,0.8l-0.2-0.1L82.2,73L82.2,73z M83.7,73l0.3,0.2c0.1,0,0.1,0,0.2,0c0,0,0.1-0.1,0.1-0.1c0-0.1,0-0.1,0-0.2
				c0,0-0.1-0.1-0.1-0.1l-0.4-0.2L83.7,73L83.7,73z M83,73.6l0.7-1.4l0.7,0.3c0.2,0.1,0.2,0.2,0.3,0.3c0,0.1,0,0.2,0,0.4
				c0,0.1-0.1,0.1-0.2,0.2c-0.1,0-0.1,0.1-0.2,0c0,0.1,0.1,0.1,0.1,0.2c0,0.1,0,0.1-0.1,0.2l-0.1,0.2c0,0,0,0,0,0c0,0.1,0,0.1,0,0.2
				l0,0L83.8,74c0,0,0-0.1,0-0.1c0,0,0-0.1,0-0.1l0.1-0.1c0-0.1,0.1-0.2,0-0.2c0,0-0.1-0.1-0.1-0.1l-0.3-0.1l-0.3,0.5L83,73.6
				L83,73.6z M84.7,74.5l0.8-1.4l1,0.6l-0.1,0.2l-0.7-0.4l-0.2,0.3l0.7,0.4L86,74.4L85.4,74l-0.2,0.4l0.7,0.4l-0.1,0.3L84.7,74.5
				L84.7,74.5z M86.5,75l0.3,0.2c0,0.1,0,0.2,0,0.2c0,0.1,0.1,0.1,0.2,0.2c0.1,0,0.1,0.1,0.2,0.1c0.1,0,0.1,0,0.1-0.1
				c0-0.1,0-0.2-0.2-0.4l0,0c0,0,0,0,0,0c-0.1-0.1-0.2-0.2-0.2-0.3c0-0.1,0-0.1,0-0.2c0-0.1,0-0.1,0.1-0.2c0.1-0.1,0.2-0.2,0.3-0.2
				c0.1,0,0.3,0,0.4,0.1c0.2,0.1,0.3,0.2,0.3,0.3c0,0.1,0,0.3,0,0.4l-0.3-0.2c0-0.1,0-0.1,0-0.2c0-0.1-0.1-0.1-0.2-0.2
				c-0.1,0-0.1-0.1-0.2-0.1c-0.1,0-0.1,0-0.1,0.1c0,0.1,0,0.2,0.1,0.3c0,0,0.1,0.1,0.1,0.1c0.1,0.1,0.1,0.1,0.2,0.2
				c0,0,0.1,0.1,0.1,0.1c0,0.1,0.1,0.1,0.1,0.2c0,0.1,0,0.1-0.1,0.2c-0.1,0.1-0.2,0.2-0.3,0.2c-0.1,0-0.3,0-0.5-0.1
				c-0.2-0.1-0.3-0.2-0.3-0.4C86.4,75.3,86.4,75.1,86.5,75L86.5,75z M88.1,76l0.3,0.2c0,0.1,0,0.1,0,0.2c0,0.1,0.1,0.1,0.2,0.2
				c0.1,0.1,0.1,0.1,0.2,0.1c0.1,0,0.1,0,0.1-0.1c0.1-0.1,0-0.2-0.2-0.4c0,0,0,0,0,0c0,0,0,0,0,0c-0.1-0.1-0.2-0.2-0.2-0.3
				c0-0.1,0-0.1,0-0.2c0-0.1,0-0.1,0.1-0.2c0.1-0.1,0.2-0.2,0.3-0.2c0.1,0,0.3,0,0.4,0.1c0.2,0.1,0.2,0.2,0.3,0.3
				c0,0.1,0,0.3-0.1,0.4L89.2,76c0-0.1,0-0.1,0-0.2c0-0.1-0.1-0.1-0.2-0.2c-0.1,0-0.1-0.1-0.2-0.1c-0.1,0-0.1,0-0.1,0.1
				c0,0.1,0,0.2,0.1,0.3c0,0,0.1,0.1,0.1,0.1c0.1,0.1,0.1,0.2,0.2,0.2c0,0,0.1,0.1,0.1,0.1c0,0.1,0,0.1,0,0.2c0,0.1,0,0.1-0.1,0.2
				c-0.1,0.1-0.2,0.2-0.3,0.2c-0.1,0-0.3,0-0.5-0.1c-0.2-0.1-0.3-0.2-0.3-0.4C88,76.3,88.1,76.1,88.1,76L88.1,76z M90.1,77.1
				C90,77.2,90,77.3,90,77.4c0,0.1,0.1,0.2,0.2,0.3s0.2,0.1,0.3,0.1c0.1,0,0.2-0.1,0.3-0.2c0.1-0.1,0.2-0.3,0.1-0.4
				c0-0.1-0.1-0.2-0.2-0.3c-0.1-0.1-0.2-0.1-0.3-0.1C90.3,76.8,90.2,76.9,90.1,77.1L90.1,77.1z M89.9,76.9c0.2-0.2,0.3-0.3,0.5-0.4
				c0.2,0,0.4,0,0.6,0.2c0.2,0.1,0.3,0.3,0.3,0.5c0,0.2,0,0.4-0.2,0.6c-0.2,0.2-0.3,0.3-0.5,0.4c-0.2,0-0.4,0-0.6-0.2
				s-0.3-0.3-0.3-0.5C89.7,77.3,89.7,77.1,89.9,76.9L89.9,76.9z M89.9,76.9"/>
		</g>
	</g>
	<g>
	</g>
	<g>
	</g>
	<g>
	</g>
	<g>
	</g>
	<g>
	</g>
	<g>
	</g>
</g>
</svg>
