<?xml version="1.0" encoding="utf-8"?>
<!-- Generator: Adobe Illustrator 17.1.0, SVG Export Plug-In . SVG Version: 6.00 Build 0)  -->
<!DOCTYPE svg PUBLIC "-//W3C//DTD SVG 1.1//EN" "http://www.w3.org/Graphics/SVG/1.1/DTD/svg11.dtd">
<svg version="1.1" id="Ebene_1" xmlns="http://www.w3.org/2000/svg" xmlns:xlink="http://www.w3.org/1999/xlink" x="0px" y="0px"
	 viewBox="0 0 150 150" enable-background="new 0 0 150 150" xml:space="preserve">
<g id="Ebene_2" display="none">
	<rect display="inline" fill="#020303" width="150" height="150"/>
</g>
<g id="bra" display="none">
	<circle display="inline" fill="none" stroke="#FFFFFF" stroke-miterlimit="10" cx="75" cy="75" r="54.5"/>
	<circle display="inline" fill="#00923F" cx="75" cy="75" r="50.5"/>
	<g display="inline">
		<g>
			<defs>
				<circle id="SVGID_1_" cx="75" cy="75" r="50.5"/>
			</defs>
			<clipPath id="SVGID_2_">
				<use xlink:href="#SVGID_1_"  overflow="visible"/>
			</clipPath>
			<g clip-path="url(#SVGID_2_)">
				<path fill="#039340" d="M25,40h100v70H25V40L25,40z"/>
				<path fill="#F8C300" d="M75,48.5L33.5,75L75,101.5L116.5,75L75,48.5L75,48.5z"/>
				<path fill="#2E2868" d="M92.4,75c0,9.6-7.8,17.5-17.5,17.5c-9.6,0-17.5-7.8-17.5-17.5S65.3,57.5,75,57.5
					C84.6,57.5,92.4,65.4,92.4,75L92.4,75z"/>
				<path fill="#FFFFFF" d="M76.7,78.8l0.2,0.5h0.6l-0.4,0.4l0.1,0.6L76.7,80l-0.5,0.3l0.1-0.6L76,79.3h0.6L76.7,78.8L76.7,78.8z
					 M89.8,80.6l0.2,0.5h0.5l-0.4,0.3l0.1,0.5l-0.4-0.3l-0.4,0.3l0.1-0.5l-0.4-0.3h0.5L89.8,80.6L89.8,80.6z M87.9,82.1l0.2,0.5h0.6
					L88.3,83l0.1,0.6l-0.5-0.3l-0.5,0.3l0.1-0.6l-0.4-0.4h0.6L87.9,82.1L87.9,82.1z M87.2,80.2l0.3,0.6h0.7l-0.5,0.4l0.2,0.7
					l-0.6-0.4L86.7,82l0.2-0.7l-0.5-0.4h0.7L87.2,80.2L87.2,80.2z M87.1,83.5l0.2,0.5h0.6l-0.4,0.4l0.1,0.6l-0.5-0.3L86.6,85
					l0.1-0.6L86.3,84h0.6L87.1,83.5L87.1,83.5z M85.5,84.3l0.2,0.5h0.5l-0.4,0.3l0.1,0.5l-0.4-0.3L85,85.6l0.1-0.5l-0.4-0.3h0.5
					L85.5,84.3L85.5,84.3z M83.8,85.9l0.2,0.5h0.6l-0.4,0.4l0.1,0.6l-0.5-0.3l-0.5,0.3l0.1-0.6L83,86.5h0.6L83.8,85.9L83.8,85.9z
					 M83.8,87.8l0.2,0.5h0.5L84,88.6l0.1,0.5l-0.4-0.3l-0.4,0.3l0.1-0.5L83,88.3h0.5L83.8,87.8L83.8,87.8z M83.7,84.3l0.2,0.5h0.5
					L84,85.1l0.1,0.5l-0.4-0.3l-0.4,0.3l0.1-0.5L83,84.8h0.5L83.7,84.3L83.7,84.3z M81.7,84.7l0.2,0.5h0.5L82,85.5l0.1,0.5l-0.4-0.3
					L81.3,86l0.1-0.5L81,85.2h0.5L81.7,84.7L81.7,84.7z M80.3,68l0.3,0.6h0.7L80.8,69l0.2,0.7l-0.6-0.4l-0.6,0.4L80,69l-0.5-0.4h0.7
					L80.3,68L80.3,68z M80.1,86.3l0.2,0.5h0.6l-0.4,0.4l0.1,0.6l-0.5-0.3l-0.5,0.3l0.1-0.6l-0.4-0.4h0.6L80.1,86.3L80.1,86.3z
					 M79.1,73.3l0.2,0.5h0.5l-0.4,0.3l0.1,0.5l-0.4-0.3l-0.4,0.3l0.1-0.5l-0.4-0.3h0.5L79.1,73.3L79.1,73.3z M78.6,84.3l0.2,0.5h0.5
					l-0.4,0.3l0.1,0.5l-0.4-0.3l-0.4,0.3l0.1-0.5L78,84.8h0.5L78.6,84.3L78.6,84.3z M75.1,77.3l0.2,0.5h0.6l-0.4,0.4l0.1,0.6
					l-0.5-0.3l-0.5,0.3l0.1-0.6l-0.4-0.4h0.6L75.1,77.3L75.1,77.3z M75,82.2l0.2,0.6h0.7l-0.5,0.4l0.2,0.7L75,83.6L74.5,84l0.2-0.7
					l-0.5-0.4h0.7L75,82.2L75,82.2z M75.1,88.5l0.1,0.2h0.3L75.2,89l0.1,0.3l-0.2-0.1l-0.2,0.1L75,89l-0.2-0.2h0.3L75.1,88.5
					L75.1,88.5z M74,80.2l0.1,0.3h0.4l-0.3,0.2l0.1,0.4L74,80.9l-0.3,0.2l0.1-0.4l-0.3-0.2h0.4L74,80.2L74,80.2z M72.7,79.1l0.2,0.5
					h0.5L73,79.9l0.1,0.5l-0.4-0.3l-0.4,0.3l0.1-0.5L72,79.6h0.5L72.7,79.1L72.7,79.1z M68.2,74.9l0.2,0.5H69l-0.4,0.4l0.1,0.6
					l-0.5-0.3l-0.5,0.3l0.1-0.6l-0.4-0.4H68L68.2,74.9L68.2,74.9z M67.7,83.7l0.2,0.6h0.7l-0.5,0.4l0.2,0.7L67.7,85l-0.6,0.4
					l0.2-0.7l-0.5-0.4h0.7L67.7,83.7L67.7,83.7z M65.7,80.3l0.2,0.5h0.6l-0.4,0.4l0.1,0.6l-0.5-0.3l-0.5,0.3l0.1-0.6L65,80.8h0.6
					L65.7,80.3L65.7,80.3z M65.1,82.2l0.2,0.5h0.5L65.4,83l0.1,0.5l-0.4-0.3l-0.4,0.3l0.1-0.5l-0.4-0.3h0.5L65.1,82.2L65.1,82.2z
					 M63.8,77.8l0.1,0.3h0.4L64,78.4l0.1,0.4l-0.3-0.2l-0.3,0.2l0.1-0.4l-0.3-0.2h0.4L63.8,77.8L63.8,77.8z M62.2,78.5l0.2,0.6h0.7
					l-0.5,0.4l0.2,0.7l-0.6-0.4l-0.6,0.4l0.2-0.7l-0.5-0.4H62L62.2,78.5L62.2,78.5z M60.8,71.2l0.3,0.6h0.7l-0.5,0.4l0.2,0.7
					l-0.6-0.4L60.2,73l0.2-0.7l-0.5-0.4h0.7L60.8,71.2L60.8,71.2z M60.4,80.1l0.2,0.5h0.6L60.8,81l0.1,0.6l-0.5-0.3l-0.5,0.3L60,81
					l-0.4-0.4h0.6L60.4,80.1L60.4,80.1z"/>
				<path fill="#FFFFFF" d="M64.5,69.6c10.4,0,19.9,3.8,27.2,10.1c0.2-0.9,0.4-1.7,0.5-2.6c-7.6-6.2-17.3-9.9-27.8-9.9
					c-1.8,0-3.6,0.1-5.4,0.3c-0.4,0.8-0.7,1.6-0.9,2.5C60.3,69.8,62.4,69.6,64.5,69.6L64.5,69.6z"/>
				<path fill="#039340" d="M60,68.7c0,0.2,0.1,0.3,0.1,0.4c0.1,0.1,0.2,0.1,0.3,0.1s0.2-0.1,0.3-0.2s0.1-0.2,0.1-0.4
					c0-0.2-0.1-0.3-0.1-0.4c-0.1-0.1-0.2-0.1-0.3-0.1s-0.2,0.1-0.3,0.2C60.1,68.4,60,68.5,60,68.7L60,68.7z M59.7,68.7
					c0-0.3,0-0.5,0.2-0.6c0.1-0.2,0.3-0.2,0.5-0.3c0.2,0,0.4,0,0.6,0.2c0.2,0.1,0.2,0.3,0.3,0.6c0,0.3,0,0.5-0.2,0.6
					c-0.1,0.2-0.3,0.2-0.5,0.3c-0.2,0-0.4,0-0.6-0.2C59.8,69.2,59.7,69,59.7,68.7L59.7,68.7z M62.3,68.4h0.4c0.1,0,0.1,0,0.2-0.1
					c0,0,0.1-0.1,0.1-0.2s0-0.1-0.1-0.2c0,0-0.1-0.1-0.2,0h-0.4V68.4L62.3,68.4z M62,69.3l-0.1-1.6h0.8c0.2,0,0.3,0,0.4,0.1
					c0.1,0.1,0.1,0.2,0.1,0.3c0,0.1,0,0.2-0.1,0.2c0,0.1-0.1,0.1-0.2,0.1c0.1,0,0.1,0.1,0.1,0.1s0,0.1,0.1,0.2v0.2l0,0
					c0,0.1,0,0.1,0.1,0.2l0,0h-0.4c0,0,0,0,0-0.1v-0.1v-0.2c0-0.1,0-0.2-0.1-0.2c0,0-0.1,0-0.2,0h-0.3v0.6L62,69.3L62,69.3z
					 M64.3,69h0.3c0.1,0,0.3,0,0.3-0.1c0.1-0.1,0.1-0.2,0.1-0.4c0-0.2,0-0.3-0.1-0.4C64.8,68,64.7,68,64.6,68h-0.3L64.3,69L64.3,69z
					 M63.9,69.2v-1.6h0.6c0.2,0,0.4,0.1,0.5,0.2s0.2,0.3,0.2,0.6c0,0.1,0,0.3-0.1,0.4c0,0.1-0.1,0.2-0.2,0.3c-0.1,0-0.1,0.1-0.2,0.1
					s-0.2,0-0.3,0H63.9L63.9,69.2z M65.9,69.3l0.1-1.6l1.1,0.1v0.3h-0.8v0.3H67v0.3h-0.7v0.4h0.9v0.3L65.9,69.3L65.9,69.3z
					 M67.8,69.4l0.2-1.5h0.5l0.2,1.2L69,68h0.5l-0.2,1.5H69l0.1-1.2l-0.4,1.2h-0.3l-0.2-1.3l-0.1,1.2L67.8,69.4L67.8,69.4z
					 M71.9,69.9l0.3-1.5l1.1,0.2l-0.1,0.3l-0.8-0.2L72.3,69l0.7,0.2l-0.1,0.3l-0.7-0.2l-0.1,0.4l0.8,0.2l0.1,0.3L71.9,69.9
					L71.9,69.9z M76,70l0.3,0.1c0.1,0,0.1,0,0.2,0c0,0,0.1-0.1,0.1-0.2s0-0.1,0-0.2l-0.1-0.1l-0.3-0.1L76,70L76,70z M75.9,70.3
					l-0.1,0.5l-0.3-0.1l0.4-1.5l0.7,0.2c0.2,0,0.3,0.1,0.3,0.2c0.1,0.1,0.1,0.2,0,0.4c0,0.2-0.1,0.3-0.2,0.3c-0.1,0.1-0.2,0.1-0.4,0
					H75.9L75.9,70.3z M77.8,70.5l0.4,0.1c0.1,0,0.1,0,0.2,0l0.1-0.1c0-0.1,0-0.1,0-0.2l-0.1-0.1L78,70.1L77.8,70.5L77.8,70.5z
					 M77.2,71.3l0.5-1.5l0.7,0.2c0.2,0.1,0.3,0.1,0.3,0.2c0.1,0.1,0.1,0.2,0,0.4c0,0.1-0.1,0.2-0.1,0.2c-0.1,0-0.1,0.1-0.2,0.1
					c0.1,0,0.1,0.1,0.1,0.1c0,0.1,0,0.1,0,0.2v0.2l0,0c0,0.1,0,0.1,0,0.2l0,0l-0.3-0.1v-0.1v-0.1v-0.2c0-0.1,0-0.2,0-0.2
					s-0.1-0.1-0.2-0.1l-0.3-0.1l-0.2,0.6L77.2,71.3L77.2,71.3z M79.6,71.3c-0.1,0.2-0.1,0.3,0,0.4c0,0.1,0.1,0.2,0.3,0.2
					c0.1,0,0.2,0,0.4,0c0.1-0.1,0.2-0.2,0.2-0.3c0.1-0.2,0.1-0.3,0-0.4c0-0.1-0.1-0.2-0.3-0.2c-0.1,0-0.2,0-0.3,0
					C79.8,71,79.7,71.1,79.6,71.3L79.6,71.3z M79.3,71.2c0.1-0.2,0.2-0.4,0.4-0.5c0.2-0.1,0.4-0.1,0.6,0s0.4,0.2,0.4,0.4
					c0.1,0.2,0.1,0.4,0,0.6s-0.2,0.4-0.4,0.5c-0.2,0.1-0.4,0.1-0.6,0s-0.4-0.2-0.4-0.4C79.2,71.6,79.2,71.4,79.3,71.2L79.3,71.2z
					 M82.2,73c-0.1,0-0.2,0.1-0.2,0.1c-0.1,0-0.2,0-0.3-0.1c-0.2-0.1-0.3-0.2-0.4-0.4c-0.1-0.2,0-0.4,0-0.6c0.1-0.2,0.2-0.4,0.4-0.5
					c0.2-0.1,0.4-0.1,0.6,0s0.3,0.2,0.4,0.3c0.1,0.1,0.1,0.3,0.1,0.4l-0.3-0.1c0-0.1,0-0.2,0-0.2c0-0.1-0.1-0.1-0.2-0.2
					s-0.2,0-0.3,0c-0.1,0.1-0.2,0.2-0.3,0.3c-0.1,0.2-0.1,0.3,0,0.4c0,0.1,0.1,0.2,0.2,0.3c0.1,0,0.2,0,0.3,0c0.1,0,0.2-0.1,0.2-0.2
					l-0.4,0l0.1-0.2l0.6,0.3l-0.3,0.8l-0.2-0.1V73L82.2,73z M83.7,73l0.3,0.2c0.1,0,0.1,0,0.2,0l0.1-0.1c0-0.1,0-0.1,0-0.2l-0.1-0.1
					l-0.4-0.2L83.7,73L83.7,73z M83,73.6l0.7-1.4l0.7,0.3c0.2,0.1,0.2,0.2,0.3,0.3c0,0.1,0,0.2,0,0.4c0,0.1-0.1,0.1-0.2,0.2
					c-0.1,0-0.1,0.1-0.2,0c0,0.1,0.1,0.1,0.1,0.2s0,0.1-0.1,0.2L84.2,74l0,0c0,0.1,0,0.1,0,0.2l0,0L83.8,74v-0.1v-0.1l0.1-0.1
					c0-0.1,0.1-0.2,0-0.2l-0.1-0.1l-0.3-0.1l-0.3,0.5L83,73.6L83,73.6z M84.7,74.5l0.8-1.4l1,0.6l-0.1,0.2l-0.7-0.4l-0.2,0.3
					l0.7,0.4L86,74.4L85.4,74l-0.2,0.4l0.7,0.4l-0.1,0.3L84.7,74.5L84.7,74.5z M86.5,75l0.3,0.2c0,0.1,0,0.2,0,0.2
					c0,0.1,0.1,0.1,0.2,0.2c0.1,0,0.1,0.1,0.2,0.1s0.1,0,0.1-0.1s0-0.2-0.2-0.4l0,0l0,0c-0.1-0.1-0.2-0.2-0.2-0.3c0-0.1,0-0.1,0-0.2
					s0-0.1,0.1-0.2s0.2-0.2,0.3-0.2c0.1,0,0.3,0,0.4,0.1c0.2,0.1,0.3,0.2,0.3,0.3c0,0.1,0,0.3,0,0.4l-0.3-0.2c0-0.1,0-0.1,0-0.2
					s-0.1-0.1-0.2-0.2c-0.1,0-0.1-0.1-0.2-0.1s-0.1,0-0.1,0.1s0,0.2,0.1,0.3l0.1,0.1c0.1,0.1,0.1,0.1,0.2,0.2l0.1,0.1
					c0,0.1,0.1,0.1,0.1,0.2s0,0.1-0.1,0.2s-0.2,0.2-0.3,0.2c-0.1,0-0.3,0-0.5-0.1s-0.3-0.2-0.3-0.4C86.4,75.3,86.4,75.1,86.5,75
					L86.5,75z M88.1,76l0.3,0.2c0,0.1,0,0.1,0,0.2s0.1,0.1,0.2,0.2s0.1,0.1,0.2,0.1s0.1,0,0.1-0.1c0.1-0.1,0-0.2-0.2-0.4l0,0l0,0
					c-0.1-0.1-0.2-0.2-0.2-0.3c0-0.1,0-0.1,0-0.2s0-0.1,0.1-0.2s0.2-0.2,0.3-0.2c0.1,0,0.3,0,0.4,0.1c0.2,0.1,0.2,0.2,0.3,0.3
					c0,0.1,0,0.3-0.1,0.4L89.2,76c0-0.1,0-0.1,0-0.2s-0.1-0.1-0.2-0.2c-0.1,0-0.1-0.1-0.2-0.1s-0.1,0-0.1,0.1s0,0.2,0.1,0.3l0.1,0.1
					c0.1,0.1,0.1,0.2,0.2,0.2l0.1,0.1c0,0.1,0,0.1,0,0.2s0,0.1-0.1,0.2s-0.2,0.2-0.3,0.2c-0.1,0-0.3,0-0.5-0.1S88,76.6,88,76.4
					C88,76.3,88.1,76.1,88.1,76L88.1,76z M90.1,77.1C90,77.2,90,77.3,90,77.4s0.1,0.2,0.2,0.3s0.2,0.1,0.3,0.1
					c0.1,0,0.2-0.1,0.3-0.2c0.1-0.1,0.2-0.3,0.1-0.4c0-0.1-0.1-0.2-0.2-0.3c-0.1-0.1-0.2-0.1-0.3-0.1C90.3,76.8,90.2,76.9,90.1,77.1
					L90.1,77.1z M89.9,76.9c0.2-0.2,0.3-0.3,0.5-0.4c0.2,0,0.4,0,0.6,0.2c0.2,0.1,0.3,0.3,0.3,0.5s0,0.4-0.2,0.6s-0.3,0.3-0.5,0.4
					c-0.2,0-0.4,0-0.6-0.2s-0.3-0.3-0.3-0.5C89.7,77.3,89.7,77.1,89.9,76.9L89.9,76.9z"/>
			</g>
		</g>
	</g>
</g>
<g id="cro" display="none">
	<circle display="inline" fill="none" stroke="#FFFFFF" stroke-miterlimit="10" cx="75" cy="75" r="54.5"/>
	<circle display="inline" fill="#066BB3" cx="75" cy="75" r="50.5"/>
	<path display="inline" fill="#E0091C" d="M125.5,75h-101c0-27.9,22.6-50.5,50.5-50.5S125.5,47.1,125.5,75z"/>
	<g display="inline">
		<g>
			<defs>
				<circle id="SVGID_3_" cx="75" cy="75" r="50.5"/>
			</defs>
			<clipPath id="SVGID_4_">
				<use xlink:href="#SVGID_3_"  overflow="visible"/>
			</clipPath>
			<g clip-path="url(#SVGID_4_)">
				<rect x="24.5" y="63.3" fill="#F2F2F2" width="101" height="23.4"/>
				<rect x="24.5" y="86.6" fill="#056CB3" width="101" height="22.6"/>
				<rect x="24.5" y="40.4" fill="#E1081B" width="101" height="22.9"/>
				<g>
					<g>
						<polygon fill="#2676B7" points="89.9,52.5 84.7,54.2 83.3,61.3 86.2,62.8 87.9,62.7 91.2,57.6 						"/>
						<polygon points="82.5,49.5 78.1,52.4 77.7,59.1 83.4,60.3 85.7,53.7 						"/>
						<polygon fill="#2676B7" points="75.3,49.2 71.8,52.7 72.4,59.3 77.7,59.4 78.9,52.7 						"/>
						<polygon stroke="#000000" stroke-width="0.2" points="68.1,49.8 64.7,54.1 67.1,60.7 72.8,59.4 72.7,52.3 						"/>
						<polygon fill="#2676B7" points="62.7,62.6 59,56.5 61.3,52.1 65.7,53.8 67.2,60.6 						"/>
					</g>
					<g>
						<rect x="72.7" y="80" fill="#FFFFFF" width="5.3" height="5.6"/>
						<polyline fill="#FFFFFF" points="88.5,80 83.3,80 83.3,85.6 86.7,85.6 						"/>
						<polygon fill="#FFFFFF" points="70.6,91.4 72.8,92 72.7,85.6 67.5,85.6 67.4,89.7 						"/>
						<polygon fill="#FFFFFF" points="83.3,89.8 83.3,85.6 78,85.6 78,92 80.3,91.4 						"/>
						<rect x="67.5" y="74.5" fill="#FFFFFF" width="5.3" height="5.6"/>
						<rect x="78" y="74.5" fill="#FFFFFF" width="5.3" height="5.6"/>
						<rect x="62.2" y="68.9" fill="#FFFFFF" width="5.3" height="5.6"/>
						<rect x="72.7" y="68.9" fill="#FFFFFF" width="5.3" height="5.6"/>
						<rect x="83.3" y="68.9" fill="#FFFFFF" width="5.3" height="5.6"/>
						<rect x="67.5" y="63.3" fill="#FFFFFF" width="5.3" height="5.6"/>
						<rect x="78" y="63.3" fill="#FFFFFF" width="5.3" height="5.6"/>
						<polyline fill="#FFFFFF" points="62.2,80 62.7,83.7 63.4,85.1 63.8,85.6 67.5,85.6 67.5,80 62.2,80 						"/>
					</g>
					<g>
						<rect x="72.7" y="80" fill="#FFFFFF" width="5.3" height="5.6"/>
						<polyline fill="#FFFFFF" points="88.5,80 83.3,80 83.3,85.6 86.7,85.6 						"/>
						<polygon fill="#FFFFFF" points="70.6,91.4 72.8,92 72.7,85.6 67.5,85.6 67.4,89.7 						"/>
						<path fill="#FFFFFF" d="M83.3,89.8v-4.2H78V92c0,0,1.7-0.5,2.3-0.6C82.2,90.9,83.3,89.8,83.3,89.8z"/>
						<rect x="67.5" y="74.5" fill="#FFFFFF" width="5.3" height="5.6"/>
						<rect x="78" y="74.5" fill="#FFFFFF" width="5.3" height="5.6"/>
						<rect x="62.2" y="68.9" fill="#FFFFFF" width="5.3" height="5.6"/>
						<rect x="72.7" y="68.9" fill="#FFFFFF" width="5.3" height="5.6"/>
						<rect x="83.3" y="68.9" fill="#FFFFFF" width="5.3" height="5.6"/>
						<rect x="67.5" y="63.3" fill="#FFFFFF" width="5.3" height="5.6"/>
						<rect x="78" y="63.3" fill="#FFFFFF" width="5.3" height="5.6"/>
						<polyline fill="#FFFFFF" points="62.2,80 62.7,83.7 63.4,85.1 63.8,85.6 67.5,85.6 67.5,80 62.2,80 						"/>
					</g>
					<g>
						<path fill="#E1081B" d="M61.9,63h27C76.4,53.4,61.9,63,61.9,63z"/>
						<path fill="#E1081B" d="M88.8,63.1L61.7,63v0.3c0,0.1,0.4,8.2,0.2,16.7c-0.1,3.2,1.1,6.1,3.3,8.4c2.6,2.6,6.5,4.2,10.5,4.2
							c5.4,0,12.1-3.2,13.2-12.2L88.8,63.1z M86.9,85.6h-3.6v4.5l1.5-1.5c-1.9,1.9-4.3,3-6.8,3.4v-6.3h-5.3v6.2
							c-1.9-0.4-3.7-1.1-5.3-2.2v-4h-3.7c-0.9-1.7-1.4-3.5-1.4-5.6h5v-5.6h-5c0-2,0-3.9-0.1-5.6h5.1v-5.4h5.3v5.4H78v-5.3h5.3v5.3
							h5.1l0.1,5.6h-5.1V80h5.2v0.3C88.2,82.4,87.6,84.1,86.9,85.6z"/>
						<rect x="67.5" y="80" fill="#E1081B" width="5.3" height="5.6"/>
						<rect x="78" y="80" fill="#E1081B" width="5.3" height="5.6"/>
						<rect x="72.7" y="74.5" fill="#E1081B" width="5.3" height="5.6"/>
						<rect x="67.5" y="68.9" fill="#E1081B" width="5.3" height="5.6"/>
						<rect x="78" y="68.9" fill="#E1081B" width="5.3" height="5.6"/>
					</g>
					<polygon points="87.9,60.4 84.6,58.7 85.1,57.8 88.4,59.5 					"/>
					<g>
						<line fill="none" stroke="#E1081B" stroke-width="1.5" x1="66.9" y1="54.4" x2="71.5" y2="53.5"/>
						<line fill="none" stroke="#E1081B" stroke-width="1.5" x1="67.5" y1="57.6" x2="72.1" y2="56.5"/>
						<line fill="none" stroke="#E1081B" stroke-width="1.5" x1="62.5" y1="60.2" x2="66" y2="58.7"/>
						<line fill="none" stroke="#E1081B" x1="85.6" y1="56.8" x2="89" y2="58.7"/>
					</g>
					<g>
						<polygon fill="#FEEB17" points="61.5,54.2 61.1,56.4 63.1,57.3 63.5,55.2 						"/>
						<polygon fill="#FEEB17" points="75.3,57.3 76.3,56.1 75.4,54.8 74.4,55.9 						"/>
						<polygon fill="#FEEB17" points="76.6,54.8 77.6,53.6 76.8,52.3 75.7,53.4 						"/>
						<polygon fill="#FEEB17" points="88,56.3 89.4,55.5 89.1,54.1 87.7,54.7 						"/>
						<polygon fill="#FEEB17" points="74.2,54.7 75.2,53.5 74.4,52.3 73.3,53.4 						"/>
						<path fill="#FEEB17" d="M79.4,54.5c0.4,1,3.6,1.8,4.3,1l-0.8,2c0,0-1.1,0.2-2.2-0.1s-1.5-1.2-1.5-1.2L79.4,54.5z"/>
						<polygon fill="#FEEB17" points="87.3,61.4 84.2,59.6 84.4,59.2 87.5,61 						"/>
					</g>
				</g>
			</g>
		</g>
	</g>
</g>
<g id="mex" display="none">
	<circle display="inline" fill="none" stroke="#FFFFFF" stroke-miterlimit="10" cx="75" cy="75" r="54.5"/>
	<circle display="inline" fill="#066BB3" cx="75" cy="75" r="50.5"/>
	<path display="inline" fill="#E0091C" d="M125.5,75h-101c0-27.9,22.6-50.5,50.5-50.5S125.5,47.1,125.5,75z"/>
	<g display="inline">
		<g>
			<defs>
				<circle id="SVGID_5_" cx="75" cy="75" r="50.5"/>
			</defs>
			<clipPath id="SVGID_6_">
				<use xlink:href="#SVGID_5_"  overflow="visible"/>
			</clipPath>
			<g clip-path="url(#SVGID_6_)">
				<rect x="58.1" y="22.2" fill="#F2F2F2" width="33.6" height="103.2"/>
				<rect x="91.7" y="22.2" fill="#E00727" width="33.6" height="103.2"/>
				<rect x="24.5" y="22.2" fill="#02763C" width="33.6" height="103.2"/>
			</g>
		</g>
	</g>
</g>
<g id="kam">
	<circle fill="none" stroke="#FFFFFF" stroke-miterlimit="10" cx="75" cy="75" r="54.5"/>
	<g>
		<g>
			<defs>
				<circle id="SVGID_7_" cx="75" cy="75" r="50.5"/>
			</defs>
			<clipPath id="SVGID_8_">
				<use xlink:href="#SVGID_7_"  overflow="visible"/>
			</clipPath>
			<g clip-path="url(#SVGID_8_)">
				<rect x="58.2" y="24.5" fill="#E00727" width="33.7" height="100.9"/>
				<rect x="91.8" y="24.5" fill="#FFE148" width="33.7" height="100.9"/>
				<rect x="24.5" y="24.5" fill="#009954" width="33.7" height="100.9"/>
				<polygon fill="#FFE148" points="75,63.5 72.3,72 63.3,72 70.6,77.2 67.8,85.7 75,80.4 82.2,85.7 79.4,77.2 86.7,72 77.8,72 				
					"/>
			</g>
		</g>
	</g>
</g>
</svg>
