<?xml version="1.0" encoding="utf-8"?>
<!-- Generator: Adobe Illustrator 17.1.0, SVG Export Plug-In . SVG Version: 6.00 Build 0)  -->
<!DOCTYPE svg PUBLIC "-//W3C//DTD SVG 1.1//EN" "http://www.w3.org/Graphics/SVG/1.1/DTD/svg11.dtd">
<svg version="1.1" id="Ebene_1" xmlns="http://www.w3.org/2000/svg" xmlns:xlink="http://www.w3.org/1999/xlink" x="0px" y="0px"
	 viewBox="0 0 150 150" enable-background="new 0 0 150 150" xml:space="preserve">
<g id="Ebene_2" display="none">
	<rect display="inline" fill="#020303" width="150" height="150"/>
</g>
<g id="bra" display="none">
	<circle display="inline" fill="none" stroke="#FFFFFF" stroke-miterlimit="10" cx="75" cy="75" r="54.5"/>
	<circle display="inline" fill="#00923F" cx="75" cy="75" r="50.5"/>
	<g display="inline">
		<g>
			<defs>
				<circle id="SVGID_1_" cx="75" cy="75" r="50.5"/>
			</defs>
			<clipPath id="SVGID_2_">
				<use xlink:href="#SVGID_1_"  overflow="visible"/>
			</clipPath>
			<g clip-path="url(#SVGID_2_)">
				<path fill="#039340" d="M25,40h100v70H25V40L25,40z"/>
				<path fill="#F8C300" d="M75,48.5L33.5,75L75,101.5L116.5,75L75,48.5L75,48.5z"/>
				<path fill="#2E2868" d="M92.4,75c0,9.6-7.8,17.5-17.5,17.5c-9.6,0-17.5-7.8-17.5-17.5S65.3,57.5,75,57.5
					C84.6,57.5,92.4,65.4,92.4,75L92.4,75z"/>
				<path fill="#FFFFFF" d="M76.7,78.8l0.2,0.5h0.6l-0.4,0.4l0.1,0.6L76.7,80l-0.5,0.3l0.1-0.6L76,79.3h0.6L76.7,78.8L76.7,78.8z
					 M89.8,80.6l0.2,0.5h0.5l-0.4,0.3l0.1,0.5l-0.4-0.3l-0.4,0.3l0.1-0.5l-0.4-0.3h0.5L89.8,80.6L89.8,80.6z M87.9,82.1l0.2,0.5h0.6
					L88.3,83l0.1,0.6l-0.5-0.3l-0.5,0.3l0.1-0.6l-0.4-0.4h0.6L87.9,82.1L87.9,82.1z M87.2,80.2l0.3,0.6h0.7l-0.5,0.4l0.2,0.7
					l-0.6-0.4L86.7,82l0.2-0.7l-0.5-0.4h0.7L87.2,80.2L87.2,80.2z M87.1,83.5l0.2,0.5h0.6l-0.4,0.4l0.1,0.6l-0.5-0.3L86.6,85
					l0.1-0.6L86.3,84h0.6L87.1,83.5L87.1,83.5z M85.5,84.3l0.2,0.5h0.5l-0.4,0.3l0.1,0.5l-0.4-0.3L85,85.6l0.1-0.5l-0.4-0.3h0.5
					L85.5,84.3L85.5,84.3z M83.8,85.9l0.2,0.5h0.6l-0.4,0.4l0.1,0.6l-0.5-0.3l-0.5,0.3l0.1-0.6L83,86.5h0.6L83.8,85.9L83.8,85.9z
					 M83.8,87.8l0.2,0.5h0.5L84,88.6l0.1,0.5l-0.4-0.3l-0.4,0.3l0.1-0.5L83,88.3h0.5L83.8,87.8L83.8,87.8z M83.7,84.3l0.2,0.5h0.5
					L84,85.1l0.1,0.5l-0.4-0.3l-0.4,0.3l0.1-0.5L83,84.8h0.5L83.7,84.3L83.7,84.3z M81.7,84.7l0.2,0.5h0.5L82,85.5l0.1,0.5l-0.4-0.3
					L81.3,86l0.1-0.5L81,85.2h0.5L81.7,84.7L81.7,84.7z M80.3,68l0.3,0.6h0.7L80.8,69l0.2,0.7l-0.6-0.4l-0.6,0.4L80,69l-0.5-0.4h0.7
					L80.3,68L80.3,68z M80.1,86.3l0.2,0.5h0.6l-0.4,0.4l0.1,0.6l-0.5-0.3l-0.5,0.3l0.1-0.6l-0.4-0.4h0.6L80.1,86.3L80.1,86.3z
					 M79.1,73.3l0.2,0.5h0.5l-0.4,0.3l0.1,0.5l-0.4-0.3l-0.4,0.3l0.1-0.5l-0.4-0.3h0.5L79.1,73.3L79.1,73.3z M78.6,84.3l0.2,0.5h0.5
					l-0.4,0.3l0.1,0.5l-0.4-0.3l-0.4,0.3l0.1-0.5L78,84.8h0.5L78.6,84.3L78.6,84.3z M75.1,77.3l0.2,0.5h0.6l-0.4,0.4l0.1,0.6
					l-0.5-0.3l-0.5,0.3l0.1-0.6l-0.4-0.4h0.6L75.1,77.3L75.1,77.3z M75,82.2l0.2,0.6h0.7l-0.5,0.4l0.2,0.7L75,83.6L74.5,84l0.2-0.7
					l-0.5-0.4h0.7L75,82.2L75,82.2z M75.1,88.5l0.1,0.2h0.3L75.2,89l0.1,0.3l-0.2-0.1l-0.2,0.1L75,89l-0.2-0.2h0.3L75.1,88.5
					L75.1,88.5z M74,80.2l0.1,0.3h0.4l-0.3,0.2l0.1,0.4L74,80.9l-0.3,0.2l0.1-0.4l-0.3-0.2h0.4L74,80.2L74,80.2z M72.7,79.1l0.2,0.5
					h0.5L73,79.9l0.1,0.5l-0.4-0.3l-0.4,0.3l0.1-0.5L72,79.6h0.5L72.7,79.1L72.7,79.1z M68.2,74.9l0.2,0.5H69l-0.4,0.4l0.1,0.6
					l-0.5-0.3l-0.5,0.3l0.1-0.6l-0.4-0.4H68L68.2,74.9L68.2,74.9z M67.7,83.7l0.2,0.6h0.7l-0.5,0.4l0.2,0.7L67.7,85l-0.6,0.4
					l0.2-0.7l-0.5-0.4h0.7L67.7,83.7L67.7,83.7z M65.7,80.3l0.2,0.5h0.6l-0.4,0.4l0.1,0.6l-0.5-0.3l-0.5,0.3l0.1-0.6L65,80.8h0.6
					L65.7,80.3L65.7,80.3z M65.1,82.2l0.2,0.5h0.5L65.4,83l0.1,0.5l-0.4-0.3l-0.4,0.3l0.1-0.5l-0.4-0.3h0.5L65.1,82.2L65.1,82.2z
					 M63.8,77.8l0.1,0.3h0.4L64,78.4l0.1,0.4l-0.3-0.2l-0.3,0.2l0.1-0.4l-0.3-0.2h0.4L63.8,77.8L63.8,77.8z M62.2,78.5l0.2,0.6h0.7
					l-0.5,0.4l0.2,0.7l-0.6-0.4l-0.6,0.4l0.2-0.7l-0.5-0.4H62L62.2,78.5L62.2,78.5z M60.8,71.2l0.3,0.6h0.7l-0.5,0.4l0.2,0.7
					l-0.6-0.4L60.2,73l0.2-0.7l-0.5-0.4h0.7L60.8,71.2L60.8,71.2z M60.4,80.1l0.2,0.5h0.6L60.8,81l0.1,0.6l-0.5-0.3l-0.5,0.3L60,81
					l-0.4-0.4h0.6L60.4,80.1L60.4,80.1z"/>
				<path fill="#FFFFFF" d="M64.5,69.6c10.4,0,19.9,3.8,27.2,10.1c0.2-0.9,0.4-1.7,0.5-2.6c-7.6-6.2-17.3-9.9-27.8-9.9
					c-1.8,0-3.6,0.1-5.4,0.3c-0.4,0.8-0.7,1.6-0.9,2.5C60.3,69.8,62.4,69.6,64.5,69.6L64.5,69.6z"/>
				<path fill="#039340" d="M60,68.7c0,0.2,0.1,0.3,0.1,0.4c0.1,0.1,0.2,0.1,0.3,0.1s0.2-0.1,0.3-0.2s0.1-0.2,0.1-0.4
					c0-0.2-0.1-0.3-0.1-0.4c-0.1-0.1-0.2-0.1-0.3-0.1s-0.2,0.1-0.3,0.2C60.1,68.4,60,68.5,60,68.7L60,68.7z M59.7,68.7
					c0-0.3,0-0.5,0.2-0.6c0.1-0.2,0.3-0.2,0.5-0.3c0.2,0,0.4,0,0.6,0.2c0.2,0.1,0.2,0.3,0.3,0.6c0,0.3,0,0.5-0.2,0.6
					c-0.1,0.2-0.3,0.2-0.5,0.3c-0.2,0-0.4,0-0.6-0.2C59.8,69.2,59.7,69,59.7,68.7L59.7,68.7z M62.3,68.4h0.4c0.1,0,0.1,0,0.2-0.1
					c0,0,0.1-0.1,0.1-0.2s0-0.1-0.1-0.2c0,0-0.1-0.1-0.2,0h-0.4V68.4L62.3,68.4z M62,69.3l-0.1-1.6h0.8c0.2,0,0.3,0,0.4,0.1
					c0.1,0.1,0.1,0.2,0.1,0.3c0,0.1,0,0.2-0.1,0.2c0,0.1-0.1,0.1-0.2,0.1c0.1,0,0.1,0.1,0.1,0.1s0,0.1,0.1,0.2v0.2l0,0
					c0,0.1,0,0.1,0.1,0.2l0,0h-0.4c0,0,0,0,0-0.1v-0.1v-0.2c0-0.1,0-0.2-0.1-0.2c0,0-0.1,0-0.2,0h-0.3v0.6L62,69.3L62,69.3z
					 M64.3,69h0.3c0.1,0,0.3,0,0.3-0.1c0.1-0.1,0.1-0.2,0.1-0.4c0-0.2,0-0.3-0.1-0.4C64.8,68,64.7,68,64.6,68h-0.3L64.3,69L64.3,69z
					 M63.9,69.2v-1.6h0.6c0.2,0,0.4,0.1,0.5,0.2s0.2,0.3,0.2,0.6c0,0.1,0,0.3-0.1,0.4c0,0.1-0.1,0.2-0.2,0.3c-0.1,0-0.1,0.1-0.2,0.1
					s-0.2,0-0.3,0H63.9L63.9,69.2z M65.9,69.3l0.1-1.6l1.1,0.1v0.3h-0.8v0.3H67v0.3h-0.7v0.4h0.9v0.3L65.9,69.3L65.9,69.3z
					 M67.8,69.4l0.2-1.5h0.5l0.2,1.2L69,68h0.5l-0.2,1.5H69l0.1-1.2l-0.4,1.2h-0.3l-0.2-1.3l-0.1,1.2L67.8,69.4L67.8,69.4z
					 M71.9,69.9l0.3-1.5l1.1,0.2l-0.1,0.3l-0.8-0.2L72.3,69l0.7,0.2l-0.1,0.3l-0.7-0.2l-0.1,0.4l0.8,0.2l0.1,0.3L71.9,69.9
					L71.9,69.9z M76,70l0.3,0.1c0.1,0,0.1,0,0.2,0c0,0,0.1-0.1,0.1-0.2s0-0.1,0-0.2l-0.1-0.1l-0.3-0.1L76,70L76,70z M75.9,70.3
					l-0.1,0.5l-0.3-0.1l0.4-1.5l0.7,0.2c0.2,0,0.3,0.1,0.3,0.2c0.1,0.1,0.1,0.2,0,0.4c0,0.2-0.1,0.3-0.2,0.3c-0.1,0.1-0.2,0.1-0.4,0
					H75.9L75.9,70.3z M77.8,70.5l0.4,0.1c0.1,0,0.1,0,0.2,0l0.1-0.1c0-0.1,0-0.1,0-0.2l-0.1-0.1L78,70.1L77.8,70.5L77.8,70.5z
					 M77.2,71.3l0.5-1.5l0.7,0.2c0.2,0.1,0.3,0.1,0.3,0.2c0.1,0.1,0.1,0.2,0,0.4c0,0.1-0.1,0.2-0.1,0.2c-0.1,0-0.1,0.1-0.2,0.1
					c0.1,0,0.1,0.1,0.1,0.1c0,0.1,0,0.1,0,0.2v0.2l0,0c0,0.1,0,0.1,0,0.2l0,0l-0.3-0.1v-0.1v-0.1v-0.2c0-0.1,0-0.2,0-0.2
					s-0.1-0.1-0.2-0.1l-0.3-0.1l-0.2,0.6L77.2,71.3L77.2,71.3z M79.6,71.3c-0.1,0.2-0.1,0.3,0,0.4c0,0.1,0.1,0.2,0.3,0.2
					c0.1,0,0.2,0,0.4,0c0.1-0.1,0.2-0.2,0.2-0.3c0.1-0.2,0.1-0.3,0-0.4c0-0.1-0.1-0.2-0.3-0.2c-0.1,0-0.2,0-0.3,0
					C79.8,71,79.7,71.1,79.6,71.3L79.6,71.3z M79.3,71.2c0.1-0.2,0.2-0.4,0.4-0.5c0.2-0.1,0.4-0.1,0.6,0s0.4,0.2,0.4,0.4
					c0.1,0.2,0.1,0.4,0,0.6s-0.2,0.4-0.4,0.5c-0.2,0.1-0.4,0.1-0.6,0s-0.4-0.2-0.4-0.4C79.2,71.6,79.2,71.4,79.3,71.2L79.3,71.2z
					 M82.2,73c-0.1,0-0.2,0.1-0.2,0.1c-0.1,0-0.2,0-0.3-0.1c-0.2-0.1-0.3-0.2-0.4-0.4c-0.1-0.2,0-0.4,0-0.6c0.1-0.2,0.2-0.4,0.4-0.5
					c0.2-0.1,0.4-0.1,0.6,0s0.3,0.2,0.4,0.3c0.1,0.1,0.1,0.3,0.1,0.4l-0.3-0.1c0-0.1,0-0.2,0-0.2c0-0.1-0.1-0.1-0.2-0.2
					s-0.2,0-0.3,0c-0.1,0.1-0.2,0.2-0.3,0.3c-0.1,0.2-0.1,0.3,0,0.4c0,0.1,0.1,0.2,0.2,0.3c0.1,0,0.2,0,0.3,0c0.1,0,0.2-0.1,0.2-0.2
					l-0.4,0l0.1-0.2l0.6,0.3l-0.3,0.8l-0.2-0.1V73L82.2,73z M83.7,73l0.3,0.2c0.1,0,0.1,0,0.2,0l0.1-0.1c0-0.1,0-0.1,0-0.2l-0.1-0.1
					l-0.4-0.2L83.7,73L83.7,73z M83,73.6l0.7-1.4l0.7,0.3c0.2,0.1,0.2,0.2,0.3,0.3c0,0.1,0,0.2,0,0.4c0,0.1-0.1,0.1-0.2,0.2
					c-0.1,0-0.1,0.1-0.2,0c0,0.1,0.1,0.1,0.1,0.2s0,0.1-0.1,0.2L84.2,74l0,0c0,0.1,0,0.1,0,0.2l0,0L83.8,74v-0.1v-0.1l0.1-0.1
					c0-0.1,0.1-0.2,0-0.2l-0.1-0.1l-0.3-0.1l-0.3,0.5L83,73.6L83,73.6z M84.7,74.5l0.8-1.4l1,0.6l-0.1,0.2l-0.7-0.4l-0.2,0.3
					l0.7,0.4L86,74.4L85.4,74l-0.2,0.4l0.7,0.4l-0.1,0.3L84.7,74.5L84.7,74.5z M86.5,75l0.3,0.2c0,0.1,0,0.2,0,0.2
					c0,0.1,0.1,0.1,0.2,0.2c0.1,0,0.1,0.1,0.2,0.1s0.1,0,0.1-0.1s0-0.2-0.2-0.4l0,0l0,0c-0.1-0.1-0.2-0.2-0.2-0.3c0-0.1,0-0.1,0-0.2
					s0-0.1,0.1-0.2s0.2-0.2,0.3-0.2c0.1,0,0.3,0,0.4,0.1c0.2,0.1,0.3,0.2,0.3,0.3c0,0.1,0,0.3,0,0.4l-0.3-0.2c0-0.1,0-0.1,0-0.2
					s-0.1-0.1-0.2-0.2c-0.1,0-0.1-0.1-0.2-0.1s-0.1,0-0.1,0.1s0,0.2,0.1,0.3l0.1,0.1c0.1,0.1,0.1,0.1,0.2,0.2l0.1,0.1
					c0,0.1,0.1,0.1,0.1,0.2s0,0.1-0.1,0.2s-0.2,0.2-0.3,0.2c-0.1,0-0.3,0-0.5-0.1s-0.3-0.2-0.3-0.4C86.4,75.3,86.4,75.1,86.5,75
					L86.5,75z M88.1,76l0.3,0.2c0,0.1,0,0.1,0,0.2s0.1,0.1,0.2,0.2s0.1,0.1,0.2,0.1s0.1,0,0.1-0.1c0.1-0.1,0-0.2-0.2-0.4l0,0l0,0
					c-0.1-0.1-0.2-0.2-0.2-0.3c0-0.1,0-0.1,0-0.2s0-0.1,0.1-0.2s0.2-0.2,0.3-0.2c0.1,0,0.3,0,0.4,0.1c0.2,0.1,0.2,0.2,0.3,0.3
					c0,0.1,0,0.3-0.1,0.4L89.2,76c0-0.1,0-0.1,0-0.2s-0.1-0.1-0.2-0.2c-0.1,0-0.1-0.1-0.2-0.1s-0.1,0-0.1,0.1s0,0.2,0.1,0.3l0.1,0.1
					c0.1,0.1,0.1,0.2,0.2,0.2l0.1,0.1c0,0.1,0,0.1,0,0.2s0,0.1-0.1,0.2s-0.2,0.2-0.3,0.2c-0.1,0-0.3,0-0.5-0.1S88,76.6,88,76.4
					C88,76.3,88.1,76.1,88.1,76L88.1,76z M90.1,77.1C90,77.2,90,77.3,90,77.4s0.1,0.2,0.2,0.3s0.2,0.1,0.3,0.1
					c0.1,0,0.2-0.1,0.3-0.2c0.1-0.1,0.2-0.3,0.1-0.4c0-0.1-0.1-0.2-0.2-0.3c-0.1-0.1-0.2-0.1-0.3-0.1C90.3,76.8,90.2,76.9,90.1,77.1
					L90.1,77.1z M89.9,76.9c0.2-0.2,0.3-0.3,0.5-0.4c0.2,0,0.4,0,0.6,0.2c0.2,0.1,0.3,0.3,0.3,0.5s0,0.4-0.2,0.6s-0.3,0.3-0.5,0.4
					c-0.2,0-0.4,0-0.6-0.2s-0.3-0.3-0.3-0.5C89.7,77.3,89.7,77.1,89.9,76.9L89.9,76.9z"/>
			</g>
		</g>
	</g>
</g>
<g id="cro" display="none">
	<circle display="inline" fill="none" stroke="#FFFFFF" stroke-miterlimit="10" cx="75" cy="75" r="54.5"/>
	<circle display="inline" fill="#066BB3" cx="75" cy="75" r="50.5"/>
	<path display="inline" fill="#E0091C" d="M125.5,75h-101c0-27.9,22.6-50.5,50.5-50.5S125.5,47.1,125.5,75z"/>
	<g display="inline">
		<g>
			<defs>
				<circle id="SVGID_3_" cx="75" cy="75" r="50.5"/>
			</defs>
			<clipPath id="SVGID_4_">
				<use xlink:href="#SVGID_3_"  overflow="visible"/>
			</clipPath>
			<g clip-path="url(#SVGID_4_)">
				<rect x="24.5" y="63.3" fill="#F2F2F2" width="101" height="23.4"/>
				<rect x="24.5" y="86.6" fill="#056CB3" width="101" height="22.6"/>
				<rect x="24.5" y="40.4" fill="#E1081B" width="101" height="22.9"/>
				<g>
					<g>
						<polygon fill="#2676B7" points="89.9,52.5 84.7,54.2 83.3,61.3 86.2,62.8 87.9,62.7 91.2,57.6 						"/>
						<polygon points="82.5,49.5 78.1,52.4 77.7,59.1 83.4,60.3 85.7,53.7 						"/>
						<polygon fill="#2676B7" points="75.3,49.2 71.8,52.7 72.4,59.3 77.7,59.4 78.9,52.7 						"/>
						<polygon stroke="#000000" stroke-width="0.2" points="68.1,49.8 64.7,54.1 67.1,60.7 72.8,59.4 72.7,52.3 						"/>
						<polygon fill="#2676B7" points="62.7,62.6 59,56.5 61.3,52.1 65.7,53.8 67.2,60.6 						"/>
					</g>
					<g>
						<rect x="72.7" y="80" fill="#FFFFFF" width="5.3" height="5.6"/>
						<polyline fill="#FFFFFF" points="88.5,80 83.3,80 83.3,85.6 86.7,85.6 						"/>
						<polygon fill="#FFFFFF" points="70.6,91.4 72.8,92 72.7,85.6 67.5,85.6 67.4,89.7 						"/>
						<polygon fill="#FFFFFF" points="83.3,89.8 83.3,85.6 78,85.6 78,92 80.3,91.4 						"/>
						<rect x="67.5" y="74.5" fill="#FFFFFF" width="5.3" height="5.6"/>
						<rect x="78" y="74.5" fill="#FFFFFF" width="5.3" height="5.6"/>
						<rect x="62.2" y="68.9" fill="#FFFFFF" width="5.3" height="5.6"/>
						<rect x="72.7" y="68.9" fill="#FFFFFF" width="5.3" height="5.6"/>
						<rect x="83.3" y="68.9" fill="#FFFFFF" width="5.3" height="5.6"/>
						<rect x="67.5" y="63.3" fill="#FFFFFF" width="5.3" height="5.6"/>
						<rect x="78" y="63.3" fill="#FFFFFF" width="5.3" height="5.6"/>
						<polyline fill="#FFFFFF" points="62.2,80 62.7,83.7 63.4,85.1 63.8,85.6 67.5,85.6 67.5,80 62.2,80 						"/>
					</g>
					<g>
						<rect x="72.7" y="80" fill="#FFFFFF" width="5.3" height="5.6"/>
						<polyline fill="#FFFFFF" points="88.5,80 83.3,80 83.3,85.6 86.7,85.6 						"/>
						<polygon fill="#FFFFFF" points="70.6,91.4 72.8,92 72.7,85.6 67.5,85.6 67.4,89.7 						"/>
						<path fill="#FFFFFF" d="M83.3,89.8v-4.2H78V92c0,0,1.7-0.5,2.3-0.6C82.2,90.9,83.3,89.8,83.3,89.8z"/>
						<rect x="67.5" y="74.5" fill="#FFFFFF" width="5.3" height="5.6"/>
						<rect x="78" y="74.5" fill="#FFFFFF" width="5.3" height="5.6"/>
						<rect x="62.2" y="68.9" fill="#FFFFFF" width="5.3" height="5.6"/>
						<rect x="72.7" y="68.9" fill="#FFFFFF" width="5.3" height="5.6"/>
						<rect x="83.3" y="68.9" fill="#FFFFFF" width="5.3" height="5.6"/>
						<rect x="67.5" y="63.3" fill="#FFFFFF" width="5.3" height="5.6"/>
						<rect x="78" y="63.3" fill="#FFFFFF" width="5.3" height="5.6"/>
						<polyline fill="#FFFFFF" points="62.2,80 62.7,83.7 63.4,85.1 63.8,85.6 67.5,85.6 67.5,80 62.2,80 						"/>
					</g>
					<g>
						<path fill="#E1081B" d="M61.9,63h27C76.4,53.4,61.9,63,61.9,63z"/>
						<path fill="#E1081B" d="M88.8,63.1L61.7,63v0.3c0,0.1,0.4,8.2,0.2,16.7c-0.1,3.2,1.1,6.1,3.3,8.4c2.6,2.6,6.5,4.2,10.5,4.2
							c5.4,0,12.1-3.2,13.2-12.2L88.8,63.1z M86.9,85.6h-3.6v4.5l1.5-1.5c-1.9,1.9-4.3,3-6.8,3.4v-6.3h-5.3v6.2
							c-1.9-0.4-3.7-1.1-5.3-2.2v-4h-3.7c-0.9-1.7-1.4-3.5-1.4-5.6h5v-5.6h-5c0-2,0-3.9-0.1-5.6h5.1v-5.4h5.3v5.4H78v-5.3h5.3v5.3
							h5.1l0.1,5.6h-5.1V80h5.2v0.3C88.2,82.4,87.6,84.1,86.9,85.6z"/>
						<rect x="67.5" y="80" fill="#E1081B" width="5.3" height="5.6"/>
						<rect x="78" y="80" fill="#E1081B" width="5.3" height="5.6"/>
						<rect x="72.7" y="74.5" fill="#E1081B" width="5.3" height="5.6"/>
						<rect x="67.5" y="68.9" fill="#E1081B" width="5.3" height="5.6"/>
						<rect x="78" y="68.9" fill="#E1081B" width="5.3" height="5.6"/>
					</g>
					<polygon points="87.9,60.4 84.6,58.7 85.1,57.8 88.4,59.5 					"/>
					<g>
						<line fill="none" stroke="#E1081B" stroke-width="1.5" x1="66.9" y1="54.4" x2="71.5" y2="53.5"/>
						<line fill="none" stroke="#E1081B" stroke-width="1.5" x1="67.5" y1="57.6" x2="72.1" y2="56.5"/>
						<line fill="none" stroke="#E1081B" stroke-width="1.5" x1="62.5" y1="60.2" x2="66" y2="58.7"/>
						<line fill="none" stroke="#E1081B" x1="85.6" y1="56.8" x2="89" y2="58.7"/>
					</g>
					<g>
						<polygon fill="#FEEB17" points="61.5,54.2 61.1,56.4 63.1,57.3 63.5,55.2 						"/>
						<polygon fill="#FEEB17" points="75.3,57.3 76.3,56.1 75.4,54.8 74.4,55.9 						"/>
						<polygon fill="#FEEB17" points="76.6,54.8 77.6,53.6 76.8,52.3 75.7,53.4 						"/>
						<polygon fill="#FEEB17" points="88,56.3 89.4,55.5 89.1,54.1 87.7,54.7 						"/>
						<polygon fill="#FEEB17" points="74.2,54.7 75.2,53.5 74.4,52.3 73.3,53.4 						"/>
						<path fill="#FEEB17" d="M79.4,54.5c0.4,1,3.6,1.8,4.3,1l-0.8,2c0,0-1.1,0.2-2.2-0.1s-1.5-1.2-1.5-1.2L79.4,54.5z"/>
						<polygon fill="#FEEB17" points="87.3,61.4 84.2,59.6 84.4,59.2 87.5,61 						"/>
					</g>
				</g>
			</g>
		</g>
	</g>
</g>
<g id="mex" display="none">
	<circle display="inline" fill="none" stroke="#FFFFFF" stroke-miterlimit="10" cx="75" cy="75" r="54.5"/>
	<circle display="inline" fill="#066BB3" cx="75" cy="75" r="50.5"/>
	<path display="inline" fill="#E0091C" d="M125.5,75h-101c0-27.9,22.6-50.5,50.5-50.5S125.5,47.1,125.5,75z"/>
	<g display="inline">
		<g>
			<defs>
				<circle id="SVGID_5_" cx="75" cy="75" r="50.5"/>
			</defs>
			<clipPath id="SVGID_6_">
				<use xlink:href="#SVGID_5_"  overflow="visible"/>
			</clipPath>
			<g clip-path="url(#SVGID_6_)">
				<rect x="58.1" y="22.2" fill="#F2F2F2" width="33.6" height="103.2"/>
				<rect x="91.7" y="22.2" fill="#E00727" width="33.6" height="103.2"/>
				<rect x="24.5" y="22.2" fill="#02763C" width="33.6" height="103.2"/>
			</g>
		</g>
	</g>
</g>
<g id="chr" display="none">
	<circle display="inline" fill="none" stroke="#FFFFFF" stroke-miterlimit="10" cx="75" cy="75" r="54.5"/>
	<circle display="inline" fill="#066BB3" cx="75" cy="75" r="50.5"/>
	<path display="inline" fill="#E0091C" d="M125.5,75h-101c0-27.9,22.6-50.5,50.5-50.5S125.5,47.1,125.5,75z"/>
	<g display="inline">
		<g>
			<defs>
				<circle id="SVGID_7_" cx="75" cy="75" r="50.5"/>
			</defs>
			<clipPath id="SVGID_8_">
				<use xlink:href="#SVGID_7_"  overflow="visible"/>
			</clipPath>
			<g clip-path="url(#SVGID_8_)">
				<rect x="58.2" y="24.5" fill="#E00727" width="33.7" height="100.9"/>
				<rect x="91.8" y="24.5" fill="#FFE148" width="33.7" height="100.9"/>
				<rect x="24.5" y="24.5" fill="#009954" width="33.7" height="100.9"/>
				<polygon fill="#FFE148" points="75,63.5 72.3,72 63.3,72 70.6,77.2 67.8,85.7 75,80.4 82.2,85.7 79.4,77.2 86.7,72 77.8,72 				
					"/>
			</g>
		</g>
	</g>
</g>
<g id="esp" display="none">
	<circle display="inline" fill="none" stroke="#FFFFFF" stroke-miterlimit="10" cx="75" cy="75" r="54.5"/>
	<circle display="inline" fill="#066BB3" cx="75" cy="75" r="50.5"/>
	<path display="inline" fill="#E0091C" d="M125.5,75h-101c0-27.9,22.6-50.5,50.5-50.5S125.5,47.1,125.5,75z"/>
	<g display="inline">
		<g>
			<defs>
				<circle id="SVGID_9_" cx="75" cy="75" r="50.5"/>
			</defs>
			<clipPath id="SVGID_10_">
				<use xlink:href="#SVGID_9_"  overflow="visible"/>
			</clipPath>
			<g clip-path="url(#SVGID_10_)">
				<rect x="2.4" y="24.5" fill="#E00727" width="144.3" height="101"/>
				<rect x="2.4" y="49.8" fill="#FEEB17" width="144.3" height="50.5"/>
			</g>
		</g>
	</g>
</g>
<g id="nl" display="none">
	<circle display="inline" fill="none" stroke="#FFFFFF" stroke-miterlimit="10" cx="75" cy="75" r="54.5"/>
	<circle display="inline" fill="#066BB3" cx="75" cy="75" r="50.5"/>
	<path display="inline" fill="#E0091C" d="M125.5,75h-101c0-27.9,22.6-50.5,50.5-50.5S125.5,47.1,125.5,75z"/>
	<g display="inline">
		<g>
			<defs>
				<circle id="SVGID_11_" cx="75" cy="75" r="50.5"/>
			</defs>
			<clipPath id="SVGID_12_">
				<use xlink:href="#SVGID_11_"  overflow="visible"/>
			</clipPath>
			<g clip-path="url(#SVGID_12_)">
				<rect x="2.9" y="24.5" fill="#E53239" width="144.3" height="33.7"/>
				<rect x="2.9" y="91.8" fill="#0663AC" width="144.3" height="33.7"/>
				<rect x="2.9" y="58.2" fill="#F2F2F2" width="144.3" height="33.7"/>
			</g>
		</g>
	</g>
</g>
<g id="chi" display="none">
	<circle display="inline" fill="none" stroke="#FFFFFF" stroke-miterlimit="10" cx="75" cy="75" r="54.5"/>
	<circle display="inline" fill="#066BB3" cx="75" cy="75" r="50.5"/>
	<path display="inline" fill="#E0091C" d="M125.5,75h-101c0-27.9,22.6-50.5,50.5-50.5S125.5,47.1,125.5,75z"/>
	<g display="inline">
		<g>
			<defs>
				<circle id="SVGID_13_" cx="75" cy="75" r="50.5"/>
			</defs>
			<clipPath id="SVGID_14_">
				<use xlink:href="#SVGID_13_"  overflow="visible"/>
			</clipPath>
			<g clip-path="url(#SVGID_14_)">
				<rect x="24.5" y="75.2" fill="#E00727" width="145" height="50.8"/>
				<rect x="24.5" y="24.5" fill="#F2F2F2" width="145" height="50.7"/>
				<rect x="24.5" y="24.5" fill="#024C92" width="50.7" height="50.7"/>
				<polygon fill="#FFFFFF" points="54.9,42.2 52.1,50.9 42.8,50.9 50.3,56.4 47.4,65.2 54.9,59.7 62.4,65.2 59.5,56.3 67,51 
					57.7,51 				"/>
			</g>
		</g>
	</g>
</g>
<g id="aus" display="none">
	<circle display="inline" fill="none" stroke="#FFFFFF" stroke-miterlimit="10" cx="75" cy="75" r="54.5"/>
	<circle display="inline" fill="#1C3A69" cx="75" cy="75" r="50.5"/>
	<path display="inline" fill="#E0091C" d="M125.5,75h-101c0-27.9,22.6-50.5,50.5-50.5S125.5,47.1,125.5,75z"/>
	<g display="inline">
		<g>
			<defs>
				<circle id="SVGID_15_" cx="75" cy="75" r="50.5"/>
			</defs>
			<clipPath id="SVGID_16_">
				<use xlink:href="#SVGID_15_"  overflow="visible"/>
			</clipPath>
			<g clip-path="url(#SVGID_16_)">
				<g>
					<rect x="23" y="23.8" fill="#1D3B6B" width="125" height="87.5"/>
					<path fill="#1D3B6B" d="M85.5,67.5"/>
				</g>
				<g>
					<polygon fill="#FFFFFF" points="23,36.6 38.2,36.6 23,28.5 23,23.8 31.7,23.8 52.9,35.1 52.9,23.8 64.9,23.8 64.9,35.1 
						86.1,23.8 94.9,23.8 94.9,28.5 79.6,36.6 94.9,36.6 94.9,49.6 79.6,49.6 94.9,57.7 94.9,62.4 86.1,62.4 64.9,51.1 64.9,62.4 
						52.9,62.4 52.9,51.1 31.7,62.4 23,62.4 23,57.7 38.2,49.6 23,49.6 					"/>
					<g>
						<polygon fill="#DB3036" points="89.2,23.8 65.2,36.7 71,36.7 94.9,23.8 						"/>
						<polygon fill="#DB3036" points="94.9,62.4 71,49.6 76.7,49.6 94.9,59.4 						"/>
						<polygon fill="#DB3036" points="47,36.7 23,23.8 23,26.8 41.2,36.7 						"/>
						<polygon fill="#DB3036" points="47,49.6 23,62.4 28.7,62.4 52.7,49.6 						"/>
						<polygon fill="#DB3036" points="23,39.3 55.5,39.3 55.5,23.8 62.5,23.8 62.5,39.3 94.9,39.3 94.9,46.9 62.5,46.9 62.5,62.4 
							55.5,62.4 55.5,46.9 23,46.9 						"/>
					</g>
				</g>
				<g>
					<polygon fill="#FFFFFF" points="51.8,84.1 59.5,81.2 55,88 62,92.2 53.8,92.9 55,101.1 49.3,95.1 43.6,101.1 44.7,92.9 
						36.5,92.2 43.5,88 39,81.2 46.7,84.1 49.3,76.3 					"/>
					<polygon fill="#FFFFFF" points="109.8,45.8 113.5,44.4 111.3,47.7 114.6,49.7 110.8,50 111.3,53.9 108.6,51 105.9,53.9 
						106.4,50 102.6,49.7 105.9,47.7 103.7,44.4 107.4,45.8 108.6,42.1 					"/>
					<polygon fill="#FFFFFF" points="109.8,104.1 113.5,102.8 111.3,106 114.6,108 110.8,108.3 111.3,112.2 108.6,109.4 
						105.9,112.2 106.4,108.3 102.6,108 105.9,106 103.7,102.8 107.4,104.1 108.6,100.4 					"/>
					<polygon fill="#FFFFFF" points="117.2,71.8 120.8,70.4 118.7,73.6 122,75.6 118.1,76 118.7,79.8 116,77 113.3,79.8 113.8,76 
						109.9,75.6 113.2,73.6 111.1,70.4 114.8,71.8 116,68.1 					"/>
					<polygon fill="#FFFFFF" points="95.2,69.5 98.9,68.1 96.7,71.4 100.1,73.4 96.2,73.7 96.7,77.6 94,74.7 91.3,77.6 91.8,73.7 
						88,73.4 91.3,71.4 89.2,68.1 92.8,69.5 94,65.8 					"/>
					<polygon fill="#FFFFFF" points="85.1,88.8 84.2,91.5 81.5,91.5 83.7,93.1 82.9,95.7 85.1,94.1 87.4,95.7 86.5,93.1 88.7,91.5 
						86,91.5 					"/>
				</g>
			</g>
		</g>
	</g>
</g>
<g id="col" display="none">
	<circle display="inline" fill="none" stroke="#FFFFFF" stroke-miterlimit="10" cx="75" cy="75" r="54.5"/>
	<circle display="inline" fill="#1C3A69" cx="75" cy="75" r="50.5"/>
	<path display="inline" fill="#E0091C" d="M125.5,75h-101c0-27.9,22.6-50.5,50.5-50.5S125.5,47.1,125.5,75z"/>
	<g display="inline">
		<g>
			<defs>
				<circle id="SVGID_17_" cx="75" cy="75" r="50.5"/>
			</defs>
			<clipPath id="SVGID_18_">
				<use xlink:href="#SVGID_17_"  overflow="visible"/>
			</clipPath>
			<g clip-path="url(#SVGID_18_)">
				<rect x="1.5" y="24.4" fill="#FFE148" width="145.2" height="50.8"/>
				<rect x="1.5" y="100.6" fill="#DB3036" width="145.2" height="25.4"/>
				<rect x="1.5" y="75.2" fill="#0278BB" width="145.2" height="25.4"/>
			</g>
		</g>
	</g>
</g>
<g id="gre" display="none">
	<circle display="inline" fill="none" stroke="#FFFFFF" stroke-miterlimit="10" cx="75" cy="75" r="54.5"/>
	<circle display="inline" fill="#1C3A69" cx="75" cy="75" r="50.5"/>
	<path display="inline" fill="#E0091C" d="M125.5,75h-101c0-27.9,22.6-50.5,50.5-50.5S125.5,47.1,125.5,75z"/>
	<g display="inline">
		<g>
			<defs>
				<circle id="SVGID_19_" cx="75" cy="75" r="50.5"/>
			</defs>
			<clipPath id="SVGID_20_">
				<use xlink:href="#SVGID_19_"  overflow="visible"/>
			</clipPath>
			<g clip-path="url(#SVGID_20_)">
				<g>
					<rect x="24.5" y="24.3" fill="#0278BB" width="144.6" height="101.2"/>
					<path fill="#0278BB" d="M96.8,75"/>
				</g>
				<path fill="#F2F2F2" d="M169.1,46.8H78V35.6h91.1V46.8z M169.1,58.1H78v11.3h91.1V58.1z M169.1,103.1H24.5v11.2h144.6V103.1z
					 M56.5,58.1H78V46.8H56.5V24.3H45.8v22.5H24.5V58h21.3v22.5H24.5v11.3h144.6V80.6H56.5V58.1z"/>
			</g>
		</g>
	</g>
</g>
<g id="civ" display="none">
	<circle display="inline" fill="none" stroke="#FFFFFF" stroke-miterlimit="10" cx="75" cy="75" r="54.5"/>
	<circle display="inline" fill="#1C3A69" cx="75" cy="75" r="50.5"/>
	<path display="inline" fill="#E0091C" d="M125.5,75h-101c0-27.9,22.6-50.5,50.5-50.5S125.5,47.1,125.5,75z"/>
	<g display="inline">
		<g>
			<defs>
				<circle id="SVGID_21_" cx="75" cy="75" r="50.5"/>
			</defs>
			<clipPath id="SVGID_22_">
				<use xlink:href="#SVGID_21_"  overflow="visible"/>
			</clipPath>
			<g clip-path="url(#SVGID_22_)">
				<rect x="99.5" y="23.9" fill="#02763C" width="48.8" height="102.4"/>
				<rect x="2" y="23.9" fill="#F5A32F" width="48.7" height="102.4"/>
				<rect x="50.7" y="23.9" fill="#F2F2F2" width="48.7" height="102.4"/>
			</g>
		</g>
	</g>
</g>
<g id="jpn" display="none">
	<circle display="inline" fill="none" stroke="#FFFFFF" stroke-miterlimit="10" cx="75" cy="75" r="54.5"/>
	<circle display="inline" fill="#F1F1F1" cx="75" cy="75" r="50.5"/>
	<g display="inline">
		<g>
			<defs>
				<circle id="SVGID_23_" cx="75" cy="75" r="50.5"/>
			</defs>
			<clipPath id="SVGID_24_">
				<use xlink:href="#SVGID_23_"  overflow="visible"/>
			</clipPath>
			<g clip-path="url(#SVGID_24_)">
				<g>
					<rect x="23.1" y="39" fill="#F2F2F2" width="103.1" height="72.2"/>
				</g>
				<g>
					<circle fill="#E1081B" cx="74.7" cy="75.1" r="24.3"/>
				</g>
			</g>
		</g>
	</g>
</g>
<g id="uru" display="none">
	<circle display="inline" fill="none" stroke="#FFFFFF" stroke-miterlimit="10" cx="75" cy="75" r="54.5"/>
	<circle display="inline" fill="#F1F1F1" cx="75" cy="75" r="50.5"/>
	<g display="inline">
		<g>
			<defs>
				<circle id="SVGID_25_" cx="75" cy="75" r="50.5"/>
			</defs>
			<clipPath id="SVGID_26_">
				<use xlink:href="#SVGID_25_"  overflow="visible"/>
			</clipPath>
			<g clip-path="url(#SVGID_26_)">
				<rect x="24.5" y="24.1" fill="#F2F2F2" width="145.5" height="101.8"/>
				<rect x="74.1" y="35.2" fill="#04529C" width="95.4" height="11.4"/>
				<rect x="74.4" y="58.1" fill="#04529C" width="95.4" height="11.4"/>
				<rect x="24.6" y="81" fill="#04529C" width="145.4" height="11.4"/>
				<rect x="25.2" y="104" fill="#04529C" width="144.5" height="11.4"/>
				<g>
					<path d="M49.3,73.1L47.4,57L35,67.5l-0.1-0.1L45,54.7l-16.2-1.3v-0.2L45,51.3L34.4,38.9l0.1-0.1l12.7,10.1l1.3-16.2h0.2
						l1.9,16.2L63,38.3l0.1,0.1L53,51.2l16.2,1.3v0.2L53,54.6L63.6,67h-0.1L50.8,56.9l-1.3,16.2L49.3,73.1L49.3,73.1z M47.6,56.6
						l1.8,15.5l1.2-15.6l12.2,9.7L52.7,54.4l15.5-1.8l-15.6-1.2l9.7-12.2l-11.8,10l-1.8-15.5l-1.2,15.6l-12.2-9.7l10.1,11.9
						l-15.5,1.8l15.6,1.2l-9.7,12.2L47.6,56.6L47.6,56.6z"/>
					<g>
						<g>
							<path fill="#FDC406" d="M55.4,58.9c3.2,1.9,7.4,0.5,7.9,0.2s3-0.6,3.7,0.6c0.7-1.5-3.2-3.1-3.8-3.2c-2.4-0.2-4.7-3-5.3-4
								c3.6-0.9,5.8-4.7,5.9-5.2c0.2-0.6,1.7-2.5,3-2.2c-0.6-1.5-4.5,0.1-4.9,0.4c-1.8,1.5-5.7,1.1-6.8,0.9c1.9-3.2,0.6-7.4,0.3-7.9
								s-0.6-3,0.6-3.7c-1.5-0.7-3.1,3.2-3.2,3.8c-0.2,2.4-3.1,4.8-4.1,5.4c-0.9-3.6-4.8-5.6-5.3-5.8c-0.6-0.2-2.5-1.7-2.2-3
								c-1.5,0.6,0.1,4.5,0.4,4.9c1.5,1.8,1.2,5.4,1,6.5c-3.2-1.9-7.3-0.8-7.8-0.5s-3,0.6-3.7-0.6c-0.7,1.5,3.2,3.1,3.8,3.2
								c2.4,0.2,4.8,3.1,5.4,4c-3.6,0.9-5.6,4.8-5.8,5.3c-0.2,0.6-1.7,2.5-3,2.2c0.6,1.5,4.5-0.1,4.9-0.4c1.8-1.5,5.5-1.2,6.6-1
								c-1.9,3.2-0.7,7.3-0.4,7.8s0.6,3-0.6,3.7c1.5,0.7,3.1-3.2,3.2-3.8c0.2-2.4,3.1-4.7,4.1-5.3c0.9,3.6,4.8,5.7,5.3,5.9
								c0.6,0.2,2.5,1.7,2.2,3c1.5-0.6-0.1-4.5-0.4-4.9c-1.5-1.8-1.2-5.7-1-6.8"/>
							<polygon fill="#FDC406" points="50.5,49.1 63,38.4 52.8,51.3 69.2,52.6 52.9,54.4 63.5,67 50.7,56.7 49.4,73.1 47.5,56.8 
								35,67.5 45.2,54.6 28.8,53.3 45.1,51.4 34.5,38.9 47.3,49.1 48.7,32.7 							"/>
							<circle fill="#FDC406" cx="49.1" cy="52.8" r="6.9"/>
							<path fill="#FDC406" d="M46.7,58.1c0.7-1.1,3.4-1.5,4.6-0.1"/>
							<path fill="#FDC406" d="M45,49.5c0.4-0.4,2.1-0.7,2.9,0.1"/>
							<path fill="#FDC406" d="M45.2,50.9c-0.7-0.1,1.5-1.1,2.2-0.4c0.8,0.7,0.5,0.1,0.5,0.1c-0.5,0.4-0.4,0.8-1.3,0.9
								C45.8,51.7,45.9,51,45.2,50.9z"/>
							<path fill="#FDC406" d="M52.7,49.5c-0.4-0.4-2.1-0.7-2.9,0.1"/>
							<path fill="#FDC406" d="M50.6,53.4c0.3,0.4,0.1,0.8-0.3,0.7c-0.4-0.1-0.8,0-0.8,0l-0.5,0l0,0c0,0-0.4-0.2-1.3-0.1
								c-0.4,0.1-0.5-0.3-0.3-0.7"/>
							<path fill="#FDC406" d="M52.7,50.9c0.7-0.1-1.5-1.1-2.2-0.4c-0.8,0.7-0.5,0.1-0.5,0.1c0.5,0.4,0.4,0.8,1.3,0.9
								C52.2,51.7,52,51,52.7,50.9z"/>
							<path fill="#FDC406" d="M49,55.2l0.7-0.4c0,0,1.3,0,1.6,0.4s0.9,0.3,0.9,0.3c-0.4,0.1-1.5,0.9-3.2,0.8
								c-1.7,0.1-2.8-0.7-3.2-0.8c0,0,0.7,0.1,0.9-0.3c0.3-0.4,1.6-0.4,1.6-0.4L49,55.2"/>
							<polyline fill="#FDC406" points="45.1,55.5 48.9,55.6 52.5,55.5 							"/>
						</g>
						<g>
							<path d="M42.3,70.8c-0.1,0-0.3,0-0.4-0.1l-0.2-0.1l0.2-0.1c1.1-0.7,0.8-3.1,0.5-3.6c-0.4-0.6-1.4-4.7,0.4-7.8
								c-1.1-0.2-4.6-0.5-6.4,1c-0.4,0.3-2.9,1.4-4.3,1c-0.4-0.1-0.6-0.3-0.8-0.6l-0.1-0.2h0.2c1.3,0.3,2.8-1.6,2.9-2.2
								c0.1-0.5,2.1-4.4,5.7-5.4c-0.7-0.9-3-3.7-5.3-3.9c-0.4,0-3.1-1.1-3.8-2.3c-0.2-0.3-0.2-0.7-0.1-1l0.1-0.2l0.1,0.2
								c0.7,1.1,3.1,0.8,3.6,0.5c0.6-0.4,4.7-1.4,7.8,0.4c0.2-1.1,0.4-4.5-1-6.3c-0.3-0.3-1.4-2.9-1-4.3c0.1-0.4,0.3-0.6,0.6-0.8
								l0.2-0.1v0.2c-0.3,1.3,1.6,2.8,2.2,2.9c0.5,0.1,4.4,2.1,5.4,5.7c1.2-0.8,3.7-3.2,3.9-5.3c0-0.4,1.1-3.1,2.3-3.8
								c0.3-0.2,0.7-0.2,1-0.1l0.2,0.1L56.1,35c-1.1,0.7-0.8,3.1-0.5,3.6s1.7,4.7-0.2,7.9c1.1,0.2,4.8,0.5,6.5-0.9
								c0.4-0.3,2.9-1.4,4.3-1c0.4,0.1,0.6,0.3,0.8,0.6l0.1,0.2h-0.2c-1.3-0.3-2.8,1.6-2.9,2.2c-0.2,0.7-2.4,4.4-5.9,5.3
								c0.7,1,2.9,3.6,5.2,3.8c0.4,0,3.1,1.1,3.8,2.3c0.2,0.3,0.2,0.7,0.1,1L67,60l-0.1-0.2c-0.7-1.1-3.1-0.8-3.6-0.5
								s-4.6,1.7-7.9-0.2c-0.2,1.3-0.4,4.7,1,6.3c0.3,0.4,1.4,2.9,1,4.3c-0.1,0.4-0.3,0.6-0.6,0.8l-0.2,0.1v-0.2
								c0.3-1.3-1.6-2.8-2.2-2.9C54,67.4,50,65.4,49,61.7c-1.1,0.8-3.7,3-3.9,5.2c0,0.4-1.1,3.1-2.3,3.8
								C42.7,70.7,42.5,70.8,42.3,70.8L42.3,70.8z M42.2,70.6c0.2,0,0.4,0,0.6-0.1c1.1-0.7,2.2-3.2,2.2-3.6c0.2-2.4,3-4.7,4.1-5.4
								l0.1-0.1v0.1c0.9,3.7,4.8,5.7,5.3,5.8c0.5,0.1,2.4,1.6,2.3,3c0.2-0.1,0.3-0.3,0.4-0.5c0.3-1.3-0.7-3.8-1-4.1
								c-1.6-1.9-1.2-5.9-1-6.9h0.2v0.1c3.1,1.9,7.3,0.5,7.8,0.2s2.8-0.6,3.7,0.5c0-0.2,0-0.4-0.1-0.6c-0.7-1.1-3.2-2.2-3.6-2.2
								c-2.4-0.2-4.7-3-5.4-4l-0.1-0.1h0.1c3.5-0.8,5.7-4.5,5.9-5.2c0.1-0.5,1.6-2.4,3-2.3c-0.1-0.2-0.3-0.3-0.6-0.4
								c-1.3-0.3-3.8,0.7-4.1,1c-1.9,1.5-5.7,1.2-6.8,0.9h-0.1l0.1-0.1c1.9-3.2,0.5-7.4,0.3-7.8c-0.3-0.5-0.6-2.9,0.5-3.7
								c-0.2,0-0.4,0-0.6,0.1C54,35.7,53,38.3,53,38.7c-0.3,2.5-3.3,5-4.1,5.5l-0.1,0.1v-0.1c-0.9-3.6-4.8-5.6-5.3-5.7
								c-0.5-0.1-2.4-1.6-2.3-3c-0.2,0.1-0.3,0.3-0.4,0.5c-0.3,1.3,0.7,3.8,1,4.1c1.6,1.9,1.2,5.7,1,6.6v0.1l-0.1-0.1
								c-3-1.8-7.1-0.8-7.7-0.5c-0.5,0.3-2.8,0.6-3.7-0.5c0,0.2,0,0.4,0.1,0.6c0.7,1.1,3.2,2.2,3.6,2.2c2.5,0.3,5,3.3,5.5,4.1
								l0.1,0.1h-0.1c-3.6,0.9-5.6,4.8-5.7,5.3c-0.1,0.5-1.6,2.4-3,2.3c0.1,0.2,0.3,0.3,0.5,0.4c1.3,0.3,3.8-0.7,4.1-1
								c1.9-1.6,5.7-1.2,6.7-1h0.1l-0.1,0.1c-2,3.2-0.7,7.4-0.4,7.7C42.9,67.3,43.3,69.7,42.2,70.6L42.2,70.6z"/>
							<path d="M49.1,59.9L49.1,59.9c-0.9,0-1.8-0.2-2.6-0.5c-1.8-0.7-3.1-2-3.9-3.7c-0.8-1.7-0.8-3.6-0.1-5.4
								c1.1-2.7,3.6-4.5,6.6-4.5c0.9,0,1.8,0.2,2.6,0.5c1.8,0.7,3.1,2,3.9,3.7c0.8,1.7,0.8,3.6,0.1,5.4C54.6,58.1,52,59.9,49.1,59.9
								L49.1,59.9z M49.1,46.1c-2.8,0-5.3,1.7-6.3,4.3c-0.7,1.7-0.6,3.5,0.1,5.2c0.7,1.7,2,2.9,3.7,3.6c0.8,0.3,1.6,0.5,2.5,0.5
								c2.8,0,5.3-1.7,6.3-4.3c0.7-1.7,0.6-3.5-0.1-5.2c-0.7-1.7-2-2.9-3.7-3.6C50.8,46.2,49.9,46.1,49.1,46.1L49.1,46.1z"/>
							<path d="M46.8,58.2L46.6,58c0.3-0.5,1.2-0.9,2.2-1c1.1-0.1,2.1,0.2,2.7,0.9l-0.2,0.2c-0.5-0.6-1.4-0.9-2.5-0.8
								C47.9,57.4,47.1,57.7,46.8,58.2L46.8,58.2z"/>
							<path d="M47.8,49.8c-0.7-0.7-2.4-0.5-2.7-0.1l-0.2-0.2c0.5-0.5,2.3-0.7,3.1,0.1L47.8,49.8L47.8,49.8z"/>
							<path d="M46.5,51.7c-0.4,0-0.6-0.2-0.8-0.4c-0.1-0.1-0.2-0.3-0.5-0.3s-0.3-0.2-0.3-0.3c0-0.3,1-0.7,1.7-0.7
								c0.4,0,0.7,0.1,0.9,0.3c0.1,0.1,0.2,0.2,0.3,0.2c0,0,0.1,0,0.1-0.1l0.1-0.1l0.1,0.1c0,0.1,0.1,0.2,0,0.3v0.1H48h-0.1
								c-0.1,0.1-0.1,0.1-0.1,0.2c-0.2,0.3-0.4,0.5-1,0.6C46.6,51.7,46.5,51.7,46.5,51.7L46.5,51.7z M45.3,50.7
								c0.3,0.1,0.5,0.2,0.6,0.4c0.2,0.2,0.3,0.3,0.8,0.3c0.6-0.1,0.7-0.2,0.8-0.5l0.1-0.1l0,0l0,0c-0.1,0-0.1-0.1-0.2-0.2
								c-0.2-0.1-0.4-0.2-0.7-0.2C46.1,50.4,45.5,50.6,45.3,50.7L45.3,50.7z"/>
							<circle cx="46.4" cy="50.9" r="0.4"/>
							<path d="M46.4,51.4c-0.3,0-0.5-0.2-0.5-0.5s0.2-0.5,0.5-0.5s0.5,0.2,0.5,0.5C46.9,51.1,46.7,51.4,46.4,51.4L46.4,51.4z
								 M46.4,50.6c-0.1,0-0.2,0.1-0.2,0.2c0,0.1,0.1,0.2,0.2,0.2c0.1,0,0.2-0.1,0.2-0.2C46.7,50.7,46.6,50.6,46.4,50.6L46.4,50.6z"
								/>
							<path d="M49.9,49.8l-0.2-0.2c0.8-0.8,2.6-0.6,3.1-0.1l-0.2,0.2C52.2,49.3,50.6,49,49.9,49.8L49.9,49.8z"/>
							<path d="M48.9,54.2L48.9,54.2c0,0-0.4-0.2-1.3-0.1c-0.3,0-0.4-0.1-0.5-0.2c-0.1-0.2-0.1-0.4,0.1-0.7l0.2,0.2
								c-0.1,0.2-0.1,0.3-0.1,0.4c0,0,0.1,0.1,0.2,0.1c0.8-0.1,1.2,0,1.4,0.1l0.5-0.1c0,0,0.5-0.1,0.9,0c0.1,0,0.1,0,0.2,0
								c0.1-0.1,0-0.2-0.1-0.4l0.2-0.2c0.2,0.3,0.2,0.6,0.1,0.8c-0.1,0.1-0.3,0.2-0.5,0.1c-0.4-0.1-0.8,0-0.8,0L48.9,54.2L48.9,54.2
								z"/>
							<path d="M51.5,51.7L51.5,51.7c-0.1,0-0.2,0-0.2,0c-0.7-0.1-0.8-0.3-1-0.6c0-0.1-0.1-0.1-0.1-0.2h-0.1H50l-0.1-0.1
								c-0.1-0.1,0-0.2,0-0.3l0.1-0.1l0.1,0.1c0,0,0.1,0,0.1,0.1c0.1,0,0.2-0.1,0.3-0.2c0.2-0.2,0.5-0.3,0.9-0.3
								c0.7,0,1.7,0.3,1.7,0.7c0,0.1,0,0.2-0.3,0.3c-0.2,0-0.3,0.2-0.5,0.3C52.1,51.5,51.9,51.7,51.5,51.7L51.5,51.7z M50.3,50.8
								L50.3,50.8c0.3,0.3,0.4,0.5,0.9,0.6s0.6-0.1,0.8-0.3c0.1-0.1,0.3-0.3,0.6-0.4c-0.2-0.1-0.8-0.4-1.4-0.4
								c-0.3,0-0.6,0.1-0.7,0.2C50.4,50.7,50.4,50.7,50.3,50.8L50.3,50.8L50.3,50.8L50.3,50.8z"/>
							<circle cx="51.5" cy="50.9" r="0.4"/>
							<path d="M51.5,51.4c-0.3,0-0.5-0.2-0.5-0.5s0.2-0.5,0.5-0.5s0.5,0.2,0.5,0.5C52,51.1,51.8,51.4,51.5,51.4L51.5,51.4z
								 M51.5,50.6c-0.1,0-0.2,0.1-0.2,0.2c0,0.1,0.1,0.2,0.2,0.2c0.1,0,0.2-0.1,0.2-0.2C51.7,50.7,51.6,50.6,51.5,50.6L51.5,50.6z"
								/>
							<path d="M49.3,56.4c-0.1,0-0.3,0-0.4,0c-1.4,0.1-2.4-0.4-2.9-0.7c-0.1-0.1-0.2-0.1-0.3-0.1l0.1-0.3c0,0,0.6,0.1,0.8-0.2
								c0.3-0.4,1.5-0.5,1.7-0.5h0.1L49,55l0.7-0.4c0.2,0,1.4,0,1.7,0.5c0.2,0.3,0.8,0.2,0.8,0.2l0.1,0.3c-0.1,0-0.2,0.1-0.3,0.1
								C51.4,56,50.5,56.4,49.3,56.4L49.3,56.4z M49,56.1c1.2,0.1,2.1-0.3,2.6-0.5c-0.2,0-0.3-0.1-0.5-0.3C51,55.1,50.2,55,49.7,55
								l-0.6,0.4L49,55.2l-0.1,0.2L48.2,55c-0.5,0-1.3,0.1-1.4,0.3c-0.1,0.2-0.3,0.3-0.5,0.3C46.9,55.9,47.8,56.2,49,56.1L49,56.1z"
								/>
							<polygon points="48.9,55.8 45.1,55.6 45.1,55.3 48.9,55.5 52.5,55.3 52.5,55.6 							"/>
						</g>
					</g>
				</g>
			</g>
		</g>
	</g>
</g>
<g id="crc" display="none">
	<circle display="inline" fill="none" stroke="#FFFFFF" stroke-miterlimit="10" cx="75" cy="75" r="54.5"/>
	<circle display="inline" fill="#F1F1F1" cx="75" cy="75" r="50.5"/>
	<g display="inline">
		<g>
			<defs>
				<circle id="SVGID_27_" cx="75" cy="75" r="50.5"/>
			</defs>
			<clipPath id="SVGID_28_">
				<use xlink:href="#SVGID_27_"  overflow="visible"/>
			</clipPath>
			<g clip-path="url(#SVGID_28_)">
				<rect x="2.8" y="24.5" fill="#243770" width="144.3" height="101"/>
				<rect x="2.8" y="41.1" fill="#F2F2F2" width="144.3" height="67.8"/>
				<rect x="2.8" y="57.9" fill="#CF1328" width="144.3" height="34.2"/>
			</g>
		</g>
	</g>
</g>
<g id="eng" display="none">
	<circle display="inline" fill="none" stroke="#FFFFFF" stroke-miterlimit="10" cx="75" cy="75" r="54.5"/>
	<circle display="inline" fill="#F1F1F1" cx="75" cy="75" r="50.5"/>
	<g display="inline">
		<g>
			<defs>
				<circle id="SVGID_29_" cx="75" cy="75" r="50.5"/>
			</defs>
			<clipPath id="SVGID_30_">
				<use xlink:href="#SVGID_29_"  overflow="visible"/>
			</clipPath>
			<g clip-path="url(#SVGID_30_)">
				<g>
					<rect x="24.5" y="39.7" fill="#F2F2F2" width="101.1" height="70.8"/>
					<path fill="#FFFFFF" d="M75.1,75.1"/>
				</g>
				<polygon fill="#DB3036" points="81.8,19.7 81.8,68 125.6,68 125.6,82.2 81.8,82.2 81.8,140.5 68.3,140.5 68.3,82.2 24.5,82.2 
					24.5,68 68.3,68 68.3,19.7 				"/>
			</g>
		</g>
	</g>
</g>
<g id="ita" display="none">
	<circle display="inline" fill="none" stroke="#FFFFFF" stroke-miterlimit="10" cx="75" cy="75" r="54.5"/>
	<circle display="inline" fill="#F1F1F1" cx="75" cy="75" r="50.5"/>
	<g display="inline">
		<g>
			<defs>
				<circle id="SVGID_31_" cx="75" cy="75" r="50.5"/>
			</defs>
			<clipPath id="SVGID_32_">
				<use xlink:href="#SVGID_31_"  overflow="visible"/>
			</clipPath>
			<g id="italien" clip-path="url(#SVGID_32_)">
				<g>
					<g>
						<rect x="92.1" y="23.5" fill="#D02C37" width="33.8" height="102.8"/>
						<path fill="#D02C37" d="M109,74.9"/>
					</g>
					<g>
						<rect x="58.3" y="23.5" fill="#F2F2F2" width="33.8" height="102.8"/>
						<path fill="#FFFFFD" d="M75.2,74.9"/>
					</g>
					<g>
						<rect x="24.5" y="23.5" fill="#019447" width="33.8" height="102.8"/>
						<path fill="#019447" d="M41.4,74.9"/>
					</g>
				</g>
			</g>
		</g>
	</g>
</g>
<g id="sui" display="none">
	<circle display="inline" fill="none" stroke="#FFFFFF" stroke-miterlimit="10" cx="75" cy="75" r="54.5"/>
	<circle display="inline" fill="#E0091C" cx="75" cy="75" r="50.5"/>
	<g display="inline">
		<g>
			<defs>
				<circle id="SVGID_33_" cx="75" cy="75" r="50.5"/>
			</defs>
			<clipPath id="SVGID_34_">
				<use xlink:href="#SVGID_33_"  overflow="visible"/>
			</clipPath>
			<g clip-path="url(#SVGID_34_)">
				<rect x="24.1" y="40.5" fill="#E1081B" width="101.8" height="71.2"/>
				<polygon fill="#FFFFFF" points="100.7,66.5 84.7,66.5 84.7,50.4 65.3,50.4 65.3,66.5 49.3,66.5 49.3,85.8 65.3,85.8 65.3,101.8 
					84.7,101.8 84.7,85.8 100.7,85.8 				"/>
			</g>
		</g>
	</g>
</g>
<g id="ecu" display="none">
	<circle display="inline" fill="none" stroke="#FFFFFF" stroke-miterlimit="10" cx="75" cy="75" r="54.5"/>
	<circle display="inline" fill="#E0091C" cx="75" cy="75" r="50.5"/>
	<g display="inline">
		<g>
			<defs>
				<circle id="SVGID_35_" cx="75" cy="75" r="50.5"/>
			</defs>
			<clipPath id="SVGID_36_">
				<use xlink:href="#SVGID_35_"  overflow="visible"/>
			</clipPath>
			<g clip-path="url(#SVGID_36_)">
				<rect x="1.9" y="100.6" fill="#E52527" width="146.8" height="25.7"/>
				<rect x="1.9" y="74.9" fill="#15509F" width="146.8" height="25.7"/>
				<rect x="1.9" y="23.5" fill="#FFDF07" width="146.8" height="51.4"/>
			</g>
		</g>
	</g>
</g>
<g id="fra">
	<circle fill="none" stroke="#FFFFFF" stroke-miterlimit="10" cx="75" cy="75" r="54.5"/>
	<g>
		<g>
			<defs>
				<circle id="SVGID_37_" cx="75" cy="75" r="50.5"/>
			</defs>
			<clipPath id="SVGID_38_">
				<use xlink:href="#SVGID_37_"  overflow="visible"/>
			</clipPath>
			<g id="frankreich" clip-path="url(#SVGID_38_)">
				<rect x="23.9" y="23.2" fill="#26377F" width="34" height="103"/>
				<rect x="57.9" y="23.2" fill="#F2F2F2" width="34" height="103"/>
				<rect x="91.9" y="23.2" fill="#E1081B" width="34" height="103"/>
			</g>
		</g>
	</g>
</g>
</svg>
