<?xml version="1.0" encoding="utf-8"?>
<!-- Generator: Adobe Illustrator 17.1.0, SVG Export Plug-In . SVG Version: 6.00 Build 0)  -->
<!DOCTYPE svg PUBLIC "-//W3C//DTD SVG 1.1//EN" "http://www.w3.org/Graphics/SVG/1.1/DTD/svg11.dtd">
<svg version="1.1" id="Ebene_1" xmlns="http://www.w3.org/2000/svg" xmlns:xlink="http://www.w3.org/1999/xlink" x="0px" y="0px"
	 viewBox="0 0 150 150" enable-background="new 0 0 150 150" xml:space="preserve">
<g id="Ebene_2" display="none">
	<rect display="inline" fill="#020303" width="150" height="150"/>
</g>
<g id="bra" display="none">
	<circle display="inline" fill="none" stroke="#FFFFFF" stroke-miterlimit="10" cx="75" cy="75" r="54.5"/>
	<circle display="inline" fill="#00923F" cx="75" cy="75" r="50.5"/>
	<g display="inline">
		<g>
			<defs>
				<circle id="SVGID_1_" cx="75" cy="75" r="50.5"/>
			</defs>
			<clipPath id="SVGID_2_">
				<use xlink:href="#SVGID_1_"  overflow="visible"/>
			</clipPath>
			<g clip-path="url(#SVGID_2_)">
				<path fill="#039340" d="M25,40h100v70H25V40L25,40z"/>
				<path fill="#F8C300" d="M75,48.5L33.5,75L75,101.5L116.5,75L75,48.5L75,48.5z"/>
				<path fill="#2E2868" d="M92.4,75c0,9.6-7.8,17.5-17.5,17.5c-9.6,0-17.5-7.8-17.5-17.5S65.3,57.5,75,57.5
					C84.6,57.5,92.4,65.4,92.4,75L92.4,75z"/>
				<path fill="#FFFFFF" d="M76.7,78.8l0.2,0.5h0.6l-0.4,0.4l0.1,0.6L76.7,80l-0.5,0.3l0.1-0.6L76,79.3h0.6L76.7,78.8L76.7,78.8z
					 M89.8,80.6l0.2,0.5h0.5l-0.4,0.3l0.1,0.5l-0.4-0.3l-0.4,0.3l0.1-0.5l-0.4-0.3h0.5L89.8,80.6L89.8,80.6z M87.9,82.1l0.2,0.5h0.6
					L88.3,83l0.1,0.6l-0.5-0.3l-0.5,0.3l0.1-0.6l-0.4-0.4h0.6L87.9,82.1L87.9,82.1z M87.2,80.2l0.3,0.6h0.7l-0.5,0.4l0.2,0.7
					l-0.6-0.4L86.7,82l0.2-0.7l-0.5-0.4h0.7L87.2,80.2L87.2,80.2z M87.1,83.5l0.2,0.5h0.6l-0.4,0.4l0.1,0.6l-0.5-0.3L86.6,85
					l0.1-0.6L86.3,84h0.6L87.1,83.5L87.1,83.5z M85.5,84.3l0.2,0.5h0.5l-0.4,0.3l0.1,0.5l-0.4-0.3L85,85.6l0.1-0.5l-0.4-0.3h0.5
					L85.5,84.3L85.5,84.3z M83.8,85.9l0.2,0.5h0.6l-0.4,0.4l0.1,0.6l-0.5-0.3l-0.5,0.3l0.1-0.6L83,86.5h0.6L83.8,85.9L83.8,85.9z
					 M83.8,87.8l0.2,0.5h0.5L84,88.6l0.1,0.5l-0.4-0.3l-0.4,0.3l0.1-0.5L83,88.3h0.5L83.8,87.8L83.8,87.8z M83.7,84.3l0.2,0.5h0.5
					L84,85.1l0.1,0.5l-0.4-0.3l-0.4,0.3l0.1-0.5L83,84.8h0.5L83.7,84.3L83.7,84.3z M81.7,84.7l0.2,0.5h0.5L82,85.5l0.1,0.5l-0.4-0.3
					L81.3,86l0.1-0.5L81,85.2h0.5L81.7,84.7L81.7,84.7z M80.3,68l0.3,0.6h0.7L80.8,69l0.2,0.7l-0.6-0.4l-0.6,0.4L80,69l-0.5-0.4h0.7
					L80.3,68L80.3,68z M80.1,86.3l0.2,0.5h0.6l-0.4,0.4l0.1,0.6l-0.5-0.3l-0.5,0.3l0.1-0.6l-0.4-0.4h0.6L80.1,86.3L80.1,86.3z
					 M79.1,73.3l0.2,0.5h0.5l-0.4,0.3l0.1,0.5l-0.4-0.3l-0.4,0.3l0.1-0.5l-0.4-0.3h0.5L79.1,73.3L79.1,73.3z M78.6,84.3l0.2,0.5h0.5
					l-0.4,0.3l0.1,0.5l-0.4-0.3l-0.4,0.3l0.1-0.5L78,84.8h0.5L78.6,84.3L78.6,84.3z M75.1,77.3l0.2,0.5h0.6l-0.4,0.4l0.1,0.6
					l-0.5-0.3l-0.5,0.3l0.1-0.6l-0.4-0.4h0.6L75.1,77.3L75.1,77.3z M75,82.2l0.2,0.6h0.7l-0.5,0.4l0.2,0.7L75,83.6L74.5,84l0.2-0.7
					l-0.5-0.4h0.7L75,82.2L75,82.2z M75.1,88.5l0.1,0.2h0.3L75.2,89l0.1,0.3l-0.2-0.1l-0.2,0.1L75,89l-0.2-0.2h0.3L75.1,88.5
					L75.1,88.5z M74,80.2l0.1,0.3h0.4l-0.3,0.2l0.1,0.4L74,80.9l-0.3,0.2l0.1-0.4l-0.3-0.2h0.4L74,80.2L74,80.2z M72.7,79.1l0.2,0.5
					h0.5L73,79.9l0.1,0.5l-0.4-0.3l-0.4,0.3l0.1-0.5L72,79.6h0.5L72.7,79.1L72.7,79.1z M68.2,74.9l0.2,0.5H69l-0.4,0.4l0.1,0.6
					l-0.5-0.3l-0.5,0.3l0.1-0.6l-0.4-0.4H68L68.2,74.9L68.2,74.9z M67.7,83.7l0.2,0.6h0.7l-0.5,0.4l0.2,0.7L67.7,85l-0.6,0.4
					l0.2-0.7l-0.5-0.4h0.7L67.7,83.7L67.7,83.7z M65.7,80.3l0.2,0.5h0.6l-0.4,0.4l0.1,0.6l-0.5-0.3l-0.5,0.3l0.1-0.6L65,80.8h0.6
					L65.7,80.3L65.7,80.3z M65.1,82.2l0.2,0.5h0.5L65.4,83l0.1,0.5l-0.4-0.3l-0.4,0.3l0.1-0.5l-0.4-0.3h0.5L65.1,82.2L65.1,82.2z
					 M63.8,77.8l0.1,0.3h0.4L64,78.4l0.1,0.4l-0.3-0.2l-0.3,0.2l0.1-0.4l-0.3-0.2h0.4L63.8,77.8L63.8,77.8z M62.2,78.5l0.2,0.6h0.7
					l-0.5,0.4l0.2,0.7l-0.6-0.4l-0.6,0.4l0.2-0.7l-0.5-0.4H62L62.2,78.5L62.2,78.5z M60.8,71.2l0.3,0.6h0.7l-0.5,0.4l0.2,0.7
					l-0.6-0.4L60.2,73l0.2-0.7l-0.5-0.4h0.7L60.8,71.2L60.8,71.2z M60.4,80.1l0.2,0.5h0.6L60.8,81l0.1,0.6l-0.5-0.3l-0.5,0.3L60,81
					l-0.4-0.4h0.6L60.4,80.1L60.4,80.1z"/>
				<path fill="#FFFFFF" d="M64.5,69.6c10.4,0,19.9,3.8,27.2,10.1c0.2-0.9,0.4-1.7,0.5-2.6c-7.6-6.2-17.3-9.9-27.8-9.9
					c-1.8,0-3.6,0.1-5.4,0.3c-0.4,0.8-0.7,1.6-0.9,2.5C60.3,69.8,62.4,69.6,64.5,69.6L64.5,69.6z"/>
				<path fill="#039340" d="M60,68.7c0,0.2,0.1,0.3,0.1,0.4c0.1,0.1,0.2,0.1,0.3,0.1s0.2-0.1,0.3-0.2s0.1-0.2,0.1-0.4
					c0-0.2-0.1-0.3-0.1-0.4c-0.1-0.1-0.2-0.1-0.3-0.1s-0.2,0.1-0.3,0.2C60.1,68.4,60,68.5,60,68.7L60,68.7z M59.7,68.7
					c0-0.3,0-0.5,0.2-0.6c0.1-0.2,0.3-0.2,0.5-0.3c0.2,0,0.4,0,0.6,0.2c0.2,0.1,0.2,0.3,0.3,0.6c0,0.3,0,0.5-0.2,0.6
					c-0.1,0.2-0.3,0.2-0.5,0.3c-0.2,0-0.4,0-0.6-0.2C59.8,69.2,59.7,69,59.7,68.7L59.7,68.7z M62.3,68.4h0.4c0.1,0,0.1,0,0.2-0.1
					c0,0,0.1-0.1,0.1-0.2s0-0.1-0.1-0.2c0,0-0.1-0.1-0.2,0h-0.4V68.4L62.3,68.4z M62,69.3l-0.1-1.6h0.8c0.2,0,0.3,0,0.4,0.1
					c0.1,0.1,0.1,0.2,0.1,0.3c0,0.1,0,0.2-0.1,0.2c0,0.1-0.1,0.1-0.2,0.1c0.1,0,0.1,0.1,0.1,0.1s0,0.1,0.1,0.2v0.2l0,0
					c0,0.1,0,0.1,0.1,0.2l0,0h-0.4c0,0,0,0,0-0.1v-0.1v-0.2c0-0.1,0-0.2-0.1-0.2c0,0-0.1,0-0.2,0h-0.3v0.6L62,69.3L62,69.3z
					 M64.3,69h0.3c0.1,0,0.3,0,0.3-0.1c0.1-0.1,0.1-0.2,0.1-0.4c0-0.2,0-0.3-0.1-0.4C64.8,68,64.7,68,64.6,68h-0.3L64.3,69L64.3,69z
					 M63.9,69.2v-1.6h0.6c0.2,0,0.4,0.1,0.5,0.2s0.2,0.3,0.2,0.6c0,0.1,0,0.3-0.1,0.4c0,0.1-0.1,0.2-0.2,0.3c-0.1,0-0.1,0.1-0.2,0.1
					s-0.2,0-0.3,0H63.9L63.9,69.2z M65.9,69.3l0.1-1.6l1.1,0.1v0.3h-0.8v0.3H67v0.3h-0.7v0.4h0.9v0.3L65.9,69.3L65.9,69.3z
					 M67.8,69.4l0.2-1.5h0.5l0.2,1.2L69,68h0.5l-0.2,1.5H69l0.1-1.2l-0.4,1.2h-0.3l-0.2-1.3l-0.1,1.2L67.8,69.4L67.8,69.4z
					 M71.9,69.9l0.3-1.5l1.1,0.2l-0.1,0.3l-0.8-0.2L72.3,69l0.7,0.2l-0.1,0.3l-0.7-0.2l-0.1,0.4l0.8,0.2l0.1,0.3L71.9,69.9
					L71.9,69.9z M76,70l0.3,0.1c0.1,0,0.1,0,0.2,0c0,0,0.1-0.1,0.1-0.2s0-0.1,0-0.2l-0.1-0.1l-0.3-0.1L76,70L76,70z M75.9,70.3
					l-0.1,0.5l-0.3-0.1l0.4-1.5l0.7,0.2c0.2,0,0.3,0.1,0.3,0.2c0.1,0.1,0.1,0.2,0,0.4c0,0.2-0.1,0.3-0.2,0.3c-0.1,0.1-0.2,0.1-0.4,0
					H75.9L75.9,70.3z M77.8,70.5l0.4,0.1c0.1,0,0.1,0,0.2,0l0.1-0.1c0-0.1,0-0.1,0-0.2l-0.1-0.1L78,70.1L77.8,70.5L77.8,70.5z
					 M77.2,71.3l0.5-1.5l0.7,0.2c0.2,0.1,0.3,0.1,0.3,0.2c0.1,0.1,0.1,0.2,0,0.4c0,0.1-0.1,0.2-0.1,0.2c-0.1,0-0.1,0.1-0.2,0.1
					c0.1,0,0.1,0.1,0.1,0.1c0,0.1,0,0.1,0,0.2v0.2l0,0c0,0.1,0,0.1,0,0.2l0,0l-0.3-0.1v-0.1v-0.1v-0.2c0-0.1,0-0.2,0-0.2
					s-0.1-0.1-0.2-0.1l-0.3-0.1l-0.2,0.6L77.2,71.3L77.2,71.3z M79.6,71.3c-0.1,0.2-0.1,0.3,0,0.4c0,0.1,0.1,0.2,0.3,0.2
					c0.1,0,0.2,0,0.4,0c0.1-0.1,0.2-0.2,0.2-0.3c0.1-0.2,0.1-0.3,0-0.4c0-0.1-0.1-0.2-0.3-0.2c-0.1,0-0.2,0-0.3,0
					C79.8,71,79.7,71.1,79.6,71.3L79.6,71.3z M79.3,71.2c0.1-0.2,0.2-0.4,0.4-0.5c0.2-0.1,0.4-0.1,0.6,0s0.4,0.2,0.4,0.4
					c0.1,0.2,0.1,0.4,0,0.6s-0.2,0.4-0.4,0.5c-0.2,0.1-0.4,0.1-0.6,0s-0.4-0.2-0.4-0.4C79.2,71.6,79.2,71.4,79.3,71.2L79.3,71.2z
					 M82.2,73c-0.1,0-0.2,0.1-0.2,0.1c-0.1,0-0.2,0-0.3-0.1c-0.2-0.1-0.3-0.2-0.4-0.4c-0.1-0.2,0-0.4,0-0.6c0.1-0.2,0.2-0.4,0.4-0.5
					c0.2-0.1,0.4-0.1,0.6,0s0.3,0.2,0.4,0.3c0.1,0.1,0.1,0.3,0.1,0.4l-0.3-0.1c0-0.1,0-0.2,0-0.2c0-0.1-0.1-0.1-0.2-0.2
					s-0.2,0-0.3,0c-0.1,0.1-0.2,0.2-0.3,0.3c-0.1,0.2-0.1,0.3,0,0.4c0,0.1,0.1,0.2,0.2,0.3c0.1,0,0.2,0,0.3,0c0.1,0,0.2-0.1,0.2-0.2
					l-0.4,0l0.1-0.2l0.6,0.3l-0.3,0.8l-0.2-0.1V73L82.2,73z M83.7,73l0.3,0.2c0.1,0,0.1,0,0.2,0l0.1-0.1c0-0.1,0-0.1,0-0.2l-0.1-0.1
					l-0.4-0.2L83.7,73L83.7,73z M83,73.6l0.7-1.4l0.7,0.3c0.2,0.1,0.2,0.2,0.3,0.3c0,0.1,0,0.2,0,0.4c0,0.1-0.1,0.1-0.2,0.2
					c-0.1,0-0.1,0.1-0.2,0c0,0.1,0.1,0.1,0.1,0.2s0,0.1-0.1,0.2L84.2,74l0,0c0,0.1,0,0.1,0,0.2l0,0L83.8,74v-0.1v-0.1l0.1-0.1
					c0-0.1,0.1-0.2,0-0.2l-0.1-0.1l-0.3-0.1l-0.3,0.5L83,73.6L83,73.6z M84.7,74.5l0.8-1.4l1,0.6l-0.1,0.2l-0.7-0.4l-0.2,0.3
					l0.7,0.4L86,74.4L85.4,74l-0.2,0.4l0.7,0.4l-0.1,0.3L84.7,74.5L84.7,74.5z M86.5,75l0.3,0.2c0,0.1,0,0.2,0,0.2
					c0,0.1,0.1,0.1,0.2,0.2c0.1,0,0.1,0.1,0.2,0.1s0.1,0,0.1-0.1s0-0.2-0.2-0.4l0,0l0,0c-0.1-0.1-0.2-0.2-0.2-0.3c0-0.1,0-0.1,0-0.2
					s0-0.1,0.1-0.2s0.2-0.2,0.3-0.2c0.1,0,0.3,0,0.4,0.1c0.2,0.1,0.3,0.2,0.3,0.3c0,0.1,0,0.3,0,0.4l-0.3-0.2c0-0.1,0-0.1,0-0.2
					s-0.1-0.1-0.2-0.2c-0.1,0-0.1-0.1-0.2-0.1s-0.1,0-0.1,0.1s0,0.2,0.1,0.3l0.1,0.1c0.1,0.1,0.1,0.1,0.2,0.2l0.1,0.1
					c0,0.1,0.1,0.1,0.1,0.2s0,0.1-0.1,0.2s-0.2,0.2-0.3,0.2c-0.1,0-0.3,0-0.5-0.1s-0.3-0.2-0.3-0.4C86.4,75.3,86.4,75.1,86.5,75
					L86.5,75z M88.1,76l0.3,0.2c0,0.1,0,0.1,0,0.2s0.1,0.1,0.2,0.2s0.1,0.1,0.2,0.1s0.1,0,0.1-0.1c0.1-0.1,0-0.2-0.2-0.4l0,0l0,0
					c-0.1-0.1-0.2-0.2-0.2-0.3c0-0.1,0-0.1,0-0.2s0-0.1,0.1-0.2s0.2-0.2,0.3-0.2c0.1,0,0.3,0,0.4,0.1c0.2,0.1,0.2,0.2,0.3,0.3
					c0,0.1,0,0.3-0.1,0.4L89.2,76c0-0.1,0-0.1,0-0.2s-0.1-0.1-0.2-0.2c-0.1,0-0.1-0.1-0.2-0.1s-0.1,0-0.1,0.1s0,0.2,0.1,0.3l0.1,0.1
					c0.1,0.1,0.1,0.2,0.2,0.2l0.1,0.1c0,0.1,0,0.1,0,0.2s0,0.1-0.1,0.2s-0.2,0.2-0.3,0.2c-0.1,0-0.3,0-0.5-0.1S88,76.6,88,76.4
					C88,76.3,88.1,76.1,88.1,76L88.1,76z M90.1,77.1C90,77.2,90,77.3,90,77.4s0.1,0.2,0.2,0.3s0.2,0.1,0.3,0.1
					c0.1,0,0.2-0.1,0.3-0.2c0.1-0.1,0.2-0.3,0.1-0.4c0-0.1-0.1-0.2-0.2-0.3c-0.1-0.1-0.2-0.1-0.3-0.1C90.3,76.8,90.2,76.9,90.1,77.1
					L90.1,77.1z M89.9,76.9c0.2-0.2,0.3-0.3,0.5-0.4c0.2,0,0.4,0,0.6,0.2c0.2,0.1,0.3,0.3,0.3,0.5s0,0.4-0.2,0.6s-0.3,0.3-0.5,0.4
					c-0.2,0-0.4,0-0.6-0.2s-0.3-0.3-0.3-0.5C89.7,77.3,89.7,77.1,89.9,76.9L89.9,76.9z"/>
			</g>
		</g>
	</g>
</g>
<g id="cro" display="none">
	<circle display="inline" fill="none" stroke="#FFFFFF" stroke-miterlimit="10" cx="75" cy="75" r="54.5"/>
	<circle display="inline" fill="#066BB3" cx="75" cy="75" r="50.5"/>
	<path display="inline" fill="#E0091C" d="M125.5,75h-101c0-27.9,22.6-50.5,50.5-50.5S125.5,47.1,125.5,75z"/>
	<g display="inline">
		<g>
			<defs>
				<circle id="SVGID_3_" cx="75" cy="75" r="50.5"/>
			</defs>
			<clipPath id="SVGID_4_">
				<use xlink:href="#SVGID_3_"  overflow="visible"/>
			</clipPath>
			<g clip-path="url(#SVGID_4_)">
				<rect x="24.5" y="63.3" fill="#F2F2F2" width="101" height="23.4"/>
				<rect x="24.5" y="86.6" fill="#056CB3" width="101" height="22.6"/>
				<rect x="24.5" y="40.4" fill="#E1081B" width="101" height="22.9"/>
				<g>
					<g>
						<polygon fill="#2676B7" points="89.9,52.5 84.7,54.2 83.3,61.3 86.2,62.8 87.9,62.7 91.2,57.6 						"/>
						<polygon points="82.5,49.5 78.1,52.4 77.7,59.1 83.4,60.3 85.7,53.7 						"/>
						<polygon fill="#2676B7" points="75.3,49.2 71.8,52.7 72.4,59.3 77.7,59.4 78.9,52.7 						"/>
						<polygon stroke="#000000" stroke-width="0.2" points="68.1,49.8 64.7,54.1 67.1,60.7 72.8,59.4 72.7,52.3 						"/>
						<polygon fill="#2676B7" points="62.7,62.6 59,56.5 61.3,52.1 65.7,53.8 67.2,60.6 						"/>
					</g>
					<g>
						<rect x="72.7" y="80" fill="#FFFFFF" width="5.3" height="5.6"/>
						<polyline fill="#FFFFFF" points="88.5,80 83.3,80 83.3,85.6 86.7,85.6 						"/>
						<polygon fill="#FFFFFF" points="70.6,91.4 72.8,92 72.7,85.6 67.5,85.6 67.4,89.7 						"/>
						<polygon fill="#FFFFFF" points="83.3,89.8 83.3,85.6 78,85.6 78,92 80.3,91.4 						"/>
						<rect x="67.5" y="74.5" fill="#FFFFFF" width="5.3" height="5.6"/>
						<rect x="78" y="74.5" fill="#FFFFFF" width="5.3" height="5.6"/>
						<rect x="62.2" y="68.9" fill="#FFFFFF" width="5.3" height="5.6"/>
						<rect x="72.7" y="68.9" fill="#FFFFFF" width="5.3" height="5.6"/>
						<rect x="83.3" y="68.9" fill="#FFFFFF" width="5.3" height="5.6"/>
						<rect x="67.5" y="63.3" fill="#FFFFFF" width="5.3" height="5.6"/>
						<rect x="78" y="63.3" fill="#FFFFFF" width="5.3" height="5.6"/>
						<polyline fill="#FFFFFF" points="62.2,80 62.7,83.7 63.4,85.1 63.8,85.6 67.5,85.6 67.5,80 62.2,80 						"/>
					</g>
					<g>
						<rect x="72.7" y="80" fill="#FFFFFF" width="5.3" height="5.6"/>
						<polyline fill="#FFFFFF" points="88.5,80 83.3,80 83.3,85.6 86.7,85.6 						"/>
						<polygon fill="#FFFFFF" points="70.6,91.4 72.8,92 72.7,85.6 67.5,85.6 67.4,89.7 						"/>
						<path fill="#FFFFFF" d="M83.3,89.8v-4.2H78V92c0,0,1.7-0.5,2.3-0.6C82.2,90.9,83.3,89.8,83.3,89.8z"/>
						<rect x="67.5" y="74.5" fill="#FFFFFF" width="5.3" height="5.6"/>
						<rect x="78" y="74.5" fill="#FFFFFF" width="5.3" height="5.6"/>
						<rect x="62.2" y="68.9" fill="#FFFFFF" width="5.3" height="5.6"/>
						<rect x="72.7" y="68.9" fill="#FFFFFF" width="5.3" height="5.6"/>
						<rect x="83.3" y="68.9" fill="#FFFFFF" width="5.3" height="5.6"/>
						<rect x="67.5" y="63.3" fill="#FFFFFF" width="5.3" height="5.6"/>
						<rect x="78" y="63.3" fill="#FFFFFF" width="5.3" height="5.6"/>
						<polyline fill="#FFFFFF" points="62.2,80 62.7,83.7 63.4,85.1 63.8,85.6 67.5,85.6 67.5,80 62.2,80 						"/>
					</g>
					<g>
						<path fill="#E1081B" d="M61.9,63h27C76.4,53.4,61.9,63,61.9,63z"/>
						<path fill="#E1081B" d="M88.8,63.1L61.7,63v0.3c0,0.1,0.4,8.2,0.2,16.7c-0.1,3.2,1.1,6.1,3.3,8.4c2.6,2.6,6.5,4.2,10.5,4.2
							c5.4,0,12.1-3.2,13.2-12.2L88.8,63.1z M86.9,85.6h-3.6v4.5l1.5-1.5c-1.9,1.9-4.3,3-6.8,3.4v-6.3h-5.3v6.2
							c-1.9-0.4-3.7-1.1-5.3-2.2v-4h-3.7c-0.9-1.7-1.4-3.5-1.4-5.6h5v-5.6h-5c0-2,0-3.9-0.1-5.6h5.1v-5.4h5.3v5.4H78v-5.3h5.3v5.3
							h5.1l0.1,5.6h-5.1V80h5.2v0.3C88.2,82.4,87.6,84.1,86.9,85.6z"/>
						<rect x="67.5" y="80" fill="#E1081B" width="5.3" height="5.6"/>
						<rect x="78" y="80" fill="#E1081B" width="5.3" height="5.6"/>
						<rect x="72.7" y="74.5" fill="#E1081B" width="5.3" height="5.6"/>
						<rect x="67.5" y="68.9" fill="#E1081B" width="5.3" height="5.6"/>
						<rect x="78" y="68.9" fill="#E1081B" width="5.3" height="5.6"/>
					</g>
					<polygon points="87.9,60.4 84.6,58.7 85.1,57.8 88.4,59.5 					"/>
					<g>
						<line fill="none" stroke="#E1081B" stroke-width="1.5" x1="66.9" y1="54.4" x2="71.5" y2="53.5"/>
						<line fill="none" stroke="#E1081B" stroke-width="1.5" x1="67.5" y1="57.6" x2="72.1" y2="56.5"/>
						<line fill="none" stroke="#E1081B" stroke-width="1.5" x1="62.5" y1="60.2" x2="66" y2="58.7"/>
						<line fill="none" stroke="#E1081B" x1="85.6" y1="56.8" x2="89" y2="58.7"/>
					</g>
					<g>
						<polygon fill="#FEEB17" points="61.5,54.2 61.1,56.4 63.1,57.3 63.5,55.2 						"/>
						<polygon fill="#FEEB17" points="75.3,57.3 76.3,56.1 75.4,54.8 74.4,55.9 						"/>
						<polygon fill="#FEEB17" points="76.6,54.8 77.6,53.6 76.8,52.3 75.7,53.4 						"/>
						<polygon fill="#FEEB17" points="88,56.3 89.4,55.5 89.1,54.1 87.7,54.7 						"/>
						<polygon fill="#FEEB17" points="74.2,54.7 75.2,53.5 74.4,52.3 73.3,53.4 						"/>
						<path fill="#FEEB17" d="M79.4,54.5c0.4,1,3.6,1.8,4.3,1l-0.8,2c0,0-1.1,0.2-2.2-0.1s-1.5-1.2-1.5-1.2L79.4,54.5z"/>
						<polygon fill="#FEEB17" points="87.3,61.4 84.2,59.6 84.4,59.2 87.5,61 						"/>
					</g>
				</g>
			</g>
		</g>
	</g>
</g>
<g id="mex" display="none">
	<circle display="inline" fill="none" stroke="#FFFFFF" stroke-miterlimit="10" cx="75" cy="75" r="54.5"/>
	<circle display="inline" fill="#066BB3" cx="75" cy="75" r="50.5"/>
	<path display="inline" fill="#E0091C" d="M125.5,75h-101c0-27.9,22.6-50.5,50.5-50.5S125.5,47.1,125.5,75z"/>
	<g display="inline">
		<g>
			<defs>
				<circle id="SVGID_5_" cx="75" cy="75" r="50.5"/>
			</defs>
			<clipPath id="SVGID_6_">
				<use xlink:href="#SVGID_5_"  overflow="visible"/>
			</clipPath>
			<g clip-path="url(#SVGID_6_)">
				<rect x="58.1" y="22.2" fill="#F2F2F2" width="33.6" height="103.2"/>
				<rect x="91.7" y="22.2" fill="#E00727" width="33.6" height="103.2"/>
				<rect x="24.5" y="22.2" fill="#02763C" width="33.6" height="103.2"/>
			</g>
		</g>
	</g>
</g>
<g id="chr" display="none">
	<circle display="inline" fill="none" stroke="#FFFFFF" stroke-miterlimit="10" cx="75" cy="75" r="54.5"/>
	<circle display="inline" fill="#066BB3" cx="75" cy="75" r="50.5"/>
	<path display="inline" fill="#E0091C" d="M125.5,75h-101c0-27.9,22.6-50.5,50.5-50.5S125.5,47.1,125.5,75z"/>
	<g display="inline">
		<g>
			<defs>
				<circle id="SVGID_7_" cx="75" cy="75" r="50.5"/>
			</defs>
			<clipPath id="SVGID_8_">
				<use xlink:href="#SVGID_7_"  overflow="visible"/>
			</clipPath>
			<g clip-path="url(#SVGID_8_)">
				<rect x="58.2" y="24.5" fill="#E00727" width="33.7" height="100.9"/>
				<rect x="91.8" y="24.5" fill="#FFE148" width="33.7" height="100.9"/>
				<rect x="24.5" y="24.5" fill="#009954" width="33.7" height="100.9"/>
				<polygon fill="#FFE148" points="75,63.5 72.3,72 63.3,72 70.6,77.2 67.8,85.7 75,80.4 82.2,85.7 79.4,77.2 86.7,72 77.8,72 				
					"/>
			</g>
		</g>
	</g>
</g>
<g id="esp" display="none">
	<circle display="inline" fill="none" stroke="#FFFFFF" stroke-miterlimit="10" cx="75" cy="75" r="54.5"/>
	<circle display="inline" fill="#066BB3" cx="75" cy="75" r="50.5"/>
	<path display="inline" fill="#E0091C" d="M125.5,75h-101c0-27.9,22.6-50.5,50.5-50.5S125.5,47.1,125.5,75z"/>
	<g display="inline">
		<g>
			<defs>
				<circle id="SVGID_9_" cx="75" cy="75" r="50.5"/>
			</defs>
			<clipPath id="SVGID_10_">
				<use xlink:href="#SVGID_9_"  overflow="visible"/>
			</clipPath>
			<g clip-path="url(#SVGID_10_)">
				<rect x="2.4" y="24.5" fill="#E00727" width="144.3" height="101"/>
				<rect x="2.4" y="49.8" fill="#FEEB17" width="144.3" height="50.5"/>
			</g>
		</g>
	</g>
</g>
<g id="nl" display="none">
	<circle display="inline" fill="none" stroke="#FFFFFF" stroke-miterlimit="10" cx="75" cy="75" r="54.5"/>
	<circle display="inline" fill="#066BB3" cx="75" cy="75" r="50.5"/>
	<path display="inline" fill="#E0091C" d="M125.5,75h-101c0-27.9,22.6-50.5,50.5-50.5S125.5,47.1,125.5,75z"/>
	<g display="inline">
		<g>
			<defs>
				<circle id="SVGID_11_" cx="75" cy="75" r="50.5"/>
			</defs>
			<clipPath id="SVGID_12_">
				<use xlink:href="#SVGID_11_"  overflow="visible"/>
			</clipPath>
			<g clip-path="url(#SVGID_12_)">
				<rect x="2.9" y="24.5" fill="#E53239" width="144.3" height="33.7"/>
				<rect x="2.9" y="91.8" fill="#0663AC" width="144.3" height="33.7"/>
				<rect x="2.9" y="58.2" fill="#F2F2F2" width="144.3" height="33.7"/>
			</g>
		</g>
	</g>
</g>
<g id="chi" display="none">
	<circle display="inline" fill="none" stroke="#FFFFFF" stroke-miterlimit="10" cx="75" cy="75" r="54.5"/>
	<circle display="inline" fill="#066BB3" cx="75" cy="75" r="50.5"/>
	<path display="inline" fill="#E0091C" d="M125.5,75h-101c0-27.9,22.6-50.5,50.5-50.5S125.5,47.1,125.5,75z"/>
	<g display="inline">
		<g>
			<defs>
				<circle id="SVGID_13_" cx="75" cy="75" r="50.5"/>
			</defs>
			<clipPath id="SVGID_14_">
				<use xlink:href="#SVGID_13_"  overflow="visible"/>
			</clipPath>
			<g clip-path="url(#SVGID_14_)">
				<rect x="24.5" y="75.2" fill="#E00727" width="145" height="50.8"/>
				<rect x="24.5" y="24.5" fill="#F2F2F2" width="145" height="50.7"/>
				<rect x="24.5" y="24.5" fill="#024C92" width="50.7" height="50.7"/>
				<polygon fill="#FFFFFF" points="54.9,42.2 52.1,50.9 42.8,50.9 50.3,56.4 47.4,65.2 54.9,59.7 62.4,65.2 59.5,56.3 67,51 
					57.7,51 				"/>
			</g>
		</g>
	</g>
</g>
<g id="aus" display="none">
	<circle display="inline" fill="none" stroke="#FFFFFF" stroke-miterlimit="10" cx="75" cy="75" r="54.5"/>
	<circle display="inline" fill="#1C3A69" cx="75" cy="75" r="50.5"/>
	<path display="inline" fill="#E0091C" d="M125.5,75h-101c0-27.9,22.6-50.5,50.5-50.5S125.5,47.1,125.5,75z"/>
	<g display="inline">
		<g>
			<defs>
				<circle id="SVGID_15_" cx="75" cy="75" r="50.5"/>
			</defs>
			<clipPath id="SVGID_16_">
				<use xlink:href="#SVGID_15_"  overflow="visible"/>
			</clipPath>
			<g clip-path="url(#SVGID_16_)">
				<g>
					<rect x="23" y="23.8" fill="#1D3B6B" width="125" height="87.5"/>
					<path fill="#1D3B6B" d="M85.5,67.5"/>
				</g>
				<g>
					<polygon fill="#FFFFFF" points="23,36.6 38.2,36.6 23,28.5 23,23.8 31.7,23.8 52.9,35.1 52.9,23.8 64.9,23.8 64.9,35.1 
						86.1,23.8 94.9,23.8 94.9,28.5 79.6,36.6 94.9,36.6 94.9,49.6 79.6,49.6 94.9,57.7 94.9,62.4 86.1,62.4 64.9,51.1 64.9,62.4 
						52.9,62.4 52.9,51.1 31.7,62.4 23,62.4 23,57.7 38.2,49.6 23,49.6 					"/>
					<g>
						<polygon fill="#DB3036" points="89.2,23.8 65.2,36.7 71,36.7 94.9,23.8 						"/>
						<polygon fill="#DB3036" points="94.9,62.4 71,49.6 76.7,49.6 94.9,59.4 						"/>
						<polygon fill="#DB3036" points="47,36.7 23,23.8 23,26.8 41.2,36.7 						"/>
						<polygon fill="#DB3036" points="47,49.6 23,62.4 28.7,62.4 52.7,49.6 						"/>
						<polygon fill="#DB3036" points="23,39.3 55.5,39.3 55.5,23.8 62.5,23.8 62.5,39.3 94.9,39.3 94.9,46.9 62.5,46.9 62.5,62.4 
							55.5,62.4 55.5,46.9 23,46.9 						"/>
					</g>
				</g>
				<g>
					<polygon fill="#FFFFFF" points="51.8,84.1 59.5,81.2 55,88 62,92.2 53.8,92.9 55,101.1 49.3,95.1 43.6,101.1 44.7,92.9 
						36.5,92.2 43.5,88 39,81.2 46.7,84.1 49.3,76.3 					"/>
					<polygon fill="#FFFFFF" points="109.8,45.8 113.5,44.4 111.3,47.7 114.6,49.7 110.8,50 111.3,53.9 108.6,51 105.9,53.9 
						106.4,50 102.6,49.7 105.9,47.7 103.7,44.4 107.4,45.8 108.6,42.1 					"/>
					<polygon fill="#FFFFFF" points="109.8,104.1 113.5,102.8 111.3,106 114.6,108 110.8,108.3 111.3,112.2 108.6,109.4 
						105.9,112.2 106.4,108.3 102.6,108 105.9,106 103.7,102.8 107.4,104.1 108.6,100.4 					"/>
					<polygon fill="#FFFFFF" points="117.2,71.8 120.8,70.4 118.7,73.6 122,75.6 118.1,76 118.7,79.8 116,77 113.3,79.8 113.8,76 
						109.9,75.6 113.2,73.6 111.1,70.4 114.8,71.8 116,68.1 					"/>
					<polygon fill="#FFFFFF" points="95.2,69.5 98.9,68.1 96.7,71.4 100.1,73.4 96.2,73.7 96.7,77.6 94,74.7 91.3,77.6 91.8,73.7 
						88,73.4 91.3,71.4 89.2,68.1 92.8,69.5 94,65.8 					"/>
					<polygon fill="#FFFFFF" points="85.1,88.8 84.2,91.5 81.5,91.5 83.7,93.1 82.9,95.7 85.1,94.1 87.4,95.7 86.5,93.1 88.7,91.5 
						86,91.5 					"/>
				</g>
			</g>
		</g>
	</g>
</g>
<g id="col" display="none">
	<circle display="inline" fill="none" stroke="#FFFFFF" stroke-miterlimit="10" cx="75" cy="75" r="54.5"/>
	<circle display="inline" fill="#1C3A69" cx="75" cy="75" r="50.5"/>
	<path display="inline" fill="#E0091C" d="M125.5,75h-101c0-27.9,22.6-50.5,50.5-50.5S125.5,47.1,125.5,75z"/>
	<g display="inline">
		<g>
			<defs>
				<circle id="SVGID_17_" cx="75" cy="75" r="50.5"/>
			</defs>
			<clipPath id="SVGID_18_">
				<use xlink:href="#SVGID_17_"  overflow="visible"/>
			</clipPath>
			<g clip-path="url(#SVGID_18_)">
				<rect x="1.5" y="24.4" fill="#FFE148" width="145.2" height="50.8"/>
				<rect x="1.5" y="100.6" fill="#DB3036" width="145.2" height="25.4"/>
				<rect x="1.5" y="75.2" fill="#0278BB" width="145.2" height="25.4"/>
			</g>
		</g>
	</g>
</g>
<g id="gre" display="none">
	<circle display="inline" fill="none" stroke="#FFFFFF" stroke-miterlimit="10" cx="75" cy="75" r="54.5"/>
	<circle display="inline" fill="#1C3A69" cx="75" cy="75" r="50.5"/>
	<path display="inline" fill="#E0091C" d="M125.5,75h-101c0-27.9,22.6-50.5,50.5-50.5S125.5,47.1,125.5,75z"/>
	<g display="inline">
		<g>
			<defs>
				<circle id="SVGID_19_" cx="75" cy="75" r="50.5"/>
			</defs>
			<clipPath id="SVGID_20_">
				<use xlink:href="#SVGID_19_"  overflow="visible"/>
			</clipPath>
			<g clip-path="url(#SVGID_20_)">
				<g>
					<rect x="24.5" y="24.3" fill="#0278BB" width="144.6" height="101.2"/>
					<path fill="#0278BB" d="M96.8,75"/>
				</g>
				<path fill="#F2F2F2" d="M169.1,46.8H78V35.6h91.1V46.8z M169.1,58.1H78v11.3h91.1V58.1z M169.1,103.1H24.5v11.2h144.6V103.1z
					 M56.5,58.1H78V46.8H56.5V24.3H45.8v22.5H24.5V58h21.3v22.5H24.5v11.3h144.6V80.6H56.5V58.1z"/>
			</g>
		</g>
	</g>
</g>
<g id="civ" display="none">
	<circle display="inline" fill="none" stroke="#FFFFFF" stroke-miterlimit="10" cx="75" cy="75" r="54.5"/>
	<circle display="inline" fill="#1C3A69" cx="75" cy="75" r="50.5"/>
	<path display="inline" fill="#E0091C" d="M125.5,75h-101c0-27.9,22.6-50.5,50.5-50.5S125.5,47.1,125.5,75z"/>
	<g display="inline">
		<g>
			<defs>
				<circle id="SVGID_21_" cx="75" cy="75" r="50.5"/>
			</defs>
			<clipPath id="SVGID_22_">
				<use xlink:href="#SVGID_21_"  overflow="visible"/>
			</clipPath>
			<g clip-path="url(#SVGID_22_)">
				<rect x="99.5" y="23.9" fill="#02763C" width="48.8" height="102.4"/>
				<rect x="2" y="23.9" fill="#F5A32F" width="48.7" height="102.4"/>
				<rect x="50.7" y="23.9" fill="#F2F2F2" width="48.7" height="102.4"/>
			</g>
		</g>
	</g>
</g>
<g id="jpn" display="none">
	<circle display="inline" fill="none" stroke="#FFFFFF" stroke-miterlimit="10" cx="75" cy="75" r="54.5"/>
	<circle display="inline" fill="#F1F1F1" cx="75" cy="75" r="50.5"/>
	<g display="inline">
		<g>
			<defs>
				<circle id="SVGID_23_" cx="75" cy="75" r="50.5"/>
			</defs>
			<clipPath id="SVGID_24_">
				<use xlink:href="#SVGID_23_"  overflow="visible"/>
			</clipPath>
			<g clip-path="url(#SVGID_24_)">
				<g>
					<rect x="23.1" y="39" fill="#F2F2F2" width="103.1" height="72.2"/>
				</g>
				<g>
					<circle fill="#E1081B" cx="74.7" cy="75.1" r="24.3"/>
				</g>
			</g>
		</g>
	</g>
</g>
<g id="uru" display="none">
	<circle display="inline" fill="none" stroke="#FFFFFF" stroke-miterlimit="10" cx="75" cy="75" r="54.5"/>
	<circle display="inline" fill="#F1F1F1" cx="75" cy="75" r="50.5"/>
	<g display="inline">
		<g>
			<defs>
				<circle id="SVGID_25_" cx="75" cy="75" r="50.5"/>
			</defs>
			<clipPath id="SVGID_26_">
				<use xlink:href="#SVGID_25_"  overflow="visible"/>
			</clipPath>
			<g clip-path="url(#SVGID_26_)">
				<rect x="24.5" y="24.1" fill="#F2F2F2" width="145.5" height="101.8"/>
				<rect x="74.1" y="35.2" fill="#04529C" width="95.4" height="11.4"/>
				<rect x="74.4" y="58.1" fill="#04529C" width="95.4" height="11.4"/>
				<rect x="24.6" y="81" fill="#04529C" width="145.4" height="11.4"/>
				<rect x="25.2" y="104" fill="#04529C" width="144.5" height="11.4"/>
				<g>
					<path d="M49.3,73.1L47.4,57L35,67.5l-0.1-0.1L45,54.7l-16.2-1.3v-0.2L45,51.3L34.4,38.9l0.1-0.1l12.7,10.1l1.3-16.2h0.2
						l1.9,16.2L63,38.3l0.1,0.1L53,51.2l16.2,1.3v0.2L53,54.6L63.6,67h-0.1L50.8,56.9l-1.3,16.2L49.3,73.1L49.3,73.1z M47.6,56.6
						l1.8,15.5l1.2-15.6l12.2,9.7L52.7,54.4l15.5-1.8l-15.6-1.2l9.7-12.2l-11.8,10l-1.8-15.5l-1.2,15.6l-12.2-9.7l10.1,11.9
						l-15.5,1.8l15.6,1.2l-9.7,12.2L47.6,56.6L47.6,56.6z"/>
					<g>
						<g>
							<path fill="#FDC406" d="M55.4,58.9c3.2,1.9,7.4,0.5,7.9,0.2s3-0.6,3.7,0.6c0.7-1.5-3.2-3.1-3.8-3.2c-2.4-0.2-4.7-3-5.3-4
								c3.6-0.9,5.8-4.7,5.9-5.2c0.2-0.6,1.7-2.5,3-2.2c-0.6-1.5-4.5,0.1-4.9,0.4c-1.8,1.5-5.7,1.1-6.8,0.9c1.9-3.2,0.6-7.4,0.3-7.9
								s-0.6-3,0.6-3.7c-1.5-0.7-3.1,3.2-3.2,3.8c-0.2,2.4-3.1,4.8-4.1,5.4c-0.9-3.6-4.8-5.6-5.3-5.8c-0.6-0.2-2.5-1.7-2.2-3
								c-1.5,0.6,0.1,4.5,0.4,4.9c1.5,1.8,1.2,5.4,1,6.5c-3.2-1.9-7.3-0.8-7.8-0.5s-3,0.6-3.7-0.6c-0.7,1.5,3.2,3.1,3.8,3.2
								c2.4,0.2,4.8,3.1,5.4,4c-3.6,0.9-5.6,4.8-5.8,5.3c-0.2,0.6-1.7,2.5-3,2.2c0.6,1.5,4.5-0.1,4.9-0.4c1.8-1.5,5.5-1.2,6.6-1
								c-1.9,3.2-0.7,7.3-0.4,7.8s0.6,3-0.6,3.7c1.5,0.7,3.1-3.2,3.2-3.8c0.2-2.4,3.1-4.7,4.1-5.3c0.9,3.6,4.8,5.7,5.3,5.9
								c0.6,0.2,2.5,1.7,2.2,3c1.5-0.6-0.1-4.5-0.4-4.9c-1.5-1.8-1.2-5.7-1-6.8"/>
							<polygon fill="#FDC406" points="50.5,49.1 63,38.4 52.8,51.3 69.2,52.6 52.9,54.4 63.5,67 50.7,56.7 49.4,73.1 47.5,56.8 
								35,67.5 45.2,54.6 28.8,53.3 45.1,51.4 34.5,38.9 47.3,49.1 48.7,32.7 							"/>
							<circle fill="#FDC406" cx="49.1" cy="52.8" r="6.9"/>
							<path fill="#FDC406" d="M46.7,58.1c0.7-1.1,3.4-1.5,4.6-0.1"/>
							<path fill="#FDC406" d="M45,49.5c0.4-0.4,2.1-0.7,2.9,0.1"/>
							<path fill="#FDC406" d="M45.2,50.9c-0.7-0.1,1.5-1.1,2.2-0.4c0.8,0.7,0.5,0.1,0.5,0.1c-0.5,0.4-0.4,0.8-1.3,0.9
								C45.8,51.7,45.9,51,45.2,50.9z"/>
							<path fill="#FDC406" d="M52.7,49.5c-0.4-0.4-2.1-0.7-2.9,0.1"/>
							<path fill="#FDC406" d="M50.6,53.4c0.3,0.4,0.1,0.8-0.3,0.7c-0.4-0.1-0.8,0-0.8,0l-0.5,0l0,0c0,0-0.4-0.2-1.3-0.1
								c-0.4,0.1-0.5-0.3-0.3-0.7"/>
							<path fill="#FDC406" d="M52.7,50.9c0.7-0.1-1.5-1.1-2.2-0.4c-0.8,0.7-0.5,0.1-0.5,0.1c0.5,0.4,0.4,0.8,1.3,0.9
								C52.2,51.7,52,51,52.7,50.9z"/>
							<path fill="#FDC406" d="M49,55.2l0.7-0.4c0,0,1.3,0,1.6,0.4s0.9,0.3,0.9,0.3c-0.4,0.1-1.5,0.9-3.2,0.8
								c-1.7,0.1-2.8-0.7-3.2-0.8c0,0,0.7,0.1,0.9-0.3c0.3-0.4,1.6-0.4,1.6-0.4L49,55.2"/>
							<polyline fill="#FDC406" points="45.1,55.5 48.9,55.6 52.5,55.5 							"/>
						</g>
						<g>
							<path d="M42.3,70.8c-0.1,0-0.3,0-0.4-0.1l-0.2-0.1l0.2-0.1c1.1-0.7,0.8-3.1,0.5-3.6c-0.4-0.6-1.4-4.7,0.4-7.8
								c-1.1-0.2-4.6-0.5-6.4,1c-0.4,0.3-2.9,1.4-4.3,1c-0.4-0.1-0.6-0.3-0.8-0.6l-0.1-0.2h0.2c1.3,0.3,2.8-1.6,2.9-2.2
								c0.1-0.5,2.1-4.4,5.7-5.4c-0.7-0.9-3-3.7-5.3-3.9c-0.4,0-3.1-1.1-3.8-2.3c-0.2-0.3-0.2-0.7-0.1-1l0.1-0.2l0.1,0.2
								c0.7,1.1,3.1,0.8,3.6,0.5c0.6-0.4,4.7-1.4,7.8,0.4c0.2-1.1,0.4-4.5-1-6.3c-0.3-0.3-1.4-2.9-1-4.3c0.1-0.4,0.3-0.6,0.6-0.8
								l0.2-0.1v0.2c-0.3,1.3,1.6,2.8,2.2,2.9c0.5,0.1,4.4,2.1,5.4,5.7c1.2-0.8,3.7-3.2,3.9-5.3c0-0.4,1.1-3.1,2.3-3.8
								c0.3-0.2,0.7-0.2,1-0.1l0.2,0.1L56.1,35c-1.1,0.7-0.8,3.1-0.5,3.6s1.7,4.7-0.2,7.9c1.1,0.2,4.8,0.5,6.5-0.9
								c0.4-0.3,2.9-1.4,4.3-1c0.4,0.1,0.6,0.3,0.8,0.6l0.1,0.2h-0.2c-1.3-0.3-2.8,1.6-2.9,2.2c-0.2,0.7-2.4,4.4-5.9,5.3
								c0.7,1,2.9,3.6,5.2,3.8c0.4,0,3.1,1.1,3.8,2.3c0.2,0.3,0.2,0.7,0.1,1L67,60l-0.1-0.2c-0.7-1.1-3.1-0.8-3.6-0.5
								s-4.6,1.7-7.9-0.2c-0.2,1.3-0.4,4.7,1,6.3c0.3,0.4,1.4,2.9,1,4.3c-0.1,0.4-0.3,0.6-0.6,0.8l-0.2,0.1v-0.2
								c0.3-1.3-1.6-2.8-2.2-2.9C54,67.4,50,65.4,49,61.7c-1.1,0.8-3.7,3-3.9,5.2c0,0.4-1.1,3.1-2.3,3.8
								C42.7,70.7,42.5,70.8,42.3,70.8L42.3,70.8z M42.2,70.6c0.2,0,0.4,0,0.6-0.1c1.1-0.7,2.2-3.2,2.2-3.6c0.2-2.4,3-4.7,4.1-5.4
								l0.1-0.1v0.1c0.9,3.7,4.8,5.7,5.3,5.8c0.5,0.1,2.4,1.6,2.3,3c0.2-0.1,0.3-0.3,0.4-0.5c0.3-1.3-0.7-3.8-1-4.1
								c-1.6-1.9-1.2-5.9-1-6.9h0.2v0.1c3.1,1.9,7.3,0.5,7.8,0.2s2.8-0.6,3.7,0.5c0-0.2,0-0.4-0.1-0.6c-0.7-1.1-3.2-2.2-3.6-2.2
								c-2.4-0.2-4.7-3-5.4-4l-0.1-0.1h0.1c3.5-0.8,5.7-4.5,5.9-5.2c0.1-0.5,1.6-2.4,3-2.3c-0.1-0.2-0.3-0.3-0.6-0.4
								c-1.3-0.3-3.8,0.7-4.1,1c-1.9,1.5-5.7,1.2-6.8,0.9h-0.1l0.1-0.1c1.9-3.2,0.5-7.4,0.3-7.8c-0.3-0.5-0.6-2.9,0.5-3.7
								c-0.2,0-0.4,0-0.6,0.1C54,35.7,53,38.3,53,38.7c-0.3,2.5-3.3,5-4.1,5.5l-0.1,0.1v-0.1c-0.9-3.6-4.8-5.6-5.3-5.7
								c-0.5-0.1-2.4-1.6-2.3-3c-0.2,0.1-0.3,0.3-0.4,0.5c-0.3,1.3,0.7,3.8,1,4.1c1.6,1.9,1.2,5.7,1,6.6v0.1l-0.1-0.1
								c-3-1.8-7.1-0.8-7.7-0.5c-0.5,0.3-2.8,0.6-3.7-0.5c0,0.2,0,0.4,0.1,0.6c0.7,1.1,3.2,2.2,3.6,2.2c2.5,0.3,5,3.3,5.5,4.1
								l0.1,0.1h-0.1c-3.6,0.9-5.6,4.8-5.7,5.3c-0.1,0.5-1.6,2.4-3,2.3c0.1,0.2,0.3,0.3,0.5,0.4c1.3,0.3,3.8-0.7,4.1-1
								c1.9-1.6,5.7-1.2,6.7-1h0.1l-0.1,0.1c-2,3.2-0.7,7.4-0.4,7.7C42.9,67.3,43.3,69.7,42.2,70.6L42.2,70.6z"/>
							<path d="M49.1,59.9L49.1,59.9c-0.9,0-1.8-0.2-2.6-0.5c-1.8-0.7-3.1-2-3.9-3.7c-0.8-1.7-0.8-3.6-0.1-5.4
								c1.1-2.7,3.6-4.5,6.6-4.5c0.9,0,1.8,0.2,2.6,0.5c1.8,0.7,3.1,2,3.9,3.7c0.8,1.7,0.8,3.6,0.1,5.4C54.6,58.1,52,59.9,49.1,59.9
								L49.1,59.9z M49.1,46.1c-2.8,0-5.3,1.7-6.3,4.3c-0.7,1.7-0.6,3.5,0.1,5.2c0.7,1.7,2,2.9,3.7,3.6c0.8,0.3,1.6,0.5,2.5,0.5
								c2.8,0,5.3-1.7,6.3-4.3c0.7-1.7,0.6-3.5-0.1-5.2c-0.7-1.7-2-2.9-3.7-3.6C50.8,46.2,49.9,46.1,49.1,46.1L49.1,46.1z"/>
							<path d="M46.8,58.2L46.6,58c0.3-0.5,1.2-0.9,2.2-1c1.1-0.1,2.1,0.2,2.7,0.9l-0.2,0.2c-0.5-0.6-1.4-0.9-2.5-0.8
								C47.9,57.4,47.1,57.7,46.8,58.2L46.8,58.2z"/>
							<path d="M47.8,49.8c-0.7-0.7-2.4-0.5-2.7-0.1l-0.2-0.2c0.5-0.5,2.3-0.7,3.1,0.1L47.8,49.8L47.8,49.8z"/>
							<path d="M46.5,51.7c-0.4,0-0.6-0.2-0.8-0.4c-0.1-0.1-0.2-0.3-0.5-0.3s-0.3-0.2-0.3-0.3c0-0.3,1-0.7,1.7-0.7
								c0.4,0,0.7,0.1,0.9,0.3c0.1,0.1,0.2,0.2,0.3,0.2c0,0,0.1,0,0.1-0.1l0.1-0.1l0.1,0.1c0,0.1,0.1,0.2,0,0.3v0.1H48h-0.1
								c-0.1,0.1-0.1,0.1-0.1,0.2c-0.2,0.3-0.4,0.5-1,0.6C46.6,51.7,46.5,51.7,46.5,51.7L46.5,51.7z M45.3,50.7
								c0.3,0.1,0.5,0.2,0.6,0.4c0.2,0.2,0.3,0.3,0.8,0.3c0.6-0.1,0.7-0.2,0.8-0.5l0.1-0.1l0,0l0,0c-0.1,0-0.1-0.1-0.2-0.2
								c-0.2-0.1-0.4-0.2-0.7-0.2C46.1,50.4,45.5,50.6,45.3,50.7L45.3,50.7z"/>
							<circle cx="46.4" cy="50.9" r="0.4"/>
							<path d="M46.4,51.4c-0.3,0-0.5-0.2-0.5-0.5s0.2-0.5,0.5-0.5s0.5,0.2,0.5,0.5C46.9,51.1,46.7,51.4,46.4,51.4L46.4,51.4z
								 M46.4,50.6c-0.1,0-0.2,0.1-0.2,0.2c0,0.1,0.1,0.2,0.2,0.2c0.1,0,0.2-0.1,0.2-0.2C46.7,50.7,46.6,50.6,46.4,50.6L46.4,50.6z"
								/>
							<path d="M49.9,49.8l-0.2-0.2c0.8-0.8,2.6-0.6,3.1-0.1l-0.2,0.2C52.2,49.3,50.6,49,49.9,49.8L49.9,49.8z"/>
							<path d="M48.9,54.2L48.9,54.2c0,0-0.4-0.2-1.3-0.1c-0.3,0-0.4-0.1-0.5-0.2c-0.1-0.2-0.1-0.4,0.1-0.7l0.2,0.2
								c-0.1,0.2-0.1,0.3-0.1,0.4c0,0,0.1,0.1,0.2,0.1c0.8-0.1,1.2,0,1.4,0.1l0.5-0.1c0,0,0.5-0.1,0.9,0c0.1,0,0.1,0,0.2,0
								c0.1-0.1,0-0.2-0.1-0.4l0.2-0.2c0.2,0.3,0.2,0.6,0.1,0.8c-0.1,0.1-0.3,0.2-0.5,0.1c-0.4-0.1-0.8,0-0.8,0L48.9,54.2L48.9,54.2
								z"/>
							<path d="M51.5,51.7L51.5,51.7c-0.1,0-0.2,0-0.2,0c-0.7-0.1-0.8-0.3-1-0.6c0-0.1-0.1-0.1-0.1-0.2h-0.1H50l-0.1-0.1
								c-0.1-0.1,0-0.2,0-0.3l0.1-0.1l0.1,0.1c0,0,0.1,0,0.1,0.1c0.1,0,0.2-0.1,0.3-0.2c0.2-0.2,0.5-0.3,0.9-0.3
								c0.7,0,1.7,0.3,1.7,0.7c0,0.1,0,0.2-0.3,0.3c-0.2,0-0.3,0.2-0.5,0.3C52.1,51.5,51.9,51.7,51.5,51.7L51.5,51.7z M50.3,50.8
								L50.3,50.8c0.3,0.3,0.4,0.5,0.9,0.6s0.6-0.1,0.8-0.3c0.1-0.1,0.3-0.3,0.6-0.4c-0.2-0.1-0.8-0.4-1.4-0.4
								c-0.3,0-0.6,0.1-0.7,0.2C50.4,50.7,50.4,50.7,50.3,50.8L50.3,50.8L50.3,50.8L50.3,50.8z"/>
							<circle cx="51.5" cy="50.9" r="0.4"/>
							<path d="M51.5,51.4c-0.3,0-0.5-0.2-0.5-0.5s0.2-0.5,0.5-0.5s0.5,0.2,0.5,0.5C52,51.1,51.8,51.4,51.5,51.4L51.5,51.4z
								 M51.5,50.6c-0.1,0-0.2,0.1-0.2,0.2c0,0.1,0.1,0.2,0.2,0.2c0.1,0,0.2-0.1,0.2-0.2C51.7,50.7,51.6,50.6,51.5,50.6L51.5,50.6z"
								/>
							<path d="M49.3,56.4c-0.1,0-0.3,0-0.4,0c-1.4,0.1-2.4-0.4-2.9-0.7c-0.1-0.1-0.2-0.1-0.3-0.1l0.1-0.3c0,0,0.6,0.1,0.8-0.2
								c0.3-0.4,1.5-0.5,1.7-0.5h0.1L49,55l0.7-0.4c0.2,0,1.4,0,1.7,0.5c0.2,0.3,0.8,0.2,0.8,0.2l0.1,0.3c-0.1,0-0.2,0.1-0.3,0.1
								C51.4,56,50.5,56.4,49.3,56.4L49.3,56.4z M49,56.1c1.2,0.1,2.1-0.3,2.6-0.5c-0.2,0-0.3-0.1-0.5-0.3C51,55.1,50.2,55,49.7,55
								l-0.6,0.4L49,55.2l-0.1,0.2L48.2,55c-0.5,0-1.3,0.1-1.4,0.3c-0.1,0.2-0.3,0.3-0.5,0.3C46.9,55.9,47.8,56.2,49,56.1L49,56.1z"
								/>
							<polygon points="48.9,55.8 45.1,55.6 45.1,55.3 48.9,55.5 52.5,55.3 52.5,55.6 							"/>
						</g>
					</g>
				</g>
			</g>
		</g>
	</g>
</g>
<g id="crc" display="none">
	<circle display="inline" fill="none" stroke="#FFFFFF" stroke-miterlimit="10" cx="75" cy="75" r="54.5"/>
	<circle display="inline" fill="#F1F1F1" cx="75" cy="75" r="50.5"/>
	<g display="inline">
		<g>
			<defs>
				<circle id="SVGID_27_" cx="75" cy="75" r="50.5"/>
			</defs>
			<clipPath id="SVGID_28_">
				<use xlink:href="#SVGID_27_"  overflow="visible"/>
			</clipPath>
			<g clip-path="url(#SVGID_28_)">
				<rect x="2.8" y="24.5" fill="#243770" width="144.3" height="101"/>
				<rect x="2.8" y="41.1" fill="#F2F2F2" width="144.3" height="67.8"/>
				<rect x="2.8" y="57.9" fill="#CF1328" width="144.3" height="34.2"/>
			</g>
		</g>
	</g>
</g>
<g id="eng" display="none">
	<circle display="inline" fill="none" stroke="#FFFFFF" stroke-miterlimit="10" cx="75" cy="75" r="54.5"/>
	<circle display="inline" fill="#F1F1F1" cx="75" cy="75" r="50.5"/>
	<g display="inline">
		<g>
			<defs>
				<circle id="SVGID_29_" cx="75" cy="75" r="50.5"/>
			</defs>
			<clipPath id="SVGID_30_">
				<use xlink:href="#SVGID_29_"  overflow="visible"/>
			</clipPath>
			<g clip-path="url(#SVGID_30_)">
				<g>
					<rect x="24.5" y="39.7" fill="#F2F2F2" width="101.1" height="70.8"/>
					<path fill="#FFFFFF" d="M75.1,75.1"/>
				</g>
				<polygon fill="#DB3036" points="81.8,19.7 81.8,68 125.6,68 125.6,82.2 81.8,82.2 81.8,140.5 68.3,140.5 68.3,82.2 24.5,82.2 
					24.5,68 68.3,68 68.3,19.7 				"/>
			</g>
		</g>
	</g>
</g>
<g id="ita" display="none">
	<circle display="inline" fill="none" stroke="#FFFFFF" stroke-miterlimit="10" cx="75" cy="75" r="54.5"/>
	<circle display="inline" fill="#F1F1F1" cx="75" cy="75" r="50.5"/>
	<g display="inline">
		<g>
			<defs>
				<circle id="SVGID_31_" cx="75" cy="75" r="50.5"/>
			</defs>
			<clipPath id="SVGID_32_">
				<use xlink:href="#SVGID_31_"  overflow="visible"/>
			</clipPath>
			<g id="italien" clip-path="url(#SVGID_32_)">
				<g>
					<g>
						<rect x="92.1" y="23.5" fill="#D02C37" width="33.8" height="102.8"/>
						<path fill="#D02C37" d="M109,74.9"/>
					</g>
					<g>
						<rect x="58.3" y="23.5" fill="#F2F2F2" width="33.8" height="102.8"/>
						<path fill="#FFFFFD" d="M75.2,74.9"/>
					</g>
					<g>
						<rect x="24.5" y="23.5" fill="#019447" width="33.8" height="102.8"/>
						<path fill="#019447" d="M41.4,74.9"/>
					</g>
				</g>
			</g>
		</g>
	</g>
</g>
<g id="sui" display="none">
	<circle display="inline" fill="none" stroke="#FFFFFF" stroke-miterlimit="10" cx="75" cy="75" r="54.5"/>
	<circle display="inline" fill="#E0091C" cx="75" cy="75" r="50.5"/>
	<g display="inline">
		<g>
			<defs>
				<circle id="SVGID_33_" cx="75" cy="75" r="50.5"/>
			</defs>
			<clipPath id="SVGID_34_">
				<use xlink:href="#SVGID_33_"  overflow="visible"/>
			</clipPath>
			<g clip-path="url(#SVGID_34_)">
				<rect x="24.1" y="40.5" fill="#E1081B" width="101.8" height="71.2"/>
				<polygon fill="#FFFFFF" points="100.7,66.5 84.7,66.5 84.7,50.4 65.3,50.4 65.3,66.5 49.3,66.5 49.3,85.8 65.3,85.8 65.3,101.8 
					84.7,101.8 84.7,85.8 100.7,85.8 				"/>
			</g>
		</g>
	</g>
</g>
<g id="ecu" display="none">
	<circle display="inline" fill="none" stroke="#FFFFFF" stroke-miterlimit="10" cx="75" cy="75" r="54.5"/>
	<circle display="inline" fill="#E0091C" cx="75" cy="75" r="50.5"/>
	<g display="inline">
		<g>
			<defs>
				<circle id="SVGID_35_" cx="75" cy="75" r="50.5"/>
			</defs>
			<clipPath id="SVGID_36_">
				<use xlink:href="#SVGID_35_"  overflow="visible"/>
			</clipPath>
			<g clip-path="url(#SVGID_36_)">
				<rect x="1.9" y="100.6" fill="#E52527" width="146.8" height="25.7"/>
				<rect x="1.9" y="74.9" fill="#15509F" width="146.8" height="25.7"/>
				<rect x="1.9" y="23.5" fill="#FFDF07" width="146.8" height="51.4"/>
			</g>
		</g>
	</g>
</g>
<g id="fra" display="none">
	<circle display="inline" fill="none" stroke="#FFFFFF" stroke-miterlimit="10" cx="75" cy="75" r="54.5"/>
	<circle display="inline" fill="#E0091C" cx="75" cy="75" r="50.5"/>
	<g display="inline">
		<g>
			<defs>
				<circle id="SVGID_37_" cx="75" cy="75" r="50.5"/>
			</defs>
			<clipPath id="SVGID_38_">
				<use xlink:href="#SVGID_37_"  overflow="visible"/>
			</clipPath>
			<g id="frankreich" clip-path="url(#SVGID_38_)">
				<rect x="23.9" y="23.2" fill="#26377F" width="34" height="103"/>
				<rect x="57.9" y="23.2" fill="#F2F2F2" width="34" height="103"/>
				<rect x="91.9" y="23.2" fill="#E1081B" width="34" height="103"/>
			</g>
		</g>
	</g>
</g>
<g id="hon" display="none">
	<circle display="inline" fill="none" stroke="#FFFFFF" stroke-miterlimit="10" cx="75" cy="75" r="54.5"/>
	<circle display="inline" fill="#E0091C" cx="75" cy="75" r="50.5"/>
	<g display="inline">
		<g>
			<defs>
				<circle id="SVGID_39_" cx="75" cy="75" r="50.5"/>
			</defs>
			<clipPath id="SVGID_40_">
				<use xlink:href="#SVGID_39_"  overflow="visible"/>
			</clipPath>
			<g clip-path="url(#SVGID_40_)">
				<rect x="1.7" y="58.5" fill="#F2F2F2" width="145.7" height="34"/>
				<g>
					<polygon fill="#0E4584" points="74.6,69.6 73.3,73.7 69,73.7 72.5,76.2 71.1,80.3 74.6,77.7 78,80.3 76.7,76.2 80.2,73.7 
						75.9,73.7 					"/>
					<polygon fill="#0E4584" points="88.7,60.9 87.4,65 83.1,65 86.6,67.5 85.3,71.6 88.7,69 92.2,71.6 90.9,67.5 94.3,65 90,65 
											"/>
					<polygon fill="#0E4584" points="88.7,78.3 90,82.4 94.3,82.4 90.8,84.9 92.2,89 88.7,86.4 85.3,89 86.6,84.9 83.1,82.4 
						87.4,82.4 					"/>
					<polygon fill="#0E4584" points="60.4,60.9 61.7,65 66,65 62.5,67.5 63.8,71.6 60.4,69 56.9,71.6 58.3,67.5 54.8,65 59.1,65 
											"/>
					<polygon fill="#0E4584" points="60.4,78.3 59.1,82.4 54.8,82.4 58.3,84.9 56.9,89 60.4,86.4 63.8,89 62.5,84.9 66,82.4 
						61.7,82.4 					"/>
				</g>
				<g>
					<rect x="1.7" y="92.5" fill="#0E4584" width="145.7" height="34"/>
					<rect x="1.7" y="24.5" fill="#0E4584" width="145.7" height="34"/>
				</g>
			</g>
		</g>
	</g>
</g>
<g id="arg" display="none">
	<circle display="inline" fill="none" stroke="#FFFFFF" stroke-miterlimit="10" cx="75" cy="75" r="54.5"/>
	<circle display="inline" fill="#E0091C" cx="75" cy="75" r="50.5"/>
	<g display="inline">
		<g>
			<defs>
				<circle id="SVGID_41_" cx="75" cy="75" r="50.5"/>
			</defs>
			<clipPath id="SVGID_42_">
				<use xlink:href="#SVGID_41_"  overflow="visible"/>
			</clipPath>
			<g clip-path="url(#SVGID_42_)">
				<g>
					<rect x="1.9" y="23.4" fill="#40A3D7" width="148" height="34.5"/>
					<path fill="#E1081B" d="M75.9,40.6"/>
				</g>
				<g>
					<rect x="1.9" y="57.9" fill="#F2F2F2" width="148" height="34.5"/>
					<path fill="#FFFFFF" d="M75.9,75.2"/>
				</g>
				<g>
					<rect x="1.9" y="92.5" fill="#40A3D7" width="148" height="34.5"/>
					<path fill="#E1081B" d="M75.9,109.7"/>
				</g>
				<rect x="1.9" y="23.4" fill="none" width="148" height="103.6"/>
				<path fill="none" d="M75.9,75.2"/>
			</g>
		</g>
	</g>
</g>
<g id="bih" display="none">
	<circle display="inline" fill="none" stroke="#FFFFFF" stroke-miterlimit="10" cx="75" cy="75" r="54.5"/>
	<circle display="inline" fill="#E0091C" cx="75" cy="75" r="50.5"/>
	<g display="inline">
		<g>
			<defs>
				<circle id="SVGID_43_" cx="75" cy="75" r="50.5"/>
			</defs>
			<clipPath id="SVGID_44_">
				<use xlink:href="#SVGID_43_"  overflow="visible"/>
			</clipPath>
			<g clip-path="url(#SVGID_44_)">
				<rect x="-17.6" y="23.8" fill="#24397A" width="146.8" height="102.8"/>
				<polygon fill="#FDCB1E" points="5.3,23.8 108.1,126.5 108.1,23.8 				"/>
				<g>
					<polygon fill="#FFFFFF" points="66.8,96.7 64.2,90.1 61.6,96.7 55.1,96.7 60.3,101 58.5,107.4 64.2,103.7 69.8,107.4 68,101 
						73.3,96.7 					"/>
					<polygon fill="#FFFFFF" points="79.6,109.5 77,102.9 74.4,109.5 67.9,109.5 73.2,113.8 71.4,120.2 77,116.5 82.6,120.2 
						80.8,113.8 86.1,109.5 					"/>
					<polygon fill="#FFFFFF" points="53.9,83.8 51.3,77.2 48.7,83.8 42.2,83.8 47.5,88.2 45.7,94.5 51.3,90.8 56.9,94.5 55.2,88.2 
						60.4,83.8 					"/>
					<polygon fill="#FFFFFF" points="15.6,45.5 13,38.9 10.4,45.5 3.9,45.5 9.2,49.8 7.4,56.2 13,52.5 18.6,56.2 16.9,49.8 
						22.1,45.5 					"/>
					<polygon fill="#FFFFFF" points="2.9,32.8 0.3,26.2 -2.3,32.8 -8.8,32.8 -3.6,37.1 -5.3,43.5 0.3,39.8 5.9,43.5 4.1,37.1 
						9.4,32.8 					"/>
					<polygon fill="#FFFFFF" points="-8.6,24.4 -7.8,23.8 -17.1,23.8 -16.3,24.4 -17.6,29.2 -17.6,30.5 -12.4,27.1 -6.8,30.8 					
						"/>
					<polygon fill="#FFFFFF" points="41.1,71 38.5,64.4 35.9,71 29.4,71 34.6,75.3 32.8,81.7 38.5,78 44.1,81.7 42.3,75.3 47.6,71 
											"/>
				</g>
			</g>
		</g>
	</g>
</g>
<g id="irn" display="none">
	<circle display="inline" fill="none" stroke="#FFFFFF" stroke-miterlimit="10" cx="75" cy="75" r="54.5"/>
	<circle display="inline" fill="#E0091C" cx="75" cy="75" r="50.5"/>
	<g display="inline">
		<g>
			<defs>
				<circle id="SVGID_45_" cx="75" cy="75" r="50.5"/>
			</defs>
			<clipPath id="SVGID_46_">
				<use xlink:href="#SVGID_45_"  overflow="visible"/>
			</clipPath>
			<g clip-path="url(#SVGID_46_)">
				<g>
					<rect x="2.1" y="23.8" fill="#F2F2F2" width="146.6" height="102.6"/>
					<path fill="#FFFFFF" d="M75.4,75.1"/>
				</g>
				<polygon fill="#E1081B" points="135.6,92.2 134.5,92.2 134.5,89.7 133.1,89.7 133.1,92.2 119.9,92.2 119.9,89.7 118.5,89.7 
					118.5,92.2 105.3,92.2 105.3,89.7 103.9,89.7 103.9,92.2 90.7,92.2 90.7,89.7 89.3,89.7 89.3,92.2 76.1,92.2 76.1,89.7 
					74.6,89.7 74.6,92.2 61.5,92.2 61.5,89.7 60,89.7 60,92.2 46.9,92.2 46.9,89.7 45.4,89.7 45.4,92.2 32.3,92.2 32.3,89.7 
					30.8,89.7 30.8,92.2 17.6,92.2 17.6,89.7 16.2,89.7 16.2,92.2 14.6,92.2 2.1,92.2 2.1,126.4 148.7,126.4 148.7,92.2 				"/>
				<polygon fill="#047D36" points="2.1,23.8 2.1,58 14.6,58 16.2,58 16.2,60.4 17.6,60.4 17.6,58 30.8,58 30.8,60.4 32.3,60.4 
					32.3,58 45.4,58 45.4,60.4 46.9,60.4 46.9,58 60,58 60,60.4 61.5,60.4 61.5,58 74.6,58 74.6,60.4 76.1,60.4 76.1,58 89.2,58 
					89.2,60.4 90.7,60.4 90.7,58 103.9,58 103.9,60.4 105.3,60.4 105.3,58 118.5,58 118.5,60.4 119.9,60.4 119.9,58 133.1,58 
					133.1,60.4 134.5,60.4 134.5,58 135.6,58 148.7,58 148.7,23.8 				"/>
				<path fill="#FFFFFF" d="M4.4,100.5H3.7v-4.4h5.8l1.6,3.3h3.6v-2.6h-2.4v1.3h-0.7v-2.2h3.8v4.4h-4.7L9.1,97H4.4V100.5L4.4,100.5z
					 M7.1,100.8c0.6,0,1.1-0.6,1.1-1.4S7.7,98,7.1,98S6,98.6,6,99.4C6,100.2,6.5,100.8,7.1,100.8L7.1,100.8z M7.1,98.9
					c0.2,0,0.4,0.2,0.4,0.5s-0.2,0.5-0.4,0.5c-0.2,0-0.4-0.2-0.4-0.5S6.9,98.9,7.1,98.9L7.1,98.9z M21.1,100.3v-0.9h-2.2V97h4.5
					v-0.9h-5.2v4.2L21.1,100.3L21.1,100.3z M30.7,100.3v-6.1H30v5.3h-6v-5.3h-0.7v6.1H30.7L30.7,100.3z M27.2,99.8v-5.7h-0.7v5.7
					H27.2L27.2,99.8z M22,95v-0.9H3.7V95H22L22,95z M33.6,100.5V97h4.7l1.6,3.3h4.7v-4.4h-3.8v2.2h0.7v-1.3h2.4v2.6h-3.6l-1.6-3.3
					h-5.8v4.4L33.6,100.5L33.6,100.5z M36.3,100.8c0.6,0,1.1-0.6,1.1-1.4S36.9,98,36.3,98s-1.1,0.6-1.1,1.4
					C35.1,100.2,35.7,100.8,36.3,100.8L36.3,100.8z M36.3,98.9c0.2,0,0.4,0.2,0.4,0.5s-0.2,0.5-0.4,0.5s-0.4-0.2-0.4-0.5
					C35.9,99.1,36.1,98.9,36.3,98.9L36.3,98.9z M50.2,100.3v-0.9H48V97h4.5v-0.9h-5.2v4.2L50.2,100.3L50.2,100.3z M59.8,100.3v-6.1
					h-0.7v5.3h-6v-5.3h-0.7v6.1H59.8L59.8,100.3z M56.4,99.8v-5.7h-0.7v5.7H56.4L56.4,99.8z M51.1,95v-0.9H32.8V95H51.1L51.1,95z
					 M62.7,100.5V97h4.7l1.6,3.3h4.7v-4.4h-3.8v2.2h0.7v-1.3H73v2.6h-3.6l-1.6-3.3H62v4.4L62.7,100.5L62.7,100.5z M65.4,100.8
					c0.6,0,1.1-0.6,1.1-1.4S66,98,65.4,98s-1.1,0.6-1.1,1.4C64.3,100.2,64.8,100.8,65.4,100.8L65.4,100.8z M65.4,98.9
					c0.2,0,0.4,0.2,0.4,0.5s-0.2,0.5-0.4,0.5c-0.2,0-0.4-0.2-0.4-0.5S65.2,98.9,65.4,98.9L65.4,98.9z M79.4,100.3v-0.9h-2.2V97h4.5
					v-0.9h-5.3v4.2L79.4,100.3L79.4,100.3z M89,100.3v-6.1h-0.7v5.3h-6v-5.3h-0.7v6.1H89L89,100.3z M85.5,99.8v-5.7h-0.7v5.7H85.5
					L85.5,99.8z M80.3,95v-0.9H62V95H80.3L80.3,95z M91.8,100.5V97h4.7l1.6,3.3h4.7v-4.4H99v2.2h0.7v-1.3h2.4v2.6h-3.6l-1.6-3.3
					h-5.8v4.4L91.8,100.5L91.8,100.5z M94.6,100.8c0.6,0,1.1-0.6,1.1-1.4S95.2,98,94.6,98s-1.1,0.6-1.1,1.4
					C93.4,100.2,93.9,100.8,94.6,100.8L94.6,100.8z M94.6,98.9c0.2,0,0.4,0.2,0.4,0.5s-0.2,0.5-0.4,0.5c-0.2,0-0.4-0.2-0.4-0.5
					S94.3,98.9,94.6,98.9L94.6,98.9z M108.5,100.3v-0.9h-2.2V97h4.5v-0.9h-5.2v4.2L108.5,100.3L108.5,100.3z M118.1,100.3v-6.1h-0.7
					v5.3h-6v-5.3h-0.7v6.1H118.1L118.1,100.3z M114.7,99.8v-5.7H114v5.7H114.7L114.7,99.8z M109.4,95v-0.9H91.1V95H109.4L109.4,95z
					 M121,100.5V97h4.7l1.6,3.3h4.7v-4.4h-3.8v2.2h0.7v-1.3h2.4v2.6h-3.6l-1.6-3.3h-5.8v4.4L121,100.5L121,100.5z M123.7,100.8
					c0.6,0,1.1-0.6,1.1-1.4s-0.5-1.4-1.1-1.4s-1.1,0.6-1.1,1.4C122.6,100.2,123.1,100.8,123.7,100.8L123.7,100.8z M123.7,98.9
					c0.2,0,0.4,0.2,0.4,0.5s-0.2,0.5-0.4,0.5c-0.2,0-0.4-0.2-0.4-0.5C123.3,99.1,123.5,98.9,123.7,98.9L123.7,98.9z M137.6,100.3
					v-0.9h-2.2V97h4.5v-0.9h-5.2v4.2L137.6,100.3L137.6,100.3z M147.2,100.3v-6.1h-0.7v5.3h-6v-5.3h-0.7v6.1H147.2L147.2,100.3z
					 M143.8,99.8v-5.7h-0.7v5.7H143.8L143.8,99.8z M138.5,95v-0.9h-18.3V95H138.5L138.5,95z"/>
				<path fill="#FFFFFF" d="M4.6,56.4H3.9V52h5.8l1.6,3.3h3.6v-2.6h-2.4V54h-0.7v-2.2h3.8v4.4h-4.7l-1.6-3.3H4.6V56.4L4.6,56.4z
					 M7.3,56.7c0.6,0,1.1-0.6,1.1-1.4c0-0.8-0.5-1.4-1.1-1.4s-1.1,0.6-1.1,1.4C6.2,56.1,6.7,56.7,7.3,56.7L7.3,56.7z M7.3,54.8
					c0.2,0,0.4,0.2,0.4,0.5s-0.2,0.5-0.4,0.5s-0.4-0.2-0.4-0.5C6.9,55.1,7.1,54.8,7.3,54.8L7.3,54.8z M21.3,56.2v-0.9h-2.2v-2.4h4.5
					V52h-5.2v4.2H21.3L21.3,56.2z M30.9,56.2v-6.1h-0.7v5.3h-6v-5.3h-0.7v6.1H30.9L30.9,56.2z M27.4,55.8v-5.7h-0.7v5.7H27.4
					L27.4,55.8z M22.2,50.9V50H3.9v0.9H22.2L22.2,50.9z M33.7,56.4v-3.5h4.7l1.6,3.3h4.7v-4.4H41V54h0.7v-1.3h2.4v2.6h-3.6L38.8,52
					H33v4.4H33.7L33.7,56.4z M36.5,56.7c0.6,0,1.1-0.6,1.1-1.4c0-0.8-0.5-1.4-1.1-1.4s-1.1,0.6-1.1,1.4
					C35.3,56.1,35.8,56.7,36.5,56.7L36.5,56.7z M36.5,54.8c0.2,0,0.4,0.2,0.4,0.5s-0.2,0.5-0.4,0.5s-0.4-0.2-0.4-0.5
					C36.1,55.1,36.2,54.8,36.5,54.8L36.5,54.8z M50.4,56.2v-0.9h-2.2v-2.4h4.5V52h-5.2v4.2H50.4L50.4,56.2z M60,56.2v-6.1h-0.7v5.3
					h-6v-5.3h-0.7v6.1H60L60,56.2z M56.6,55.8v-5.7h-0.7v5.7H56.6L56.6,55.8z M51.3,50.9V50H33v0.9H51.3L51.3,50.9z M62.9,56.4v-3.5
					h4.7l1.6,3.3h4.7v-4.4h-3.8V54h0.7v-1.3h2.4v2.6h-3.6L68,52h-5.8v4.4H62.9L62.9,56.4z M65.6,56.7c0.6,0,1.1-0.6,1.1-1.4
					c0-0.8-0.5-1.4-1.1-1.4s-1.1,0.6-1.1,1.4C64.5,56.1,65,56.7,65.6,56.7L65.6,56.7z M65.6,54.8c0.2,0,0.4,0.2,0.4,0.5
					s-0.2,0.5-0.4,0.5c-0.2,0-0.4-0.2-0.4-0.5C65.2,55.1,65.4,54.8,65.6,54.8L65.6,54.8z M79.5,56.2v-0.9h-2.2v-2.4h4.5V52h-5.2v4.2
					H79.5L79.5,56.2z M89.1,56.2v-6.1h-0.7v5.3h-6v-5.3h-0.7v6.1H89.1L89.1,56.2z M85.7,55.8v-5.7H85v5.7H85.7L85.7,55.8z
					 M80.4,50.9V50H62.2v0.9H80.4L80.4,50.9z M92,56.4v-3.5h4.7l1.6,3.3h4.7v-4.4h-3.8V54h0.7v-1.3h2.4v2.6h-3.6L97.1,52h-5.8v4.4
					H92L92,56.4z M94.7,56.7c0.6,0,1.1-0.6,1.1-1.4c0-0.8-0.5-1.4-1.1-1.4s-1.1,0.6-1.1,1.4C93.6,56.1,94.1,56.7,94.7,56.7
					L94.7,56.7z M94.7,54.8c0.2,0,0.4,0.2,0.4,0.5s-0.2,0.5-0.4,0.5c-0.2,0-0.4-0.2-0.4-0.5C94.3,55.1,94.5,54.8,94.7,54.8
					L94.7,54.8z M108.7,56.2v-0.9h-2.2v-2.4h4.5V52h-5.2v4.2H108.7L108.7,56.2z M118.3,56.2v-6.1h-0.7v5.3h-6v-5.3h-0.7v6.1H118.3
					L118.3,56.2z M114.8,55.8v-5.7h-0.7v5.7H114.8L114.8,55.8z M109.6,50.9V50H91.3v0.9H109.6L109.6,50.9z M121.2,56.4v-3.5h4.7
					l1.6,3.3h4.7v-4.4h-3.8V54h0.7v-1.3h2.4v2.6h-3.6l-1.6-3.3h-5.8v4.4H121.2L121.2,56.4z M123.9,56.7c0.6,0,1.1-0.6,1.1-1.4
					c0-0.8-0.5-1.4-1.1-1.4s-1.1,0.6-1.1,1.4C122.7,56.1,123.3,56.7,123.9,56.7L123.9,56.7z M123.9,54.8c0.2,0,0.4,0.2,0.4,0.5
					s-0.2,0.5-0.4,0.5c-0.2,0-0.4-0.2-0.4-0.5C123.5,55.1,123.7,54.8,123.9,54.8L123.9,54.8z M137.8,56.2v-0.9h-2.2v-2.4h4.5V52
					h-5.2v4.2H137.8L137.8,56.2z M147.4,56.2v-6.1h-0.7v5.3h-6v-5.3H140v6.1H147.4L147.4,56.2z M144,55.8v-5.7h-0.7v5.7H144
					L144,55.8z M138.7,50.9V50h-18.3v0.9H138.7L138.7,50.9z"/>
				<path fill="#E1081B" d="M79.4,64.7C79.4,64.7,79.4,64.6,79.4,64.7C79.4,64.6,79.4,64.7,79.4,64.7c-0.1,0-0.1-0.1-0.2-0.1
					C79.3,64.6,79.3,64.7,79.4,64.7c5.8,10,2.2,16-3,19.7V67.3c-0.9,0-0.9-1.8-0.9-2.9c1-0.3,2-1.4,3-3.4c-2.2,2.4-4.6,2.8-6.9,0
					c1,2.2,2.1,3.4,3.3,3.5c0,0.9,0.2,2.8-0.8,2.9v17.1c-5.3-3.7-8.9-9.7-3.1-19.7c0.1,0,0.1-0.1,0.2-0.1c-0.1,0-0.1,0-0.2,0.1l0,0
					l0,0c-15,5.1-12.1,17.1-1.9,21.1c-5.3-4.7-10.8-13.8,1.8-21c-8.7,9.6-5.1,18.2,2.5,21.5c-1,0.5-2,1-3,1.5c1.4,0,2.8-0.2,4.1-0.6
					l0.1,1.1c0.1,0.9,1.4,0.8,1.5-0.1l0.1-0.9c1.2,0.3,2.4,0.5,3.7,0.5c-1-0.4-2-0.9-3-1.5C84.5,82.9,88.2,74.4,79.4,64.7
					C92,72,86.5,81.1,81.3,85.8C91.5,81.7,94.4,69.8,79.4,64.7z"/>
			</g>
		</g>
	</g>
</g>
<g id="nga" display="none">
	<circle display="inline" fill="none" stroke="#FFFFFF" stroke-miterlimit="10" cx="75" cy="75" r="54.5"/>
	<circle display="inline" fill="#E0091C" cx="75" cy="75" r="50.5"/>
	<g display="inline">
		<g>
			<defs>
				<circle id="SVGID_47_" cx="75" cy="75" r="50.5"/>
			</defs>
			<clipPath id="SVGID_48_">
				<use xlink:href="#SVGID_47_"  overflow="visible"/>
			</clipPath>
			<g clip-path="url(#SVGID_48_)">
				<g>
					<g>
						<rect x="23.7" y="22.1" fill="#047D36" width="34.2" height="104.2"/>
					</g>
					<g>
						<rect x="58" y="22.1" fill="#F2F2F2" width="34.2" height="104.2"/>
						<path fill="#FFFFFF" d="M75.1,74.2"/>
					</g>
					<g>
						<rect x="92.2" y="22.1" fill="#047D36" width="34.2" height="104.2"/>
					</g>
				</g>
			</g>
		</g>
	</g>
</g>
<g id="ger" display="none">
	<circle display="inline" fill="none" stroke="#FFFFFF" stroke-miterlimit="10" cx="75" cy="75" r="54.5"/>
	<circle display="inline" fill="#E0091C" cx="75" cy="75" r="50.5"/>
	<g display="inline">
		<g>
			<defs>
				<circle id="SVGID_49_" cx="75" cy="75" r="50.5"/>
			</defs>
			<clipPath id="SVGID_50_">
				<use xlink:href="#SVGID_49_"  overflow="visible"/>
			</clipPath>
			<g id="deutschland" clip-path="url(#SVGID_50_)">
				<rect x="2.9" y="23.9" width="145.2" height="33.9"/>
				<rect x="2.9" y="91.6" fill="#F8B420" width="145.2" height="33.9"/>
				<rect x="2.9" y="57.7" fill="#E00727" width="145.2" height="33.9"/>
			</g>
		</g>
	</g>
</g>
<g id="por" display="none">
	<circle display="inline" fill="none" stroke="#FFFFFF" stroke-miterlimit="10" cx="75" cy="75" r="54.5"/>
	<circle display="inline" fill="#E0091C" cx="75" cy="75" r="50.5"/>
	<g display="inline">
		<g>
			<defs>
				<circle id="SVGID_51_" cx="75" cy="75" r="50.5"/>
			</defs>
			<clipPath id="SVGID_52_">
				<use xlink:href="#SVGID_51_"  overflow="visible"/>
			</clipPath>
			<g id="portugal" clip-path="url(#SVGID_52_)">
				<rect x="63.3" y="22.2" fill="#E00727" width="63.5" height="105.4"/>
				<rect x="23.6" y="24.5" fill="#2F8A36" width="39.7" height="101.8"/>
				<g>
					<g>
						<g>
							<g>
								<g>
									<path fill="#FEEB17" d="M55.3,75.3l-6.7-5.5c0.3-0.4,0.8-1,1.1-1.3l6.7,5.5L55.3,75.3z"/>
									<path d="M55.3,75.4L55.3,75.4l-6.7-5.5c0.3-0.4,0.8-1,1.1-1.4l6.7,5.5L55.3,75.4L55.3,75.4z M49.6,68.5
										c-0.3,0.3-0.8,0.9-1.1,1.3l6.7,5.4l1.1-1.3L49.6,68.5L49.6,68.5z"/>
								</g>
								<g>
									<path fill="#FEEB17" d="M55.5,75.1c0,0-6.6-5.4-6.7-5.5l-0.5,0.6c0.2,0.2,6.7,5.5,6.7,5.5L55.5,75.1z"/>
									<path d="M55,75.7L55,75.7c0,0-6.5-5.3-6.7-5.5l0.5-0.6c0.2,0.1,6.7,5.5,6.7,5.5L55,75.7L55,75.7z M48.8,69.6l-0.4,0.6
										c0.2,0.2,6.3,5.1,6.7,5.4l0.4-0.6l0,0C55.4,75,48.9,69.7,48.8,69.6L48.8,69.6z"/>
								</g>
								<g>
									<path fill="#FEEB17" d="M56.6,73.6c0,0-6.6-5.4-6.7-5.5l-0.5,0.6c0.2,0.2,6.7,5.5,6.7,5.5L56.6,73.6z"/>
									<path d="M56.2,74.2L56.2,74.2c0,0-6.5-5.3-6.7-5.5l0.5-0.6c0.2,0.1,6.7,5.5,6.7,5.5L56.2,74.2L56.2,74.2z M49.9,68.2
										l-0.4,0.6c0.2,0.2,6.3,5.1,6.7,5.4l0.4-0.5l0,0C56.6,73.6,50,68.3,49.9,68.2L49.9,68.2z"/>
								</g>
							</g>
							<g>
								<g>
									<path fill="#FEEB17" d="M78,69.2l-9.2,4.2c-0.2-0.4-0.5-1-0.6-1.3l9.2-4.2L78,69.2z"/>
									<path d="M68.7,73.5L68.7,73.5c-0.2-0.4-0.5-1-0.6-1.4l9.2-4.2l0.6,1.4L68.7,73.5L68.7,73.5z M77.4,67.9l-9.2,4.2
										c0.2,0.3,0.4,0.9,0.6,1.3l9.2-4.2L77.4,67.9L77.4,67.9z"/>
								</g>
								<g>
									<path fill="#FEEB17" d="M77.9,69c0,0-9.1,4.1-9.2,4.2l0.3,0.6c0.3-0.2,9.2-4.2,9.2-4.2L77.9,69z"/>
									<path d="M68.9,73.8l-0.3-0.6c0.2-0.1,9.2-4.2,9.2-4.2l0.3,0.6C78.1,69.6,69.2,73.6,68.9,73.8L68.9,73.8L68.9,73.8z
										 M77.8,69c0,0-9,4.1-9.2,4.2l0.3,0.5c0.6-0.3,9.2-4.2,9.2-4.2L77.8,69L77.8,69z"/>
								</g>
								<g>
									<path fill="#FEEB17" d="M77.2,67.5c0,0-9.1,4.1-9.2,4.2l0.3,0.6c0.3-0.1,9.2-4.2,9.2-4.2L77.2,67.5z"/>
									<path d="M68.2,72.3L68,71.7c0.2-0.1,9.2-4.2,9.2-4.2l0.3,0.6C77.5,68.1,68.6,72.2,68.2,72.3L68.2,72.3L68.2,72.3z
										 M77.2,67.6c0,0-9,4.1-9.2,4.2l0.3,0.5c0.6-0.3,9.2-4.2,9.2-4.2L77.2,67.6L77.2,67.6z"/>
								</g>
							</g>
							<g>
								<g>
									<path fill="#FEEB17" d="M79.1,77.2L69.3,80c-0.1-0.4-0.3-1.1-0.4-1.4l9.7-2.8L79.1,77.2z"/>
									<path d="M69.3,80L69.3,80c-0.1-0.4-0.3-1.1-0.4-1.4l9.8-2.8l0.4,1.4L69.3,80L69.3,80z M78.6,75.8l-9.7,2.8
										c0.1,0.3,0.3,1,0.4,1.4l9.7-2.8L78.6,75.8L78.6,75.8z"/>
								</g>
								<g>
									<path fill="#FEEB17" d="M79,76.9c0,0-9.6,2.7-9.7,2.8l0.2,0.6c0.4-0.1,9.7-2.8,9.7-2.8L79,76.9z"/>
									<path d="M69.4,80.3l-0.2-0.6c0.2-0.1,9.8-2.8,9.8-2.8l0.2,0.6L69.4,80.3L69.4,80.3z M79,76.9c0,0-9.5,2.8-9.7,2.8l0.2,0.6
										l9.7-2.8L79,76.9L79,76.9z"/>
								</g>
								<g>
									<path fill="#FEEB17" d="M78.6,75.4c0,0-9.6,2.7-9.7,2.8l0.2,0.6c0.4-0.1,9.7-2.8,9.7-2.8L78.6,75.4z"/>
									<path d="M69,78.8l-0.2-0.6c0.2-0.1,9.8-2.8,9.8-2.8l0.2,0.6C78.7,76,69.3,78.7,69,78.8L69,78.8L69,78.8z M78.5,75.4
										c0,0-9.5,2.8-9.7,2.8l0.2,0.6c0.6-0.2,9.7-2.8,9.7-2.8L78.5,75.4L78.5,75.4z"/>
								</g>
							</g>
							<g>
								<g>
									<path fill="#FEEB17" d="M56.6,81.2l-9.2-4.3c0.2-0.4,0.5-1,0.6-1.3l9.2,4.3L56.6,81.2z"/>
									<path d="M56.6,81.2l-9.2-4.3c0.2-0.4,0.4-1,0.6-1.4l9.2,4.3L56.6,81.2L56.6,81.2z M48.1,75.6c-0.1,0.3-0.4,0.9-0.6,1.3
										l9.1,4.3l0.6-1.3L48.1,75.6L48.1,75.6z"/>
								</g>
								<g>
									<path fill="#FEEB17" d="M56.8,80.9c0,0-9-4.2-9.2-4.3l-0.3,0.6c0.3,0.2,9.2,4.3,9.2,4.3L56.8,80.9z"/>
									<path d="M56.5,81.5L56.5,81.5c0,0-8.9-4.2-9.2-4.3l0.3-0.6c0.2,0.1,9.2,4.3,9.2,4.3L56.5,81.5L56.5,81.5z M47.6,76.6
										l-0.2,0.6c0.3,0.1,8.7,4.1,9.1,4.3l0.3-0.5l0,0C56.7,80.9,47.8,76.7,47.6,76.6L47.6,76.6z"/>
								</g>
								<g>
									<path fill="#FEEB17" d="M57.4,79.5c0,0-9-4.2-9.2-4.3L48,75.8c0.3,0.2,9.2,4.3,9.2,4.3L57.4,79.5z"/>
									<path d="M57.2,80.1L57.2,80.1c0,0-8.9-4.2-9.2-4.3l0.3-0.6c0.2,0.1,9.2,4.3,9.2,4.3L57.2,80.1L57.2,80.1z M48.3,75.2
										L48,75.8c0.3,0.1,8.7,4.1,9.1,4.3l0.3-0.5l0,0C57.4,79.5,48.4,75.3,48.3,75.2L48.3,75.2z"/>
								</g>
							</g>
							<g>
								<g>
									<path fill="#FEEB17" d="M75.3,85.9H51c0-0.5,0-1.4,0-1.8h24.2v1.8H75.3z"/>
									<path d="M75.3,85.9H51c-0.1-0.6-0.1-1.4,0-1.9h24.3V85.9L75.3,85.9z M75.2,84.1H51c0,0.5,0,1.3,0,1.8h24.2V84.1L75.2,84.1z
										"/>
								</g>
								<g>
									<path fill="#FEEB17" d="M75.3,85.7c0,0-23.8,0-24.2,0v0.8c0.9,0,24.2,0,24.2,0V85.7z"/>
									<path d="M75.3,86.5H51v-0.8h24.3V86.5L75.3,86.5z M75.2,85.7H51v0.8h24.2V85.7L75.2,85.7z"/>
								</g>
								<g>
									<path fill="#FEEB17" d="M75.3,83.6c0,0-23.8,0-24.2,0v0.8c0.9,0,24.2,0,24.2,0V83.6z"/>
									<path d="M75.3,84.4H51v-0.8h24.3V84.4L75.3,84.4z M75.2,83.6H51v0.8h24.2V83.6L75.2,83.6z"/>
								</g>
							</g>
						</g>
						<g>
							<g>
								<path fill="#FEEB17" d="M63.3,75.5"/>
							</g>
							<g>
								<path fill="#FEEB17" d="M63.3,75.5"/>
							</g>
							<g>
								<path fill="#FEEB17" d="M63.3,89.7c-7.9,0-14.3-6.4-14.3-14.3s6.4-14.3,14.3-14.3s14.3,6.4,14.3,14.3S71.2,89.7,63.3,89.7
									v2.4c9.2,0,16.7-7.5,16.7-16.7s-7.5-16.7-16.7-16.7s-16.7,7.5-16.7,16.7s7.5,16.7,16.7,16.7V89.7z"/>
								<path d="M63.3,92.2L63.3,92.2c-9.3,0-16.8-7.5-16.8-16.7S54,58.8,63.2,58.8s16.7,7.5,16.7,16.7C80,84.7,72.6,92.2,63.3,92.2
									L63.3,92.2L63.3,92.2z M63.3,92.2c9.2,0,16.7-7.5,16.7-16.7s-7.5-16.7-16.7-16.7s-16.7,7.5-16.7,16.7
									C46.6,84.6,54.1,92.1,63.3,92.2v-2.4l0,0c-7.8,0-14.2-6.4-14.2-14.3s6.4-14.3,14.3-14.3s14.3,6.4,14.3,14.3
									s-6.4,14.3-14.3,14.3L63.3,92.2L63.3,92.2z M63.3,61.2c-7.9,0-14.3,6.4-14.3,14.3s6.4,14.3,14.3,14.3l0,0
									c7.9,0,14.3-6.4,14.3-14.3S71.2,61.2,63.3,61.2L63.3,61.2z"/>
							</g>
						</g>
						<g>
							<g>
								<path d="M63.3,91.6c-8.9,0-16.2-7.3-16.2-16.2s7.3-16.2,16.2-16.2s16.2,7.3,16.2,16.2S72.2,91.6,63.3,91.6L63.3,91.6z
									 M63.3,59.3c-8.9,0-16.1,7.2-16.1,16.1s7.2,16.1,16.1,16.1s16.1-7.2,16.1-16.1C79.5,66.6,72.2,59.3,63.3,59.3L63.3,59.3z"/>
							</g>
							<g>
								<path fill="none" d="M63.3,75.5"/>
							</g>
						</g>
						<g>
							<g>
								<path d="M63.3,90.3c-8.2,0-14.9-6.7-14.9-14.9s6.7-14.9,14.9-14.9s14.9,6.7,14.9,14.9C78.2,83.6,71.5,90.3,63.3,90.3
									L63.3,90.3z M63.3,60.6c-8.2,0-14.8,6.6-14.8,14.8s6.6,14.8,14.8,14.8s14.8-6.6,14.8-14.8C78.1,67.3,71.5,60.6,63.3,60.6
									L63.3,60.6z"/>
							</g>
							<g>
								<path fill="none" d="M63.3,75.5"/>
							</g>
						</g>
						<g>
							<g>
								<path fill="#FEEB17" d="M62.1,67.4v-9c0.6,0,1.4-0.1,1.9,0v9.1"/>
								<path d="M64,67.5v-9.1c-0.5,0-1.4,0-1.9,0v9l0,0v-9c0.6-0.1,1.5-0.1,2,0L64,67.5L64,67.5z"/>
							</g>
							<g>
								<path fill="#FEEB17" d="M61.5,67.5c0,0,0-7.9,0-8.8c0-0.7,0.8-0.6,0.8,0c0,0.5,0,8.8,0,8.8"/>
								<path d="M61.6,67.5L61.6,67.5v-8.8c0-0.7,0.9-0.7,0.9,0v8.8v-8.8c0-0.6-0.8-0.7-0.8,0v8.8H61.6z"/>
							</g>
							<g>
								<path fill="#FEEB17" d="M63.7,67.5c0,0,0-7.9,0-8.8c0-0.7,0.8-0.6,0.8,0c0,0.5,0,8.8,0,8.8"/>
								<path d="M63.7,67.5L63.7,67.5v-8.8c0-0.7,0.9-0.7,0.9,0v8.8v-8.8c0-0.6-0.8-0.7-0.8,0L63.7,67.5L63.7,67.5z"/>
							</g>
						</g>
						<g>
							<g>
								<path fill="#FEEB17" d="M57.5,69.6c0,0-7.4-2.7-8.3-3c-0.6-0.2-0.3-1,0.3-0.8c0.5,0.2,8.2,3,8.2,3"/>
								<path d="M57.5,69.6l-8.3-3c-0.3-0.1-0.4-0.4-0.3-0.6c0.1-0.2,0.3-0.4,0.6-0.2c0.5,0.2,8.2,3,8.2,3s-7.8-2.8-8.3-3
									c-0.3-0.1-0.5,0-0.6,0.2s0,0.4,0.3,0.5L57.5,69.6L57.5,69.6L57.5,69.6z"/>
							</g>
							<g>
								<g>
									<path fill="#FEEB17" d="M57.7,69.2l-8.6-3.1c-0.5,0.7-1.2,2.1-1.5,2.7L56,72"/>
									<path d="M56,72l-8.4-3.1c0.2-0.7,1-2,1.5-2.8l8.6,3.1l0,0l-8.6-3.1c-0.5,0.7-1.2,2.1-1.5,2.7L56,72L56,72z"/>
								</g>
								<g>
									<path fill="#FEEB17" d="M56,72.3c0,0-7.4-2.7-8.3-3c-0.6-0.2-0.3-1,0.3-0.8c0.5,0.2,8.2,3,8.2,3"/>
									<path d="M56,72.3c0,0-7.4-2.7-8.3-3c-0.3-0.1-0.3-0.3-0.4-0.4c0-0.1,0-0.3,0.1-0.4s0.3-0.1,0.5-0.1l8.2,3l-8.3-3
										c-0.2-0.1-0.3,0-0.5,0.1c-0.1,0.1-0.2,0.2-0.1,0.3c0,0.1,0.1,0.3,0.3,0.3C48.5,69.6,56,72.3,56,72.3L56,72.3L56,72.3z"/>
								</g>
							</g>
						</g>
						<g>
							<g>
								<path fill="#FEEB17" d="M54.8,72.1l-8.5,2.8c0,0.6,0,1.4,0,2.1l8.8-2.9"/>
								<path d="M46.4,77c-0.1-0.7-0.1-1.5-0.1-2.1l8.5-2.8l0,0L46.3,75C46.3,75.5,46.3,76.3,46.4,77l8.8-3L46.4,77L46.4,77z"/>
							</g>
							<g>
								<path fill="#FEEB17" d="M54.9,72.4c0,0-7.5,2.5-8.4,2.8c-0.6,0.2-0.9-0.6-0.3-0.8c0.5-0.2,8.3-2.8,8.3-2.8"/>
								<path d="M46.3,75.3c-0.1,0-0.2-0.1-0.3-0.1c-0.1-0.1-0.2-0.2-0.1-0.4c0-0.2,0.2-0.3,0.4-0.4c0.5-0.2,8.3-2.8,8.3-2.8
									s-7.9,2.7-8.3,2.8c-0.2,0.1-0.3,0.2-0.3,0.3c0,0.1,0,0.3,0.1,0.3c0.1,0.1,0.3,0.1,0.5,0.1c0.8-0.3,8.4-2.8,8.4-2.8l0,0
									c0,0-7.5,2.5-8.4,2.8C46.4,75.3,46.4,75.3,46.3,75.3L46.3,75.3z"/>
							</g>
							<g>
								<path fill="#FEEB17" d="M55.1,74.5c0,0-7.5,2.5-8.4,2.8c-0.6,0.2-0.9-0.6-0.3-0.8c0.5-0.2,8.3-2.8,8.3-2.8"/>
								<path d="M46.5,77.4c-0.2,0-0.4-0.1-0.4-0.3c-0.1-0.2,0-0.5,0.3-0.6c0.5-0.2,8.3-2.8,8.3-2.8s-7.9,2.7-8.3,2.8
									c-0.3,0.1-0.4,0.3-0.3,0.5c0.1,0.2,0.3,0.3,0.6,0.2c0.8-0.3,8.4-2.8,8.4-2.8l0,0c0,0-7.5,2.5-8.4,2.8
									C46.7,77.4,46.6,77.4,46.5,77.4L46.5,77.4z"/>
							</g>
						</g>
						<g>
							<g>
								<path fill="#FEEB17" d="M62.1,83.5v9c0.6,0,1.4,0.1,1.9,0v-9.1"/>
								<path d="M63.1,92.5c-0.4,0-0.7,0-1,0v-9.1l0,0v9c0.5,0,1.4,0,1.9,0v-9.1v9.1C63.8,92.5,63.5,92.5,63.1,92.5L63.1,92.5z"/>
							</g>
							<g>
								<path fill="#FEEB17" d="M61.5,83.4c0,0,0,7.9,0,8.8c0,0.7,0.8,0.6,0.8,0c0-0.5,0-8.8,0-8.8"/>
								<path d="M61.9,92.7c-0.2,0-0.4-0.2-0.4-0.5v-8.8l0,0v8.8c0,0.7,0.8,0.6,0.8,0v-8.8v8.8C62.4,92.5,62.2,92.7,61.9,92.7
									L61.9,92.7z"/>
							</g>
							<g>
								<path fill="#FEEB17" d="M63.7,83.4c0,0,0,7.9,0,8.8c0,0.7,0.8,0.6,0.8,0c0-0.5,0-8.8,0-8.8"/>
								<path d="M64.1,92.7c-0.2,0-0.4-0.2-0.4-0.5v-8.8l0,0v8.8c0,0.7,0.8,0.6,0.8,0v-8.8v8.8C64.6,92.5,64.3,92.7,64.1,92.7
									L64.1,92.7z"/>
							</g>
						</g>
						<g>
							<g>
								<path fill="#FEEB17" d="M71.6,77.2l7,5.9c-0.4,0.8-1.2,2.1-1.6,2.7L70,80"/>
								<path d="M76.9,85.7l-7-5.7L76.9,85.7c0.4-0.5,1.2-1.9,1.6-2.7l-7-5.8l0,0l7,5.9C78.2,83.8,77.4,85.2,76.9,85.7L76.9,85.7z"
									/>
							</g>
							<g>
								<path fill="#FEEB17" d="M71.3,77.5c0,0,6.1,5.1,6.8,5.6c0.5,0.4,1-0.2,0.5-0.6c-0.4-0.3-6.8-5.6-6.8-5.6"/>
								<path d="M78.5,83.3c-0.1,0-0.2,0-0.4-0.1l-6.8-5.6l0,0l6.8,5.6C78.3,83.3,78.4,83.4,78.5,83.3c0.2,0,0.3-0.2,0.3-0.3
									c0-0.2,0-0.3-0.2-0.4c-0.4-0.3-6.8-5.6-6.8-5.6l0,0c0.1,0,6.4,5.3,6.8,5.6c0.2,0.1,0.2,0.3,0.2,0.5
									C78.8,83.2,78.7,83.4,78.5,83.3C78.6,83.3,78.5,83.3,78.5,83.3L78.5,83.3z"/>
							</g>
							<g>
								<path fill="#FEEB17" d="M69.7,80.2c0,0,6.1,5.1,6.8,5.6c0.5,0.4,1-0.2,0.5-0.6c-0.4-0.3-6.8-5.6-6.8-5.6"/>
								<path d="M76.8,86c-0.1,0-0.2,0-0.4-0.1l-6.8-5.6l0,0l6.8,5.6C76.6,86,76.7,86.1,76.8,86c0.2,0,0.3-0.2,0.3-0.3
									c0-0.2,0-0.3-0.2-0.4c-0.4-0.3-6.8-5.6-6.8-5.6l0,0c0.1,0,6.4,5.3,6.8,5.6c0.2,0.1,0.2,0.3,0.2,0.5
									C77.1,85.9,77,86.1,76.8,86C76.9,86,76.9,86,76.8,86L76.8,86z"/>
							</g>
						</g>
						<g>
							<g>
								<path fill="#FEEB17" d="M71.8,72.1l8.5,2.8c0,0.6,0,1.4,0,2.1l-8.8-2.9"/>
								<path d="M80.3,77l-8.8-2.9L80.3,77c0-0.7,0-1.5,0-2.1l-8.5-2.8l0,0l8.5,2.8C80.4,75.5,80.3,76.3,80.3,77L80.3,77z"/>
							</g>
							<g>
								<path fill="#FEEB17" d="M71.8,72.4c0,0,7.5,2.5,8.4,2.8c0.6,0.2,0.9-0.6,0.3-0.8c-0.5-0.2-8.3-2.8-8.3-2.8"/>
								<path d="M80.3,75.3c-0.1,0-0.1,0-0.2,0c-0.8-0.3-8.4-2.8-8.4-2.8l0,0c0,0,7.5,2.5,8.4,2.8c0.2,0.1,0.4,0,0.5-0.1
									s0.1-0.2,0.1-0.4c0-0.1-0.2-0.3-0.3-0.3c-0.5-0.2-8.3-2.8-8.3-2.8s7.9,2.6,8.3,2.7c0.2,0.1,0.3,0.2,0.4,0.4
									c0,0.1,0,0.3-0.1,0.4C80.6,75.2,80.5,75.3,80.3,75.3L80.3,75.3z"/>
							</g>
							<g>
								<path fill="#FEEB17" d="M71.5,74.5c0,0,7.5,2.5,8.4,2.8c0.6,0.2,0.9-0.6,0.3-0.8c-0.5-0.2-8.3-2.8-8.3-2.8"/>
								<path d="M80.1,77.4c-0.1,0-0.1,0-0.2,0c-0.8-0.3-8.4-2.8-8.4-2.8l0,0c0,0,7.5,2.5,8.4,2.8c0.3,0.1,0.5,0,0.6-0.2
									s0-0.4-0.3-0.5c-0.5-0.2-8.3-2.8-8.3-2.8l0,0c0.1,0,7.9,2.6,8.3,2.7c0.3,0.1,0.4,0.4,0.3,0.6C80.5,77.2,80.3,77.4,80.1,77.4
									L80.1,77.4z"/>
							</g>
						</g>
						<g>
							<g>
								<path fill="#FEEB17" d="M57.6,81.4L49.3,85c-0.3-0.4-0.7-1.1-1-1.6l8.2-3.6"/>
								<path d="M49.3,85.1c-0.3-0.4-0.8-1.1-1-1.6l8.2-3.7l-8.2,3.7C48.5,83.9,49,84.6,49.3,85.1l8.3-3.7l0,0L49.3,85.1L49.3,85.1z
									"/>
							</g>
							<g>
								<path fill="#FEEB17" d="M56.7,80.2c0,0-7.3,3-8.1,3.4c-0.6,0.3-0.9-0.5-0.3-0.7c0.4-0.2,8.1-3.4,8.1-3.4"/>
								<path d="M48.3,83.7c-0.1,0-0.2,0-0.3-0.1s-0.2-0.2-0.1-0.3c0-0.2,0.1-0.3,0.3-0.4l8.1-3.4l-8.1,3.4C48.1,83,48,83.1,48,83.3
									c0,0.1,0,0.2,0.1,0.3c0.1,0.1,0.3,0.1,0.5,0l8.1-3.4l0,0l-8.1,3.4C48.5,83.7,48.4,83.7,48.3,83.7L48.3,83.7z"/>
							</g>
							<g>
								<path fill="#FEEB17" d="M57.6,81.8c0,0-7.3,3-8.1,3.4c-0.6,0.3-0.9-0.5-0.3-0.7c0.5-0.2,8.1-3.4,8.1-3.4"/>
								<path d="M49.3,85.3c-0.2,0-0.3-0.1-0.4-0.2c-0.1-0.2,0-0.5,0.3-0.6l8.1-3.4l-8.1,3.4c-0.3,0.1-0.4,0.4-0.3,0.5
									c0.1,0.2,0.3,0.3,0.6,0.2l8.1-3.4l0,0l-8.1,3.4C49.4,85.3,49.3,85.3,49.3,85.3L49.3,85.3z"/>
							</g>
						</g>
						<g>
							<g>
								<path fill="#FEEB17" d="M72.4,65.2l5.5,1.5c0.3,0.4,0.7,1.2,0.9,1.6l-6.5-1.7"/>
								<path d="M78.8,68.3l-6.5-1.6L78.8,68.3c-0.2-0.4-0.6-1.2-0.9-1.6l-5.5-1.4l0,0l5.5,1.5C78.2,67.1,78.6,67.9,78.8,68.3
									L78.8,68.3z"/>
							</g>
							<g>
								<path fill="#FEEB17" d="M72.4,64.8c2.2,0.6,4.8,1.2,5.3,1.3c0.7,0.2,0.4,0.9-0.2,0.7c-0.3-0.1-2.9-0.7-5.2-1.3"/>
								<path d="M77.7,66.9c-0.1,0-0.1,0-0.2,0l-5.2-1.3l5.2,1.3c0.3,0.1,0.5-0.1,0.5-0.2c0-0.2-0.1-0.4-0.4-0.4
									c-0.5-0.1-3.1-0.8-5.3-1.3l0,0c2.2,0.6,4.8,1.2,5.3,1.3c0.3,0.1,0.4,0.3,0.4,0.5C78.1,66.7,77.9,66.9,77.7,66.9L77.7,66.9z"
									/>
							</g>
							<g>
								<path fill="#FEEB17" d="M72.3,66.5c2.3,0.6,5.8,1.4,6.3,1.6c0.7,0.2,0.4,0.9-0.2,0.7c-0.3-0.1-3.7-0.9-6.2-1.5"/>
								<path d="M78.6,68.8c-0.1,0-0.1,0-0.2,0l-6.2-1.6l6.2,1.5c0.3,0.1,0.5-0.1,0.5-0.2c0-0.2-0.1-0.4-0.4-0.4l-6.3-1.6l0,0
									l6.3,1.6c0.3,0.1,0.5,0.3,0.4,0.5C79,68.7,78.8,68.8,78.6,68.8L78.6,68.8z"/>
							</g>
						</g>
					</g>
					<g>
						<g>
							<path fill="#E00727" d="M53.2,77.4c0,5.6,4.6,10.1,10.2,10.1S73.5,83,73.5,77.4V64.3H53.2V77.4z"/>
							<path d="M63.3,87.7c-5.7,0-10.3-4.6-10.3-10.3V64.2h20.6v13.2C73.6,83.1,69,87.7,63.3,87.7L63.3,87.7z M53.3,64.5v13
								c0,5.5,4.5,10,10,10s10-4.5,10-10v-13H53.3L53.3,64.5z"/>
						</g>
						<g>
							<path fill="#E00727" d="M63.3,75.9"/>
						</g>
					</g>
					<g>
						<g>
							<path fill="#E00727" d="M53.2,77.4c0,5.6,4.6,10.1,10.2,10.1S73.5,83,73.5,77.4V64.3H53.2V77.4z"/>
							<path fill="#FFFFFF" d="M63.3,87.6c-5.6,0-10.2-4.6-10.2-10.2V64.3h20.4v13.2C73.5,83,68.9,87.6,63.3,87.6L63.3,87.6z
								 M53.2,64.4v13.1c0,5.6,4.5,10.1,10.1,10.1s10.1-4.5,10.1-10.1V64.4H53.2L53.2,64.4z"/>
						</g>
						<g>
							<path fill="#E00727" d="M63.3,75.9"/>
						</g>
					</g>
					<g>
						<g>
							<path fill="#FFFFFF" d="M57.9,76.8c0,3.3,2.5,6,5.5,6s5.4-2.7,5.4-6v-7.7H57.9V76.8z"/>
							<path d="M63.3,82.8c-3,0-5.5-2.7-5.5-6v-7.7h10.9v7.8C68.8,80.1,66.3,82.8,63.3,82.8L63.3,82.8z M68.7,69.1H57.8v7.7
								c0,3.3,2.4,6,5.4,6s5.4-2.7,5.4-6L68.7,69.1L68.7,69.1z"/>
						</g>
						<g>
							<path fill="#FFFFFF" d="M63.3,76"/>
						</g>
					</g>
					<g>
						<g>
							<g>
								<rect x="56.4" y="65.1" fill="#FEEB17" width="0.6" height="1.4"/>
								<path d="M57,66.6h-0.6v-1.4H57V66.6L57,66.6z M57,65.1h-0.6v1.4H57V65.1L57,65.1z"/>
							</g>
							<g>
								<rect x="55.2" y="65.1" fill="#FEEB17" width="0.6" height="1.4"/>
								<path d="M55.8,66.6h-0.6v-1.4h0.6V66.6L55.8,66.6z M55.8,65.1h-0.6v1.4h0.6V65.1L55.8,65.1z"/>
							</g>
							<g>
								<rect x="54" y="65.1" fill="#FEEB17" width="0.6" height="1.4"/>
								<path d="M54.6,66.6H54v-1.4h0.6V66.6L54.6,66.6z M54.6,65.1H54v1.4h0.6V65.1L54.6,65.1z"/>
							</g>
							<g>
								<rect x="55" y="65" fill="#FEEB17" width="0.9" height="0.3"/>
								<path d="M55.9,65.3H55V65h0.9V65.3L55.9,65.3z M55.9,65H55v0.3h0.9V65L55.9,65z"/>
							</g>
							<g>
								<rect x="54" y="65.8" fill="#FEEB17" width="3" height="2.4"/>
								<path d="M57,68.2h-3v-2.5h3V68.2L57,68.2z M57,65.8h-3v2.4h2.9L57,65.8L57,65.8z"/>
							</g>
							<g>
								<rect x="53.9" y="66.3" fill="#FEEB17" width="3.3" height="0.3"/>
								<path d="M57.1,66.7h-3.3v-0.3h3.3V66.7L57.1,66.7z M57.1,66.3h-3.3v0.3H57L57.1,66.3L57.1,66.3z"/>
							</g>
							<g>
								<rect x="53.9" y="68.2" fill="#FEEB17" width="3.3" height="0.3"/>
								<path d="M57.1,68.6h-3.3v-0.3h3.3V68.6L57.1,68.6z M57.1,68.2h-3.3v0.3H57L57.1,68.2L57.1,68.2z"/>
							</g>
							<g>
								<path fill="#FEEB17" d="M54.7,68.2c0,0,0-0.3,0-0.6c0-0.4,0.3-0.7,0.8-0.7c0.4,0,0.8,0.3,0.8,0.7c0,0.3,0,0.6,0,0.6H54.7z"
									/>
								<path d="M56.3,68.2h-1.5v-0.6c0-0.4,0.3-0.7,0.8-0.7c0.4,0,0.8,0.3,0.8,0.7L56.3,68.2L56.3,68.2z M55.5,66.9
									c-0.4,0-0.7,0.3-0.7,0.7v0.6h1.5v-0.6C56.2,67.3,55.9,66.9,55.5,66.9L55.5,66.9z"/>
							</g>
							<g>
								<path fill="#FEEB17" d="M55,68.2c0,0,0-0.3,0-0.4c0-0.3,0.2-0.6,0.5-0.6s0.5,0.3,0.5,0.6c0,0.2,0,0.4,0,0.4H55z"/>
								<path d="M56,68.2h-1v-0.5c0-0.3,0.2-0.6,0.5-0.6s0.5,0.3,0.5,0.6V68.2L56,68.2z M55.5,67.2c-0.2,0-0.4,0.2-0.4,0.6v0.4H56
									v-0.4C55.9,67.5,55.7,67.2,55.5,67.2L55.5,67.2z"/>
							</g>
							<g>
								<rect x="56.2" y="65" fill="#FEEB17" width="0.9" height="0.3"/>
								<path d="M57.1,65.3h-0.9V65h0.9V65.3L57.1,65.3z M57.1,65h-0.9v0.3h0.9V65L57.1,65z"/>
							</g>
							<g>
								<rect x="53.9" y="65" fill="#FEEB17" width="0.9" height="0.3"/>
								<path d="M54.8,65.3h-0.9V65h0.9V65.3L54.8,65.3z M54.7,65h-0.9v0.3h0.9V65L54.7,65z"/>
							</g>
							<g>
								<path fill="#FEEB17" d="M55.5,66.8"/>
							</g>
						</g>
						<g>
							<g>
								<rect x="72" y="65.1" fill="#FEEB17" width="0.6" height="1.4"/>
								<path d="M72.6,66.6H72v-1.4h0.6V66.6L72.6,66.6z M72.5,65.1h-0.6v1.4h0.6V65.1L72.5,65.1z"/>
							</g>
							<g>
								<rect x="70.8" y="65.1" fill="#FEEB17" width="0.6" height="1.4"/>
								<path d="M71.4,66.6h-0.6v-1.4h0.6V66.6L71.4,66.6z M71.4,65.1h-0.6v1.4h0.6V65.1L71.4,65.1z"/>
							</g>
							<g>
								<rect x="69.6" y="65.1" fill="#FEEB17" width="0.6" height="1.4"/>
								<path d="M70.2,66.6h-0.6v-1.4h0.6V66.6L70.2,66.6z M70.2,65.1h-0.6v1.4h0.6V65.1L70.2,65.1z"/>
							</g>
							<g>
								<rect x="70.6" y="65" fill="#FEEB17" width="0.9" height="0.3"/>
								<path d="M71.5,65.3h-0.9V65h0.9V65.3L71.5,65.3z M71.5,65h-0.9v0.3h0.9V65L71.5,65z"/>
							</g>
							<g>
								<rect x="69.6" y="65.8" fill="#FEEB17" width="3" height="2.4"/>
								<path d="M72.6,68.2h-3v-2.5h3V68.2L72.6,68.2z M72.5,65.8h-3v2.4h2.9L72.5,65.8L72.5,65.8z"/>
							</g>
							<g>
								<rect x="69.4" y="66.3" fill="#FEEB17" width="3.3" height="0.3"/>
								<path d="M72.7,66.6h-3.3v-0.3h3.3V66.6L72.7,66.6z M72.7,66.3h-3.3v0.3h3.2v-0.3H72.7z"/>
							</g>
							<g>
								<rect x="69.4" y="68.2" fill="#FEEB17" width="3.3" height="0.3"/>
								<path d="M72.7,68.6h-3.3v-0.3h3.3V68.6L72.7,68.6z M72.7,68.2h-3.3v0.3h3.2v-0.3H72.7z"/>
							</g>
							<g>
								<path fill="#FEEB17" d="M70.3,68.2c0,0,0-0.3,0-0.6c0-0.4,0.3-0.7,0.8-0.7c0.4,0,0.8,0.3,0.8,0.7c0,0.3,0,0.6,0,0.6H70.3z"
									/>
								<path d="M71.8,68.2h-1.5v-0.6c0-0.4,0.3-0.7,0.8-0.7c0.4,0,0.8,0.3,0.8,0.7v0.6H71.8z M71.1,66.9c-0.4,0-0.7,0.3-0.7,0.7
									v0.6h1.5v-0.6C71.8,67.2,71.5,66.9,71.1,66.9L71.1,66.9z"/>
							</g>
							<g>
								<path fill="#FEEB17" d="M70.6,68.2c0,0,0-0.3,0-0.4c0-0.3,0.2-0.6,0.5-0.6s0.5,0.3,0.5,0.6c0,0.2,0,0.4,0,0.4H70.6z"/>
								<path d="M71.5,68.2h-0.9v-0.5c0-0.3,0.2-0.6,0.5-0.6s0.5,0.3,0.5,0.6L71.5,68.2L71.5,68.2z M71.1,67.2
									c-0.2,0-0.4,0.2-0.4,0.6v0.4h0.9v-0.4C71.5,67.5,71.3,67.2,71.1,67.2L71.1,67.2z"/>
							</g>
							<g>
								<rect x="71.8" y="65" fill="#FEEB17" width="0.9" height="0.3"/>
								<path d="M72.7,65.3h-0.9V65h0.9V65.3L72.7,65.3z M72.7,65h-0.9v0.3h0.9V65L72.7,65z"/>
							</g>
							<g>
								<rect x="69.5" y="65" fill="#FEEB17" width="0.9" height="0.3"/>
								<path d="M70.3,65.3h-0.9V65h0.9V65.3L70.3,65.3z M70.3,65h-0.9v0.3h0.9V65L70.3,65z"/>
							</g>
							<g>
								<path fill="#FEEB17" d="M71.1,66.7"/>
							</g>
						</g>
						<g>
							<g>
								<rect x="64.2" y="65.1" fill="#FEEB17" width="0.6" height="1.4"/>
								<path d="M64.8,66.6h-0.6v-1.5h0.6V66.6L64.8,66.6z M64.8,65.1h-0.6v1.4h0.6V65.1L64.8,65.1z"/>
							</g>
							<g>
								<rect x="63" y="65.1" fill="#FEEB17" width="0.6" height="1.4"/>
								<path d="M63.6,66.6H63v-1.5h0.6V66.6L63.6,66.6z M63.6,65.1H63v1.4h0.6V65.1L63.6,65.1z"/>
							</g>
							<g>
								<rect x="61.8" y="65.1" fill="#FEEB17" width="0.6" height="1.4"/>
								<path d="M62.4,66.6h-0.6v-1.5h0.6V66.6L62.4,66.6z M62.4,65.1h-0.6v1.4h0.6V65.1L62.4,65.1z"/>
							</g>
							<g>
								<rect x="62.9" y="65" fill="#FEEB17" width="0.9" height="0.3"/>
								<path d="M63.8,65.3h-0.9V65h0.9V65.3L63.8,65.3z M63.7,65h-0.9v0.3h0.9V65L63.7,65z"/>
							</g>
							<g>
								<rect x="61.8" y="65.8" fill="#FEEB17" width="3" height="2.4"/>
								<path d="M64.8,68.2h-3v-2.5h3V68.2L64.8,68.2z M64.8,65.8h-3v2.4h2.9L64.8,65.8L64.8,65.8z"/>
							</g>
							<g>
								<rect x="61.7" y="66.3" fill="#FEEB17" width="3.3" height="0.3"/>
								<path d="M65,66.7h-3.3v-0.3H65V66.7L65,66.7z M64.9,66.3h-3.3v0.3h3.2L64.9,66.3L64.9,66.3z"/>
							</g>
							<g>
								<rect x="61.7" y="68.2" fill="#FEEB17" width="3.3" height="0.3"/>
								<path d="M65,68.6h-3.3v-0.3H65V68.6L65,68.6z M64.9,68.2h-3.3v0.3h3.2L64.9,68.2L64.9,68.2z"/>
							</g>
							<g>
								<path fill="#FEEB17" d="M62.6,68.2c0,0,0-0.3,0-0.6c0-0.4,0.3-0.7,0.8-0.7c0.4,0,0.8,0.3,0.8,0.7c0,0.3,0,0.6,0,0.6H62.6z"
									/>
								<path d="M64.1,68.2h-1.5v-0.6c0-0.4,0.3-0.7,0.8-0.7c0.4,0,0.8,0.3,0.8,0.7L64.1,68.2L64.1,68.2z M63.3,66.9
									c-0.4,0-0.8,0.3-0.8,0.7v0.6H64v-0.6C64.1,67.3,63.7,66.9,63.3,66.9L63.3,66.9z"/>
							</g>
							<g>
								<path fill="#FEEB17" d="M62.9,68.2c0,0,0-0.3,0-0.4c0-0.3,0.2-0.6,0.5-0.6s0.5,0.3,0.5,0.6c0,0.2,0,0.4,0,0.4H62.9z"/>
								<path d="M63.8,68.2h-0.9v-0.5c0-0.3,0.2-0.6,0.5-0.6s0.5,0.3,0.5,0.6L63.8,68.2L63.8,68.2z M63.3,67.2
									c-0.2,0-0.4,0.2-0.4,0.6v0.4h0.9v-0.4C63.8,67.5,63.6,67.2,63.3,67.2L63.3,67.2z"/>
							</g>
							<g>
								<rect x="64.1" y="65" fill="#FEEB17" width="0.9" height="0.3"/>
								<path d="M64.9,65.3H64V65h0.9V65.3L64.9,65.3z M64.9,65H64v0.3h0.9V65L64.9,65z"/>
							</g>
							<g>
								<rect x="61.7" y="65" fill="#FEEB17" width="0.9" height="0.3"/>
								<path d="M62.6,65.3h-0.9V65h0.9V65.3L62.6,65.3z M62.6,65h-0.9v0.3h0.9V65L62.6,65z"/>
							</g>
							<g>
								<path fill="#FEEB17" d="M63.3,66.8"/>
							</g>
						</g>
						<g>
							<g>
								<rect x="56.4" y="74.3" fill="#FEEB17" width="0.6" height="1.4"/>
								<path d="M57,75.8h-0.6v-1.5H57V75.8L57,75.8z M57,74.3h-0.6v1.4H57V74.3L57,74.3z"/>
							</g>
							<g>
								<rect x="55.2" y="74.3" fill="#FEEB17" width="0.6" height="1.4"/>
								<path d="M55.8,75.8h-0.6v-1.5h0.6V75.8L55.8,75.8z M55.8,74.3h-0.6v1.4h0.6V74.3L55.8,74.3z"/>
							</g>
							<g>
								<rect x="54" y="74.3" fill="#FEEB17" width="0.6" height="1.4"/>
								<path d="M54.6,75.8H54v-1.5h0.6V75.8L54.6,75.8z M54.6,74.3H54v1.4h0.6V74.3L54.6,74.3z"/>
							</g>
							<g>
								<rect x="55" y="74.2" fill="#FEEB17" width="0.9" height="0.3"/>
								<path d="M55.9,74.5H55v-0.3h0.9V74.5L55.9,74.5z M55.9,74.2H55v0.3h0.9V74.2L55.9,74.2z"/>
							</g>
							<g>
								<rect x="54" y="75" fill="#FEEB17" width="3" height="2.4"/>
								<path d="M57,77.4h-3v-2.5h3V77.4L57,77.4z M57,75h-3v2.4h2.9L57,75L57,75z"/>
							</g>
							<g>
								<rect x="53.9" y="75.5" fill="#FEEB17" width="3.3" height="0.3"/>
								<path d="M57.1,75.9h-3.3v-0.3h3.3V75.9L57.1,75.9z M57.1,75.5h-3.3v0.3H57L57.1,75.5L57.1,75.5z"/>
							</g>
							<g>
								<rect x="53.9" y="77.4" fill="#FEEB17" width="3.3" height="0.3"/>
								<path d="M57.1,77.8h-3.3v-0.3h3.3V77.8L57.1,77.8z M57.1,77.4h-3.3v0.3H57L57.1,77.4L57.1,77.4z"/>
							</g>
							<g>
								<path fill="#FEEB17" d="M54.7,77.4c0,0,0-0.3,0-0.6c0-0.4,0.3-0.7,0.8-0.7c0.4,0,0.8,0.3,0.8,0.7c0,0.3,0,0.6,0,0.6H54.7z"
									/>
								<path d="M56.3,77.4h-1.5v-0.6c0-0.4,0.3-0.7,0.8-0.7c0.4,0,0.8,0.3,0.8,0.7L56.3,77.4L56.3,77.4z M55.5,76.1
									c-0.4,0-0.7,0.3-0.7,0.7v0.6h1.5v-0.6C56.2,76.5,55.9,76.1,55.5,76.1L55.5,76.1z"/>
							</g>
							<g>
								<path fill="#FEEB17" d="M55,77.4c0,0,0-0.3,0-0.4c0-0.3,0.2-0.6,0.5-0.6S56,76.7,56,77c0,0.2,0,0.4,0,0.4H55z"/>
								<path d="M56,77.4h-1v-0.5c0-0.3,0.2-0.6,0.5-0.6s0.5,0.3,0.5,0.6V77.4L56,77.4z M55.5,76.4c-0.2,0-0.4,0.2-0.4,0.6v0.4H56
									V77C55.9,76.7,55.7,76.4,55.5,76.4L55.5,76.4z"/>
							</g>
							<g>
								<rect x="56.2" y="74.2" fill="#FEEB17" width="0.9" height="0.3"/>
								<path d="M57.1,74.5h-0.9v-0.3h0.9V74.5L57.1,74.5z M57.1,74.2h-0.9v0.3h0.9V74.2L57.1,74.2z"/>
							</g>
							<g>
								<rect x="53.9" y="74.2" fill="#FEEB17" width="0.9" height="0.3"/>
								<path d="M54.8,74.5h-0.9v-0.3h0.9V74.5L54.8,74.5z M54.7,74.2h-0.9v0.3h0.9V74.2L54.7,74.2z"/>
							</g>
							<g>
								<path fill="#FEEB17" d="M55.5,76"/>
							</g>
						</g>
						<g>
							<g>
								<rect x="69.7" y="74.3" fill="#FEEB17" width="0.6" height="1.4"/>
								<path d="M70.3,75.8h-0.6v-1.5h0.6V75.8L70.3,75.8z M70.2,74.3h-0.6v1.4h0.6V74.3L70.2,74.3z"/>
							</g>
							<g>
								<rect x="70.8" y="74.3" fill="#FEEB17" width="0.6" height="1.4"/>
								<path d="M71.4,75.8h-0.6v-1.5h0.6V75.8L71.4,75.8z M71.4,74.3h-0.6v1.4h0.6V74.3L71.4,74.3z"/>
							</g>
							<g>
								<rect x="72" y="74.3" fill="#FEEB17" width="0.6" height="1.4"/>
								<path d="M72.6,75.8H72v-1.5h0.6V75.8L72.6,75.8z M72.6,74.3H72v1.4h0.6V74.3L72.6,74.3z"/>
							</g>
							<g>
								<rect x="70.7" y="74.2" fill="#FEEB17" width="0.9" height="0.3"/>
								<path d="M71.6,74.5h-0.9v-0.3h0.9V74.5L71.6,74.5z M71.6,74.2h-0.9v0.3h0.9V74.2L71.6,74.2z"/>
							</g>
							<g>
								<rect x="69.7" y="75" fill="#FEEB17" width="3" height="2.4"/>
								<path d="M72.6,77.4h-3v-2.5h3V77.4L72.6,77.4z M72.6,75h-3v2.4h2.9L72.6,75L72.6,75z"/>
							</g>
							<g>
								<rect x="69.5" y="75.5" fill="#FEEB17" width="3.3" height="0.3"/>
								<path d="M72.8,75.9h-3.3v-0.3h3.3V75.9L72.8,75.9z M72.8,75.5h-3.3v0.3h3.2v-0.3H72.8z"/>
							</g>
							<g>
								<rect x="69.5" y="77.4" fill="#FEEB17" width="3.3" height="0.3"/>
								<path d="M72.8,77.8h-3.3v-0.3h3.3V77.8L72.8,77.8z M72.8,77.4h-3.3v0.3h3.2v-0.3H72.8z"/>
							</g>
							<g>
								<path fill="#FEEB17" d="M71.9,77.4c0,0,0-0.3,0-0.6c0-0.4-0.3-0.7-0.8-0.7c-0.4,0-0.8,0.3-0.8,0.7c0,0.3,0,0.6,0,0.6H71.9z"
									/>
								<path d="M71.9,77.4h-1.5v-0.6c0-0.4,0.3-0.7,0.8-0.7c0.4,0,0.8,0.3,0.8,0.7v0.6H71.9z M71.1,76.1c-0.4,0-0.7,0.3-0.7,0.7
									v0.6h1.5v-0.6C71.9,76.5,71.5,76.1,71.1,76.1L71.1,76.1z"/>
							</g>
							<g>
								<path fill="#FEEB17" d="M71.6,77.4c0,0,0-0.3,0-0.4c0-0.3-0.2-0.6-0.5-0.6s-0.5,0.3-0.5,0.6c0,0.2,0,0.4,0,0.4H71.6z"/>
								<path d="M71.6,77.4h-0.9v-0.5c0-0.3,0.2-0.6,0.5-0.6s0.5,0.3,0.5,0.6L71.6,77.4L71.6,77.4z M71.1,76.4
									c-0.2,0-0.4,0.2-0.4,0.6v0.4h0.9V77C71.6,76.7,71.4,76.4,71.1,76.4L71.1,76.4z"/>
							</g>
							<g>
								<rect x="69.5" y="74.2" fill="#FEEB17" width="0.9" height="0.3"/>
								<path d="M70.4,74.5h-0.9v-0.3h0.9V74.5L70.4,74.5z M70.4,74.2h-0.9v0.3h0.9V74.2L70.4,74.2z"/>
							</g>
							<g>
								<rect x="71.9" y="74.2" fill="#FEEB17" width="0.9" height="0.3"/>
								<path d="M72.8,74.5h-0.9v-0.3h0.9V74.5L72.8,74.5z M72.7,74.2h-0.9v0.3h0.9V74.2L72.7,74.2z"/>
							</g>
							<g>
								<path fill="#FEEB17" d="M71.1,76"/>
							</g>
						</g>
						<g>
							<g>
								
									<rect x="58.3" y="82.1" transform="matrix(-0.8338 -0.5521 0.5521 -0.8338 62.6984 183.6016)" fill="#FEEB17" width="1.4" height="0.6"/>
								<path d="M59.5,83l-1.2-0.8l0.3-0.5l1.2,0.8L59.5,83L59.5,83z M58.6,81.7l-0.3,0.5l1.2,0.8l0.3-0.5L58.6,81.7L58.6,81.7z"/>
							</g>
							<g>
								
									<rect x="57.7" y="83" transform="matrix(-0.834 -0.5517 0.5517 -0.834 61.1952 185.0147)" fill="#FEEB17" width="1.4" height="0.6"/>
								<path d="M58.8,84l-1.2-0.8l0.3-0.5l1.2,0.8L58.8,84L58.8,84z M58,82.7l-0.3,0.5l1.2,0.8l0.3-0.5L58,82.7L58,82.7z"/>
							</g>
							<g>
								
									<rect x="57" y="84" transform="matrix(-0.8341 -0.5517 0.5517 -0.8341 59.3765 186.4309)" fill="#FEEB17" width="1.4" height="0.6"/>
								<path d="M58.2,85L57,84.2l0.3-0.5l1.2,0.8L58.2,85L58.2,85z M57.3,83.7L57,84.2l1.2,0.8l0.3-0.5L57.3,83.7L57.3,83.7z"/>
							</g>
							<g>
								
									<rect x="57.6" y="82.5" transform="matrix(-0.8342 -0.5515 0.5515 -0.8342 60.2153 183.9439)" fill="#FEEB17" width="0.3" height="0.9"/>
								<path d="M57.7,83.4l-0.3-0.2l0.5-0.7l0.3,0.2L57.7,83.4L57.7,83.4z M57.9,82.5l-0.5,0.7l0.3,0.2l0.5-0.7L57.9,82.5
									L57.9,82.5z"/>
							</g>
							<g>
								
									<rect x="58.1" y="82.5" transform="matrix(-0.8338 -0.552 0.552 -0.8338 62.4123 186.7002)" fill="#FEEB17" width="2.4" height="3"/>
								<path d="M59.6,85.9l-2-1.4l1.6-2.5l2.1,1.3L59.6,85.9L59.6,85.9z M59.2,82.1l-1.6,2.5l2,1.3l1.6-2.5L59.2,82.1L59.2,82.1z"
									/>
							</g>
							<g>
								
									<rect x="58.8" y="82.1" transform="matrix(-0.8354 -0.5496 0.5496 -0.8354 62.1123 186.0975)" fill="#FEEB17" width="0.3" height="3.3"/>
								<path d="M58.2,85.2L57.9,85l1.8-2.7l0.3,0.2L58.2,85.2L58.2,85.2z M59.7,82.3L57.9,85l0.3,0.2l1.8-2.7L59.7,82.3L59.7,82.3z
									"/>
							</g>
							<g>
								
									<rect x="60.4" y="83.1" transform="matrix(-0.8332 -0.553 0.553 -0.8332 64.1203 188.8754)" fill="#FEEB17" width="0.3" height="3.3"/>
								<path d="M59.8,86.2L59.5,86l1.8-2.7l0.3,0.2L59.8,86.2L59.8,86.2z M61.3,83.3L59.5,86l0.3,0.2l1.8-2.7L61.3,83.3L61.3,83.3z
									"/>
							</g>
							<g>
								<path fill="#FEEB17" d="M60,85.3c0,0-0.3-0.2-0.5-0.3c-0.3-0.2-0.4-0.7-0.2-1s0.7-0.5,1-0.2c0.2,0.1,0.5,0.3,0.5,0.3
									L60,85.3z"/>
								<path d="M60,85.3L59.5,85c-0.2-0.1-0.3-0.3-0.3-0.5s0-0.4,0.1-0.6c0.2-0.3,0.7-0.5,1-0.2l0.5,0.3L60,85.3L60,85.3z
									 M59.9,83.6c-0.3,0-0.5,0.1-0.6,0.3c-0.1,0.2-0.2,0.4-0.1,0.6s0.1,0.4,0.3,0.5l0.5,0.3l0.8-1.3l-0.5-0.3
									C60.2,83.6,60.1,83.6,59.9,83.6L59.9,83.6z"/>
							</g>
							<g>
								<path fill="#FEEB17" d="M60.1,85c0,0-0.2-0.1-0.4-0.2c-0.3-0.2-0.4-0.5-0.2-0.7c0.1-0.2,0.5-0.2,0.7-0.1s0.4,0.2,0.4,0.2
									L60.1,85z"/>
								<path d="M60.1,85.1l-0.4-0.3c-0.1-0.1-0.2-0.2-0.3-0.3c0-0.1,0-0.3,0-0.4c0.1-0.2,0.5-0.2,0.7-0.1l0.4,0.2L60.1,85.1
									L60.1,85.1z M59.9,83.9c-0.2,0-0.3,0.1-0.4,0.2c-0.1,0.1-0.1,0.2,0,0.4c0,0.1,0.1,0.2,0.3,0.3l0.4,0.2l0.5-0.8L60.3,84
									C60.2,84,60,83.9,59.9,83.9L59.9,83.9z"/>
							</g>
							<g>
								
									<rect x="58.3" y="81.5" transform="matrix(-0.8298 -0.5581 0.5581 -0.8298 61.2398 182.5782)" fill="#FEEB17" width="0.3" height="0.9"/>
								<path d="M58.4,82.4l-0.3-0.2l0.5-0.7l0.3,0.2L58.4,82.4L58.4,82.4z M58.6,81.5l-0.5,0.7l0.3,0.2l0.5-0.7L58.6,81.5
									L58.6,81.5z"/>
							</g>
							<g>
								
									<rect x="57" y="83.5" transform="matrix(-0.832 -0.5548 0.5548 -0.832 58.1116 185.4853)" fill="#FEEB17" width="0.3" height="0.9"/>
								<path d="M57.1,84.4l-0.3-0.2l0.5-0.7l0.3,0.2L57.1,84.4L57.1,84.4z M57.3,83.5l-0.5,0.7l0.3,0.2l0.5-0.7L57.3,83.5
									L57.3,83.5z"/>
							</g>
							<g>
								<path fill="#FEEB17" d="M59.2,83.9"/>
							</g>
						</g>
						<g>
							<g>
								
									<rect x="66.8" y="82" transform="matrix(0.8345 -0.551 0.551 0.8345 -34.1688 50.8381)" fill="#FEEB17" width="1.4" height="0.6"/>
								<path d="M67.1,83l-0.3-0.5l1.2-0.8l0.3,0.5L67.1,83L67.1,83z M68,81.7l-1.2,0.8l0.3,0.5l1.2-0.8L68,81.7L68,81.7z"/>
							</g>
							<g>
								
									<rect x="67.5" y="83.1" transform="matrix(0.834 -0.5517 0.5517 0.834 -34.6832 51.4771)" fill="#FEEB17" width="1.4" height="0.6"/>
								<path d="M67.8,84l-0.3-0.5l1.2-0.8l0.3,0.5L67.8,84L67.8,84z M68.6,82.7l-1.2,0.8l0.3,0.5l1.2-0.8L68.6,82.7L68.6,82.7z"/>
							</g>
							<g>
								
									<rect x="68.2" y="84" transform="matrix(0.8338 -0.552 0.552 0.8338 -35.1028 52.0584)" fill="#FEEB17" width="1.4" height="0.6"/>
								<path d="M68.4,85l-0.3-0.5l1.2-0.8l0.3,0.5L68.4,85L68.4,85z M69.3,83.7l-1.2,0.8l0.3,0.5l1.2-0.8L69.3,83.7L69.3,83.7z"/>
							</g>
							<g>
								
									<rect x="68.7" y="82.5" transform="matrix(0.8331 -0.5531 0.5531 0.8331 -34.3864 51.9062)" fill="#FEEB17" width="0.3" height="0.9"/>
								<path d="M68.9,83.4l-0.5-0.7l0.3-0.2l0.5,0.7L68.9,83.4L68.9,83.4z M68.7,82.5l-0.3,0.2l0.5,0.7l0.3-0.2L68.7,82.5
									L68.7,82.5z"/>
							</g>
							<g>
								
									<rect x="66" y="82.5" transform="matrix(0.8337 -0.5523 0.5523 0.8337 -35.1826 51.1005)" fill="#FEEB17" width="2.4" height="3"/>
								<path d="M67,85.9L67,85.9l-1.6-2.5l2-1.4l1.7,2.5L67,85.9L67,85.9z M67.4,82.1l-2,1.4l1.6,2.4l2-1.3L67.4,82.1L67.4,82.1z"
									/>
							</g>
							<g>
								
									<rect x="67.5" y="82" transform="matrix(0.8332 -0.553 0.553 0.8332 -34.9676 51.3622)" fill="#FEEB17" width="0.3" height="3.3"/>
								<path d="M68.4,85.2L68.4,85.2l-1.8-2.7l0.3-0.2l1.8,2.7L68.4,85.2L68.4,85.2z M66.9,82.3l-0.3,0.2l1.8,2.7l0.3-0.2
									L66.9,82.3L66.9,82.3z"/>
							</g>
							<g>
								
									<rect x="65.9" y="83.1" transform="matrix(0.8332 -0.553 0.553 0.8332 -35.835 50.683)" fill="#FEEB17" width="0.3" height="3.3"/>
								<path d="M66.8,86.2L66.8,86.2L65,83.5l0.3-0.2l1.8,2.7L66.8,86.2L66.8,86.2z M65.3,83.3L65,83.5l1.8,2.7l0.3-0.2L65.3,83.3
									L65.3,83.3z"/>
							</g>
							<g>
								<path fill="#FEEB17" d="M66.6,85.3c0,0,0.3-0.2,0.5-0.3c0.3-0.2,0.4-0.7,0.2-1c-0.2-0.3-0.7-0.5-1-0.2
									c-0.2,0.1-0.5,0.3-0.5,0.3L66.6,85.3z"/>
								<path d="M66.6,85.3L65.8,84l0.5-0.3c0.3-0.2,0.8-0.1,1,0.2c0.2,0.4,0.1,0.8-0.2,1.1L66.6,85.3L66.6,85.3z M66.7,83.6
									c-0.1,0-0.3,0-0.4,0.1L65.8,84l0.8,1.2l0.5-0.3c0.3-0.2,0.4-0.7,0.2-1C67.2,83.7,66.9,83.6,66.7,83.6L66.7,83.6z"/>
							</g>
							<g>
								<path fill="#FEEB17" d="M66.5,85c0,0,0.2-0.1,0.4-0.2c0.3-0.2,0.4-0.5,0.2-0.7c-0.1-0.2-0.5-0.2-0.7-0.1S66,84.2,66,84.2
									L66.5,85z"/>
								<path d="M66.5,85.1L66,84.3l0.4-0.3c0.3-0.2,0.6-0.1,0.7,0.1c0.1,0.1,0.1,0.2,0.1,0.3c0,0.1-0.1,0.3-0.3,0.4L66.5,85.1
									L66.5,85.1z M66.7,83.9c-0.1,0-0.2,0-0.4,0.1L66,84.3l0.5,0.7l0.4-0.2c0.1-0.1,0.2-0.2,0.3-0.4c0-0.1,0-0.2-0.1-0.3
									C67,84,66.8,83.9,66.7,83.9L66.7,83.9z"/>
							</g>
							<g>
								
									<rect x="68" y="81.6" transform="matrix(0.8298 -0.5581 0.5581 0.8298 -34.167 51.9823)" fill="#FEEB17" width="0.3" height="0.9"/>
								<path d="M68.2,82.4l-0.5-0.7l0.3-0.2l0.5,0.7L68.2,82.4L68.2,82.4z M68,81.5l-0.3,0.2l0.5,0.7l0.3-0.2L68,81.5L68,81.5z"/>
							</g>
							<g>
								
									<rect x="69.3" y="83.5" transform="matrix(0.8298 -0.5581 0.5581 0.8298 -35.0273 53.0281)" fill="#FEEB17" width="0.3" height="0.9"/>
								<path d="M69.5,84.4L69,83.7l0.3-0.2l0.5,0.7L69.5,84.4L69.5,84.4z M69.3,83.5L69,83.7l0.5,0.7l0.3-0.2L69.3,83.5L69.3,83.5z
									"/>
							</g>
							<g>
								<path fill="#FEEB17" d="M67.4,83.9"/>
							</g>
						</g>
					</g>
					<g>
						<g>
							<path fill="#0C73BA" d="M62,71.9c0,0.8,0.6,1.4,1.3,1.4s1.3-0.6,1.3-1.4v-1.8H62V71.9z"/>
							<path d="M63.3,73.3c-0.7,0-1.3-0.6-1.3-1.4v-1.8h2.6v1.8C64.6,72.7,64,73.3,63.3,73.3L63.3,73.3z M64.6,70.1H62v1.8
								c0,0.8,0.6,1.4,1.3,1.4s1.3-0.6,1.3-1.4V70.1L64.6,70.1z"/>
						</g>
						<g>
							<path fill="#0C73BA" d="M62,76.1c0,0.8,0.6,1.4,1.3,1.4s1.3-0.6,1.3-1.4v-1.8H62V76.1z"/>
							<path d="M63.3,77.5c-0.7,0-1.3-0.6-1.3-1.4v-1.8h2.6v1.8C64.6,76.9,64,77.5,63.3,77.5L63.3,77.5z M64.6,74.3H62v1.8
								c0,0.8,0.6,1.4,1.3,1.4s1.3-0.6,1.3-1.4V74.3L64.6,74.3z"/>
						</g>
						<g>
							<path fill="#0C73BA" d="M62,80.3c0,0.8,0.6,1.4,1.3,1.4s1.3-0.6,1.3-1.4v-1.8H62V80.3z"/>
							<path d="M63.3,81.7c-0.7,0-1.3-0.6-1.3-1.4v-1.8h2.6v1.8C64.6,81.1,64,81.7,63.3,81.7L63.3,81.7z M64.6,78.5H62v1.8
								c0,0.8,0.6,1.4,1.3,1.4s1.3-0.6,1.3-1.4V78.5L64.6,78.5z"/>
						</g>
						<g>
							<path fill="#0C73BA" d="M58.6,76.1c0,0.8,0.6,1.4,1.3,1.4s1.3-0.6,1.3-1.4v-1.8h-2.6V76.1z"/>
							<path d="M59.9,77.5c-0.7,0-1.3-0.6-1.3-1.4v-1.8h2.6v1.8C61.2,76.9,60.6,77.5,59.9,77.5L59.9,77.5z M61.2,74.3h-2.6v1.8
								c0,0.8,0.6,1.4,1.3,1.4s1.3-0.6,1.3-1.4V74.3L61.2,74.3z"/>
						</g>
						<g>
							<path fill="#0C73BA" d="M68,76.1c0,0.8-0.6,1.4-1.3,1.4c-0.7,0-1.3-0.6-1.3-1.4v-1.8H68V76.1z"/>
							<path d="M66.7,77.5c-0.7,0-1.3-0.6-1.3-1.4v-1.8H68v1.8C68,76.9,67.4,77.5,66.7,77.5L66.7,77.5z M68,74.3h-2.6v1.8
								c0,0.8,0.6,1.4,1.3,1.4c0.7,0,1.3-0.6,1.3-1.4L68,74.3L68,74.3z"/>
						</g>
					</g>
					<g>
						<path fill="#FFFFFF" d="M63.3,71.7c0.1,0,0.2-0.1,0.2-0.2s-0.1-0.2-0.2-0.2c-0.1,0-0.2,0.1-0.2,0.2S63.2,71.7,63.3,71.7z"/>
						<circle fill="#FFFFFF" cx="62.7" cy="70.6" r="0.2"/>
						<circle fill="#FFFFFF" cx="63.9" cy="70.6" r="0.2"/>
						<circle fill="#FFFFFF" cx="62.7" cy="72.3" r="0.2"/>
						<circle fill="#FFFFFF" cx="63.9" cy="72.3" r="0.2"/>
						<circle fill="#FFFFFF" cx="63.3" cy="75.7" r="0.2"/>
						<circle fill="#FFFFFF" cx="62.7" cy="74.9" r="0.2"/>
						<circle fill="#FFFFFF" cx="63.9" cy="74.9" r="0.2"/>
						<circle fill="#FFFFFF" cx="62.7" cy="76.5" r="0.2"/>
						<circle fill="#FFFFFF" cx="63.9" cy="76.5" r="0.2"/>
						<circle fill="#FFFFFF" cx="63.3" cy="79.9" r="0.2"/>
						<circle fill="#FFFFFF" cx="62.7" cy="79.1" r="0.2"/>
						<circle fill="#FFFFFF" cx="63.9" cy="79.1" r="0.2"/>
						<circle fill="#FFFFFF" cx="62.7" cy="80.7" r="0.2"/>
						<circle fill="#FFFFFF" cx="63.9" cy="80.7" r="0.2"/>
						<circle fill="#FFFFFF" cx="59.9" cy="75.7" r="0.2"/>
						<circle fill="#FFFFFF" cx="59.3" cy="74.9" r="0.2"/>
						<circle fill="#FFFFFF" cx="60.5" cy="74.9" r="0.2"/>
						<circle fill="#FFFFFF" cx="59.3" cy="76.5" r="0.2"/>
						<circle fill="#FFFFFF" cx="60.5" cy="76.5" r="0.2"/>
						<circle fill="#FFFFFF" cx="66.7" cy="75.7" r="0.2"/>
						<circle fill="#FFFFFF" cx="67.3" cy="74.9" r="0.2"/>
						<circle fill="#FFFFFF" cx="66.1" cy="74.9" r="0.2"/>
						<circle fill="#FFFFFF" cx="67.3" cy="76.5" r="0.2"/>
						<circle fill="#FFFFFF" cx="66.1" cy="76.5" r="0.2"/>
					</g>
				</g>
			</g>
		</g>
	</g>
</g>
<g id="gha">
	<circle fill="none" stroke="#FFFFFF" stroke-miterlimit="10" cx="75" cy="75" r="54.5"/>
	<g>
		<g>
			<defs>
				<circle id="SVGID_53_" cx="75" cy="75" r="50.5"/>
			</defs>
			<clipPath id="SVGID_54_">
				<use xlink:href="#SVGID_53_"  overflow="visible"/>
			</clipPath>
			<g clip-path="url(#SVGID_54_)">
				<rect x="2.1" y="57.7" fill="#FFD405" width="145.4" height="33.9"/>
				<rect x="2.1" y="23.8" fill="#E00727" width="145.4" height="33.9"/>
				<rect x="2.1" y="91.6" fill="#01613A" width="145.4" height="33.9"/>
				<polygon points="74.8,57.9 70.7,70.7 57.1,70.7 68.1,78.7 63.9,91.5 74.8,83.6 85.7,91.5 81.5,78.6 92.5,70.8 79,70.8 				"/>
			</g>
		</g>
	</g>
</g>
</svg>
